STARTFONT 2.1
FONT -Adobe-New Century Schoolbook-Bold-R-Normal--34-240-100-100-P-193-ISO10646-1
SIZE 24 100 100
FONTBOUNDINGBOX 39 53 -4 -13
COMMENT ISO10646-1 extension by Markus Kuhn <mkuhn@acm.org>, 2001-03-20
COMMENT 
COMMENT +
COMMENT  Copyright 1984-1989, 1994 Adobe Systems Incorporated.
COMMENT  Copyright 1988, 1994 Digital Equipment Corporation.
COMMENT
COMMENT  Adobe is a trademark of Adobe Systems Incorporated which may be
COMMENT  registered in certain jurisdictions.
COMMENT  Permission to use these trademarks is hereby granted only in
COMMENT  association with the images described in this file.
COMMENT
COMMENT  Permission to use, copy, modify, distribute and sell this software
COMMENT  and its documentation for any purpose and without fee is hereby
COMMENT  granted, provided that the above copyright notices appear in all
COMMENT  copies and that both those copyright notices and this permission
COMMENT  notice appear in supporting documentation, and that the names of
COMMENT  Adobe Systems and Digital Equipment Corporation not be used in
COMMENT  advertising or publicity pertaining to distribution of the software
COMMENT  without specific, written prior permission.  Adobe Systems and
COMMENT  Digital Equipment Corporation make no representations about the
COMMENT  suitability of this software for any purpose.  It is provided "as
COMMENT  is" without express or implied warranty.
COMMENT -
STARTPROPERTIES 26
FOUNDRY "Adobe"
FAMILY_NAME "New Century Schoolbook"
WEIGHT_NAME "Bold"
SLANT "R"
SETWIDTH_NAME "Normal"
ADD_STYLE_NAME ""
PIXEL_SIZE 34
POINT_SIZE 240
RESOLUTION_X 100
RESOLUTION_Y 100
SPACING "P"
AVERAGE_WIDTH 193
CHARSET_REGISTRY "ISO10646"
CHARSET_ENCODING "1"
CAP_HEIGHT 25
X_HEIGHT 16
FONT_ASCENT 29
FONT_DESCENT 7
FACE_NAME "New Century Schoolbook Bold"
COPYRIGHT "Copyright (c) 1984, 1987 Adobe Systems Incorporated. All Rights Reserved. Copyright (c) 1988, 1991 Digital Equipment Corporation. All Rights Reserved."

STARTCHAR char0
ENCODING 0
SWIDTH 870 0
DWIDTH 28 0
BBX 25 25 1 0
BITMAP
AAAAAA80
00000000
80000080
00000000
80000080
00000000
80000080
00000000
80000080
00000000
80000080
00000000
80000080
00000000
80000080
00000000
80000080
00000000
80000080
00000000
80000080
00000000
80000080
00000000
AAAAAA80
ENDCHAR
STARTCHAR space
ENCODING 32
SWIDTH 287 0
DWIDTH 9 0
BBX 1 1 1 0
BITMAP
00
ENDCHAR
STARTCHAR exclam
ENCODING 33
SWIDTH 296 0
DWIDTH 10 0
BBX 6 25 2 0
BITMAP
78
FC
FC
FC
FC
FC
FC
78
78
78
78
30
30
30
30
30
30
00
00
78
FC
FC
FC
FC
78
ENDCHAR
STARTCHAR quotedbl
ENCODING 34
SWIDTH 333 0
DWIDTH 11 0
BBX 11 11 0 14
BITMAP
60C0
F1E0
F1E0
F1E0
F1E0
F1E0
F1E0
60C0
60C0
60C0
60C0
ENDCHAR
STARTCHAR numbersign
ENCODING 35
SWIDTH 574 0
DWIDTH 19 0
BBX 16 25 1 -1
BITMAP
071C
071C
071C
071C
0E38
0E38
0E38
7FFF
7FFF
7FFF
0E38
0C30
1C70
1C70
FFFE
FFFE
FFFE
1C70
1C70
38E0
38E0
38E0
38E0
38E0
38E0
ENDCHAR
STARTCHAR dollar
ENCODING 36
SWIDTH 574 0
DWIDTH 19 0
BBX 17 30 1 -4
BITMAP
018000
018000
018000
07F000
1FFC00
399E00
718F00
719F00
F19F00
F18E00
FD8000
FF8000
7FF000
7FFC00
3FFE00
0FFF00
01FF80
01BF80
718F80
F98780
F98780
F98700
F18F00
799E00
3FFC00
07E000
018000
018000
018000
018000
ENDCHAR
STARTCHAR percent
ENCODING 37
SWIDTH 833 0
DWIDTH 27 0
BBX 26 24 0 0
BITMAP
00001800
07C03000
0F607000
1E39E000
3C1F6000
3C10C000
78108000
78118000
F0310000
F0230000
F0620000
F0C61F00
7B8C3D80
3F0C78C0
0018F040
0011F040
0031E040
0021E0C0
0063E0C0
00C3C180
00C3C180
0183C300
0181E600
0300FC00
ENDCHAR
STARTCHAR ampersand
ENCODING 38
SWIDTH 852 0
DWIDTH 28 0
BBX 24 25 2 0
BITMAP
007C00
01FF00
03C700
078780
078380
078380
07C780
07C700
07EF00
07FC00
03F800
07F1FF
0FF9FF
3DF87C
78FC38
78FE70
F87E60
F83FE0
FC3FC0
FC1FC1
FE0FE3
FF0FF3
7FFFFE
3FF3FE
0F80FC
ENDCHAR
STARTCHAR quotesingle
ENCODING 39
SWIDTH 241 0
DWIDTH 8 0
BBX 4 11 2 14
BITMAP
60
F0
F0
F0
F0
F0
F0
60
60
60
60
ENDCHAR
STARTCHAR parenleft
ENCODING 40
SWIDTH 389 0
DWIDTH 13 0
BBX 9 27 2 -3
BITMAP
0380
0700
0E00
1C00
1C00
3800
3800
7800
7800
F000
F000
F000
F000
F000
F000
F000
F000
F000
7000
7800
3800
3800
1C00
1C00
0E00
0700
0380
ENDCHAR
STARTCHAR parenright
ENCODING 41
SWIDTH 389 0
DWIDTH 13 0
BBX 9 27 1 -3
BITMAP
E000
3000
3800
1C00
1C00
0E00
0E00
0F00
0700
0780
0780
0780
0780
0780
0780
0780
0780
0780
0F00
0F00
0E00
0E00
1C00
1C00
3800
7000
C000
ENDCHAR
STARTCHAR asterisk
ENCODING 42
SWIDTH 500 0
DWIDTH 17 0
BBX 12 15 2 10
BITMAP
0600
0E00
0E00
E670
E670
F6F0
3FC0
0F00
7FE0
F6F0
E670
E670
0700
0700
0600
ENDCHAR
STARTCHAR plus
ENCODING 43
SWIDTH 606 0
DWIDTH 20 0
BBX 16 16 2 1
BITMAP
03C0
03C0
03C0
03C0
03C0
03C0
FFFF
FFFF
FFFF
FFFF
03C0
03C0
03C0
03C0
03C0
03C0
ENDCHAR
STARTCHAR comma
ENCODING 44
SWIDTH 278 0
DWIDTH 9 0
BBX 6 11 2 -5
BITMAP
78
F8
FC
FC
FC
7C
1C
18
30
70
E0
ENDCHAR
STARTCHAR hyphen
ENCODING 45
SWIDTH 333 0
DWIDTH 11 0
BBX 8 4 1 6
BITMAP
FF
FF
FF
FF
ENDCHAR
STARTCHAR period
ENCODING 46
SWIDTH 278 0
DWIDTH 9 0
BBX 6 6 1 0
BITMAP
78
FC
FC
FC
FC
78
ENDCHAR
STARTCHAR slash
ENCODING 47
SWIDTH 278 0
DWIDTH 9 0
BBX 10 25 -1 0
BITMAP
00C0
01C0
01C0
0180
0380
0380
0300
0700
0700
0600
0E00
0E00
0C00
1C00
1C00
1800
3800
3800
3000
7000
7000
6000
E000
E000
C000
ENDCHAR
STARTCHAR zero
ENCODING 48
SWIDTH 574 0
DWIDTH 19 0
BBX 16 24 1 0
BITMAP
03C0
0FF0
1E78
3C3C
7C3E
781E
F81F
F81F
F81F
F81F
F81F
F81F
F81F
F81F
F81F
F81F
F81F
781E
781E
7C3E
3C3C
1E78
0FF0
03C0
ENDCHAR
STARTCHAR one
ENCODING 49
SWIDTH 574 0
DWIDTH 19 0
BBX 13 24 3 0
BITMAP
0180
0780
FF80
FF80
0F80
0F80
0F80
0F80
0F80
0F80
0F80
0F80
0F80
0F80
0F80
0F80
0F80
0F80
0F80
0F80
0F80
0F80
FFF8
FFF8
ENDCHAR
STARTCHAR two
ENCODING 50
SWIDTH 574 0
DWIDTH 19 0
BBX 17 24 1 0
BITMAP
0FF000
3FFC00
787E00
F03F00
F81F00
FC1F00
FC1F00
FC1F00
7C3F00
383E00
007C00
00F800
00F000
01E000
03C000
038180
070180
0E0180
1C0380
3FFF80
7FFF00
7FFF00
FFFF00
FFFF00
ENDCHAR
STARTCHAR three
ENCODING 51
SWIDTH 574 0
DWIDTH 19 0
BBX 16 24 1 0
BITMAP
0FE0
3FF8
787C
F83E
FC3E
FC3E
FC3E
783E
007C
0070
07E0
07C0
00F8
007E
003E
003F
781F
FC1F
FC1F
FC3F
F83E
787E
3FF8
07E0
ENDCHAR
STARTCHAR four
ENCODING 52
SWIDTH 574 0
DWIDTH 19 0
BBX 17 24 0 0
BITMAP
000400
000C00
001C00
003C00
007C00
00FC00
01FC00
01FC00
037C00
067C00
0C7C00
1C7C00
387C00
707C00
E07C00
C07C00
FFFF80
FFFF80
007C00
007C00
007C00
007C00
03FF80
03FF80
ENDCHAR
STARTCHAR five
ENCODING 53
SWIDTH 574 0
DWIDTH 19 0
BBX 16 24 1 0
BITMAP
1FFF
3FFE
3FFE
3FFC
3FF0
3000
3000
3000
3000
37E0
3FF8
387C
303E
203E
001F
001F
381F
7C1F
FC1F
FC3E
783E
70FC
3FF0
0FC0
ENDCHAR
STARTCHAR six
ENCODING 54
SWIDTH 574 0
DWIDTH 19 0
BBX 17 24 1 0
BITMAP
03F000
0FFC00
1F1E00
3E3E00
3C3E00
7C3E00
781C00
F80000
F80000
F80000
F9F800
FFFE00
FF7F00
FC1F00
F81F80
F80F80
F80F80
F80F80
F80F80
7C1F00
7C1F00
3E3E00
1FFC00
07F000
ENDCHAR
STARTCHAR seven
ENCODING 55
SWIDTH 574 0
DWIDTH 19 0
BBX 16 24 2 0
BITMAP
FFFF
FFFE
FFFE
FFFC
FFFC
C018
C018
C038
8070
0070
00F0
00E0
01E0
01E0
03E0
03C0
07C0
07C0
0FC0
0FC0
0FC0
0FC0
0FC0
0780
ENDCHAR
STARTCHAR eight
ENCODING 56
SWIDTH 574 0
DWIDTH 19 0
BBX 17 24 1 0
BITMAP
07F000
0FFC00
3C3E00
381F00
780F00
780F00
780F00
7C0F00
7E1E00
7FFC00
3FF000
1FFC00
0FFE00
3FFF00
787F00
F81F80
F00F80
F00F80
F00F00
F00F00
F81E00
7C3C00
3FF000
07C000
ENDCHAR
STARTCHAR nine
ENCODING 57
SWIDTH 574 0
DWIDTH 19 0
BBX 17 24 1 0
BITMAP
03C000
1FF800
3E7C00
7C3E00
FC1F00
F81F00
F80F80
F80F80
F80F80
FC1F80
FC3F80
7F6F80
3FCF80
1F8F80
000F80
000F80
700F00
F81F00
FC1F00
F81E00
F83E00
70FC00
3FF000
0FC000
ENDCHAR
STARTCHAR colon
ENCODING 58
SWIDTH 278 0
DWIDTH 9 0
BBX 6 16 2 0
BITMAP
78
FC
FC
FC
FC
78
00
00
00
00
78
FC
FC
FC
FC
78
ENDCHAR
STARTCHAR semicolon
ENCODING 59
SWIDTH 278 0
DWIDTH 9 0
BBX 6 21 2 -5
BITMAP
78
FC
FC
FC
FC
78
00
00
00
00
78
F8
FC
FC
FC
7C
1C
18
30
70
E0
ENDCHAR
STARTCHAR less
ENCODING 60
SWIDTH 606 0
DWIDTH 20 0
BBX 16 18 2 0
BITMAP
0003
000F
007F
01FF
07FC
1FF0
7F80
FE00
F800
FC00
FF80
3FE0
0FF8
03FE
007F
001F
0007
0001
ENDCHAR
STARTCHAR equal
ENCODING 61
SWIDTH 606 0
DWIDTH 20 0
BBX 16 10 2 3
BITMAP
FFFF
FFFF
FFFF
FFFF
0000
0000
FFFF
FFFF
FFFF
FFFF
ENDCHAR
STARTCHAR greater
ENCODING 62
SWIDTH 606 0
DWIDTH 20 0
BBX 16 18 2 0
BITMAP
C000
F000
FE00
FF80
3FE0
0FF8
01FE
007F
001F
003F
01FF
07FC
1FF0
7FC0
FE00
F800
E000
8000
ENDCHAR
STARTCHAR question
ENCODING 63
SWIDTH 500 0
DWIDTH 16 0
BBX 14 25 1 0
BITMAP
0FC0
3FF0
71F8
F0F8
F8FC
F8FC
F8FC
70FC
00F8
01F8
01F0
03E0
0380
0700
0700
0600
0600
0000
0000
0F00
1F80
1F80
1F80
1F80
0F00
ENDCHAR
STARTCHAR at
ENCODING 64
SWIDTH 747 0
DWIDTH 25 0
BBX 23 25 0 0
BITMAP
007F00
01FFC0
07E3F0
0F0078
1E001C
1C000C
383C06
30FFE6
71E3E6
71E3C6
63C3C6
E383C6
E78786
E7878C
E7078C
E70F1C
E70F18
E31F70
73F7E0
30E3CC
38001C
1C0078
0F01F0
07FFE0
01FF00
ENDCHAR
STARTCHAR A
ENCODING 65
SWIDTH 759 0
DWIDTH 25 0
BBX 25 25 0 0
BITMAP
001C0000
001C0000
001E0000
003E0000
003F0000
007F0000
007F8000
007F8000
00FF8000
00CFC000
01CFC000
018FC000
0187E000
0387E000
0307F000
0703F000
07FFF000
07FFF800
0E01F800
0C01FC00
1C00FC00
1C00FE00
3E00FE00
FF83FF80
FF83FF80
ENDCHAR
STARTCHAR B
ENCODING 66
SWIDTH 778 0
DWIDTH 25 0
BBX 23 25 1 0
BITMAP
FFFF80
FFFFE0
1F83F0
1F81F8
1F81F8
1F80FC
1F80FC
1F80FC
1F80F8
1F81F8
1F81F0
1F87E0
1FFF00
1FFFC0
1F83F0
1F80FC
1F80FC
1F80FE
1F807E
1F80FE
1F80FC
1F80FC
1F83F8
FFFFF0
FFFFC0
ENDCHAR
STARTCHAR C
ENCODING 67
SWIDTH 778 0
DWIDTH 24 0
BBX 22 25 1 0
BITMAP
007E18
03FFB8
07C1F8
1F80F8
1F0078
3E0038
7E0038
7E0018
FE0018
FC0008
FC0000
FC0000
FC0000
FC0000
FC0000
FE0000
FE000C
FE001C
7E0018
7E0038
3F0030
1F8070
0FC1E0
07FFC0
00FF00
ENDCHAR
STARTCHAR D
ENCODING 68
SWIDTH 833 0
DWIDTH 26 0
BBX 24 25 1 0
BITMAP
FFFF00
FFFFE0
1F83F0
1F81F8
1F80FC
1F807E
1F807E
1F807F
1F803F
1F803F
1F803F
1F803F
1F803F
1F803F
1F803F
1F803F
1F807F
1F807E
1F807E
1F807E
1F80FC
1F81F8
1F83F0
FFFFE0
FFFF00
ENDCHAR
STARTCHAR E
ENCODING 69
SWIDTH 759 0
DWIDTH 23 0
BBX 21 25 1 0
BITMAP
FFFFF8
FFFFF8
1F81F8
1F80F8
1F8078
1F8038
1F8038
1F8618
1F8618
1F8E00
1F8E00
1F9E00
1FFE00
1FFE00
1F9E00
1F8E00
1F8618
1F8618
1F8618
1F8038
1F8038
1F8078
1F81F8
FFFFF8
FFFFF8
ENDCHAR
STARTCHAR F
ENCODING 70
SWIDTH 722 0
DWIDTH 23 0
BBX 21 25 1 0
BITMAP
FFFFF8
FFFFF8
1FC1F8
1F80F8
1F8078
1F8038
1F8018
1F8318
1F8318
1F8708
1F8700
1F9F00
1FFF00
1FFF00
1F8F00
1F8700
1F8300
1F8300
1F8300
1F8000
1F8000
1F8000
1F8000
FFF800
FFF800
ENDCHAR
STARTCHAR G
ENCODING 71
SWIDTH 833 0
DWIDTH 26 0
BBX 25 25 1 0
BITMAP
007E0C00
03FFDC00
07C1FC00
0F807C00
1F003C00
3F001C00
7E001C00
7E000C00
FE000C00
FE000400
FE000000
FC000000
FC000000
FC000000
FC07FF80
FC07FF80
FC007C00
FE007C00
7E007C00
7E007C00
3F00FC00
1F00FC00
0F81DC00
07FF1C00
00FC0C00
ENDCHAR
STARTCHAR H
ENCODING 72
SWIDTH 870 0
DWIDTH 28 0
BBX 26 25 1 0
BITMAP
FFF3FFC0
FFF3FFC0
1F807E00
1F807E00
1F807E00
1F807E00
1F807E00
1F807E00
1F807E00
1F807E00
1F807E00
1F807E00
1FFFFE00
1FFFFE00
1F807E00
1F807E00
1F807E00
1F807E00
1F807E00
1F807E00
1F807E00
1F807E00
1F807E00
FFF3FFC0
FFF3FFC0
ENDCHAR
STARTCHAR I
ENCODING 73
SWIDTH 444 0
DWIDTH 14 0
BBX 12 25 1 0
BITMAP
FFF0
FFF0
1F80
1F80
1F80
1F80
1F80
1F80
1F80
1F80
1F80
1F80
1F80
1F80
1F80
1F80
1F80
1F80
1F80
1F80
1F80
1F80
1F80
FFF0
FFF0
ENDCHAR
STARTCHAR J
ENCODING 74
SWIDTH 648 0
DWIDTH 20 0
BBX 20 25 0 0
BITMAP
00FFF0
00FFF0
001F80
001F80
001F80
001F80
001F80
001F80
001F80
001F80
001F80
001F80
001F80
181F80
7E1F80
7E1F80
FE1F80
FE1F80
FE1F80
FC1F00
603F00
603E00
38FE00
3FF800
0FE000
ENDCHAR
STARTCHAR K
ENCODING 75
SWIDTH 815 0
DWIDTH 27 0
BBX 25 25 1 0
BITMAP
FFF3FF80
FFF3FF80
1F807E00
1F807800
1F80F000
1F81E000
1F81C000
1F838000
1F870000
1F8F0000
1F9F0000
1FBF8000
1FFFC000
1FEFC000
1FEFE000
1FC7E000
1F87F000
1F83F800
1F81F800
1F81FC00
1F80FC00
1F80FE00
1F80FF00
FFF3FF80
FFF3FF80
ENDCHAR
STARTCHAR L
ENCODING 76
SWIDTH 722 0
DWIDTH 23 0
BBX 21 25 1 0
BITMAP
FFF000
FFF000
1F8000
1F8000
1F8000
1F8000
1F8000
1F8000
1F8000
1F8000
1F8000
1F8000
1F8000
1F8000
1F8000
1F8000
1F8018
1F8018
1F8018
1F8038
1F8038
1F8078
1F81F8
FFFFF8
FFFFF8
ENDCHAR
STARTCHAR M
ENCODING 77
SWIDTH 981 0
DWIDTH 32 0
BBX 31 25 0 0
BITMAP
7FE007FE
7FF00FFE
0FF00FF0
0FF00FF0
0DF81BF0
0DF81BF0
0DF81BF0
0CFC3BF0
0CFC33F0
0CFC33F0
0C7C73F0
0C7E63F0
0C7E63F0
0C3EE3F0
0C3FC3F0
0C3FC3F0
0C1FC3F0
0C1F83F0
0C1F83F0
0C0F83F0
0C0F03F0
0C0F03F0
1E0F03F0
FFC61FFE
FFC61FFE
ENDCHAR
STARTCHAR N
ENCODING 78
SWIDTH 833 0
DWIDTH 27 0
BBX 27 25 0 0
BITMAP
FF807FE0
FFC07FE0
3FE00F00
0FE00600
0FF00600
0FF80600
0FFC0600
0DFE0600
0CFE0600
0CFF0600
0C7F8600
0C3FC600
0C1FE600
0C0FE600
0C0FF600
0C07FE00
0C03FE00
0C01FE00
0C00FE00
0C007E00
0C007E00
0C003E00
1E001E00
FFC00E00
FFC00600
ENDCHAR
STARTCHAR O
ENCODING 79
SWIDTH 833 0
DWIDTH 26 0
BBX 24 25 1 0
BITMAP
007E00
03FFC0
0FC1F0
1F80F8
3F00FC
3E007C
7E007E
7E007E
FC003F
FC003F
FC003F
FC003F
FC003F
FC003F
FC003F
FC003F
FC003F
7E007E
7E007E
3E007C
3F00FC
1F80F8
0FC1F0
03FFC0
007E00
ENDCHAR
STARTCHAR P
ENCODING 80
SWIDTH 759 0
DWIDTH 24 0
BBX 22 25 1 0
BITMAP
FFFF80
FFFFE0
1F83F0
1F81F8
1F80FC
1F80FC
1F80FC
1F80FC
1F80FC
1F80FC
1F81F8
1F83F0
1FFFE0
1FFF00
1F8000
1F8000
1F8000
1F8000
1F8000
1F8000
1F8000
1F8000
1F8000
FFF000
FFF000
ENDCHAR
STARTCHAR Q
ENCODING 81
SWIDTH 833 0
DWIDTH 26 0
BBX 25 31 1 -6
BITMAP
007E0000
03FFC000
0FC1F000
1F80F800
3F00FC00
3E007C00
7E007E00
7E007E00
FC003F00
FC003F00
FC003F00
FC003F00
FC003F00
FC003F00
FC003F00
FC3C3F00
FCFE3F00
7F877E00
7F83FE00
3F03FC00
3F03FC00
1F83F800
0FC3F000
03FFE000
007FE000
0003E180
0003E180
0001F380
0001FF00
0000FE00
00003C00
ENDCHAR
STARTCHAR R
ENCODING 82
SWIDTH 815 0
DWIDTH 27 0
BBX 25 25 1 0
BITMAP
FFFF8000
FFFFF000
1F83F800
1F81F800
1F80FC00
1F80FC00
1F80FC00
1F80FC00
1F80FC00
1F81F800
1F81F000
1F87C000
1FFF0000
1FFFC000
1F87E000
1F83E000
1F83F000
1F83F000
1F83F000
1F83F980
1F81F980
1F81FB00
1F81FF00
FFF0FE00
FFF07C00
ENDCHAR
STARTCHAR S
ENCODING 83
SWIDTH 667 0
DWIDTH 21 0
BBX 19 25 1 0
BITMAP
03F0C0
1FFDC0
3C1FC0
7807C0
7003C0
F001C0
F000C0
F800C0
FF00C0
FFF000
7FFE00
7FFF00
3FFF80
0FFFC0
07FFE0
407FE0
6007E0
6003E0
7001E0
7801E0
7801C0
7E03C0
7F0780
67FF00
61FC00
ENDCHAR
STARTCHAR T
ENCODING 84
SWIDTH 722 0
DWIDTH 23 0
BBX 21 25 1 0
BITMAP
FFFFF8
FFFFF8
F1F878
E1F838
E1F838
C1F818
C1F818
C1F818
81F808
81F808
01F800
01F800
01F800
01F800
01F800
01F800
01F800
01F800
01F800
01F800
01F800
01F800
01F800
0FFF80
0FFF80
ENDCHAR
STARTCHAR U
ENCODING 85
SWIDTH 833 0
DWIDTH 28 0
BBX 26 25 1 0
BITMAP
FFF0FFC0
FFF0FFC0
1F801E00
1F800C00
1F800C00
1F800C00
1F800C00
1F800C00
1F800C00
1F800C00
1F800C00
1F800C00
1F800C00
1F800C00
1F800C00
1F800C00
1F800C00
1F800C00
1F800C00
1F801C00
0FC01800
0FE03800
07F8F000
03FFE000
00FFC000
ENDCHAR
STARTCHAR V
ENCODING 86
SWIDTH 759 0
DWIDTH 25 0
BBX 25 25 0 0
BITMAP
FFE0FF80
FFE0FF80
3F803E00
1F801C00
1F801C00
1FC01800
0FC03800
0FC03000
07E07000
07E07000
07F06000
03F0E000
03F0C000
01F8C000
01F9C000
01F98000
00FF8000
00FF0000
00FF0000
007F0000
007E0000
003E0000
003E0000
003C0000
001C0000
ENDCHAR
STARTCHAR W
ENCODING 87
SWIDTH 981 0
DWIDTH 32 0
BBX 32 25 0 0
BITMAP
FFDFF9FF
FFDFF9FF
3F07E07C
3F07E038
1F83E030
1F83F070
1F83F070
0FC1F060
0FC3F860
0FC3F8E0
07C3F8C0
07E7F8C0
07E6FCC0
07E6FD80
03FE7D80
03FC7F80
03FC7F80
01FC3F00
01F83F00
01F83F00
00F83E00
00F81E00
00F01E00
00701C00
00700C00
ENDCHAR
STARTCHAR X
ENCODING 88
SWIDTH 722 0
DWIDTH 24 0
BBX 24 25 0 0
BITMAP
FFE3FF
FFE3FF
3F80FC
1FC078
1FC070
0FE0E0
07E0C0
07F1C0
03FF80
03FF00
01FF00
00FE00
00FE00
007F00
007F80
00FF80
01DFC0
038FE0
038FE0
0707F0
0E03F0
1E03F8
3F03FC
FFEFFF
FFEFFF
ENDCHAR
STARTCHAR Y
ENCODING 89
SWIDTH 722 0
DWIDTH 24 0
BBX 24 25 0 0
BITMAP
FFF1FF
FFF1FF
3F807C
1FC038
1FC070
0FE070
0FE0E0
07F0C0
03F1C0
03F980
01FB80
01FF00
00FF00
007E00
007E00
007E00
007E00
007E00
007E00
007E00
007E00
007E00
007E00
03FFC0
03FFC0
ENDCHAR
STARTCHAR Z
ENCODING 90
SWIDTH 667 0
DWIDTH 21 0
BBX 19 25 1 0
BITMAP
7FFFE0
7FFFE0
7E0FE0
780FE0
701FC0
701F80
603F80
607F00
407E00
00FE00
01FC00
01FC00
03F800
03F000
07F000
0FE020
0FE060
1FC060
1F8060
3F80E0
7F00E0
7F01E0
FE07E0
FFFFE0
FFFFE0
ENDCHAR
STARTCHAR bracketleft
ENCODING 91
SWIDTH 389 0
DWIDTH 13 0
BBX 8 29 3 -4
BITMAP
FF
FF
F0
F0
F0
F0
F0
F0
F0
F0
F0
F0
F0
F0
F0
F0
F0
F0
F0
F0
F0
F0
F0
F0
F0
F0
F0
FF
FF
ENDCHAR
STARTCHAR backslash
ENCODING 92
SWIDTH 606 0
DWIDTH 20 0
BBX 16 25 2 0
BITMAP
F000
F800
7800
7C00
3C00
3E00
1E00
1F00
0F00
0F80
0780
07C0
03C0
03E0
01E0
01F0
00F0
00F8
0078
007C
003C
003E
001E
001E
000F
ENDCHAR
STARTCHAR bracketright
ENCODING 93
SWIDTH 389 0
DWIDTH 13 0
BBX 8 29 1 -4
BITMAP
FF
FF
0F
0F
0F
0F
0F
0F
0F
0F
0F
0F
0F
0F
0F
0F
0F
0F
0F
0F
0F
0F
0F
0F
0F
0F
0F
FF
FF
ENDCHAR
STARTCHAR asciicircum
ENCODING 94
SWIDTH 606 0
DWIDTH 20 0
BBX 16 14 2 11
BITMAP
03C0
07E0
07E0
0FF0
0FF0
0FF0
1E78
1E78
3C3C
3C3C
7C3E
781E
F81F
F00F
ENDCHAR
STARTCHAR underscore
ENCODING 95
SWIDTH 500 0
DWIDTH 16 0
BBX 16 3 0 -5
BITMAP
FFFF
FFFF
FFFF
ENDCHAR
STARTCHAR grave
ENCODING 96
SWIDTH 333 0
DWIDTH 11 0
BBX 7 6 2 17
BITMAP
60
F0
F8
7C
1E
06
ENDCHAR
STARTCHAR a
ENCODING 97
SWIDTH 611 0
DWIDTH 20 0
BBX 18 16 1 0
BITMAP
0FF000
3FFC00
787E00
7C3E00
7C3E00
383E00
003E00
03FE00
1FBE00
7E3E00
7C3E00
FC3E00
FC3E00
FC7F40
7FFFC0
3F8F80
ENDCHAR
STARTCHAR b
ENCODING 98
SWIDTH 648 0
DWIDTH 21 0
BBX 19 25 0 0
BITMAP
FF0000
FF0000
1F0000
1F0000
1F0000
1F0000
1F0000
1F0000
1F0000
1F3F00
1FFF80
1FCFC0
1F87C0
1F03E0
1F03E0
1F03E0
1F03E0
1F03E0
1F03E0
1F03E0
1F03C0
1F07C0
1F8F80
1DFF00
187C00
ENDCHAR
STARTCHAR c
ENCODING 99
SWIDTH 556 0
DWIDTH 17 0
BBX 15 16 1 0
BITMAP
03F0
0FFC
3E3E
7C3E
7C3E
F81C
F800
F800
F800
F800
FC02
FC06
7E06
3F1C
1FF8
07E0
ENDCHAR
STARTCHAR d
ENCODING 100
SWIDTH 667 0
DWIDTH 22 0
BBX 20 25 1 0
BITMAP
007F80
007F80
001F80
000F80
000F80
000F80
000F80
000F80
000F80
0FCF80
1FEF80
3E3F80
7C1F80
781F80
F80F80
F80F80
F80F80
F80F80
F80F80
F80F80
F81F80
7C1F80
7C7F80
3FEFF0
0F8FF0
ENDCHAR
STARTCHAR e
ENCODING 101
SWIDTH 574 0
DWIDTH 18 0
BBX 16 16 1 0
BITMAP
03E0
0FF8
3C3C
781E
781E
F81F
F81F
FFFF
FFFF
F800
F800
FC03
7C06
3F0E
1FFC
07F0
ENDCHAR
STARTCHAR f
ENCODING 102
SWIDTH 389 0
DWIDTH 13 0
BBX 15 25 0 0
BITMAP
00F0
03FC
079E
0F3E
0F3E
1F1C
1F00
1F00
1F00
FFF0
FFF0
1F00
1F00
1F00
1F00
1F00
1F00
1F00
1F00
1F00
1F00
1F00
1F00
FFE0
FFE0
ENDCHAR
STARTCHAR g
ENCODING 103
SWIDTH 611 0
DWIDTH 20 0
BBX 20 25 1 -7
BITMAP
0001E0
0003F0
07FFF0
1F7CE0
3E3E00
7C1F00
7C1F00
7C1F00
7C1F00
7C1F00
3E3E00
1F7E00
1FF800
7C0000
F80000
FFFC00
FFFF00
3FFF00
1FFF80
7FFF80
F00780
F00780
F80F00
7FFE00
0FF000
ENDCHAR
STARTCHAR h
ENCODING 104
SWIDTH 685 0
DWIDTH 22 0
BBX 20 25 1 0
BITMAP
FE0000
FE0000
3E0000
3E0000
3E0000
3E0000
3E0000
3E0000
3E0000
3E3E00
3EFF80
3FFF80
3F8FC0
3F07C0
3F07C0
3E07C0
3E07C0
3E07C0
3E07C0
3E07C0
3E07C0
3E07C0
3E07C0
FF9FF0
FF9FF0
ENDCHAR
STARTCHAR i
ENCODING 105
SWIDTH 370 0
DWIDTH 12 0
BBX 9 25 2 0
BITMAP
1C00
3E00
3E00
3E00
1C00
0000
0000
0000
0000
FE00
FE00
3E00
3E00
3E00
3E00
3E00
3E00
3E00
3E00
3E00
3E00
3E00
3E00
FF80
FF80
ENDCHAR
STARTCHAR j
ENCODING 106
SWIDTH 352 0
DWIDTH 12 0
BBX 12 32 -3 -7
BITMAP
00E0
01F0
01F0
01F0
00E0
0000
0000
0000
0000
07F0
07F0
01F0
01F0
01F0
01F0
01F0
01F0
01F0
01F0
01F0
01F0
01F0
01F0
01F0
01F0
01F0
71F0
F9E0
F9E0
FBC0
7F80
1E00
ENDCHAR
STARTCHAR k
ENCODING 107
SWIDTH 667 0
DWIDTH 22 0
BBX 20 25 1 0
BITMAP
FE0000
FE0000
3E0000
3E0000
3E0000
3E0000
3E0000
3E0000
3E0000
3E3FE0
3E3FE0
3E0F00
3E0E00
3E3C00
3E7000
3EF800
3FFC00
3FFE00
3F7E00
3E3F00
3E1F80
3E1FC0
3E0FE0
FFBFF0
FFBFF0
ENDCHAR
STARTCHAR l
ENCODING 108
SWIDTH 352 0
DWIDTH 12 0
BBX 10 25 1 0
BITMAP
FE00
FE00
3E00
3E00
3E00
3E00
3E00
3E00
3E00
3E00
3E00
3E00
3E00
3E00
3E00
3E00
3E00
3E00
3E00
3E00
3E00
3E00
3E00
FFC0
FFC0
ENDCHAR
STARTCHAR m
ENCODING 109
SWIDTH 963 0
DWIDTH 31 0
BBX 29 16 1 0
BITMAP
FE7E1F00
FEFF3FC0
3FFFFFC0
3F9FE7E0
3F0FC3E0
3E0F83E0
3E0F83E0
3E0F83E0
3E0F83E0
3E0F83E0
3E0F83E0
3E0F83E0
3E0F83E0
3E0F83E0
FFBFEFF8
FFBFEFF8
ENDCHAR
STARTCHAR n
ENCODING 110
SWIDTH 685 0
DWIDTH 22 0
BBX 20 16 1 0
BITMAP
FE3E00
FEFF80
3FFF80
3F8FC0
3F07C0
3E07C0
3E07C0
3E07C0
3E07C0
3E07C0
3E07C0
3E07C0
3E07C0
3E07C0
FF9FF0
FF9FF0
ENDCHAR
STARTCHAR o
ENCODING 111
SWIDTH 611 0
DWIDTH 19 0
BBX 17 16 1 0
BITMAP
03E000
0FF800
3E3E00
7C1F00
7C1F00
F80F80
F80F80
F80F80
F80F80
F80F80
F80F80
7C1F00
7C1F00
3E3E00
0FF800
03E000
ENDCHAR
STARTCHAR p
ENCODING 112
SWIDTH 667 0
DWIDTH 21 0
BBX 19 23 1 -7
BITMAP
FE7E00
FEFF80
3F8FC0
3F07C0
3F07E0
3E03E0
3E03E0
3E03E0
3E03E0
3E03E0
3E03E0
3F07C0
3F07C0
3F8F80
3FFF00
3E7E00
3E0000
3E0000
3E0000
3E0000
3E0000
FF8000
FF8000
ENDCHAR
STARTCHAR q
ENCODING 113
SWIDTH 648 0
DWIDTH 20 0
BBX 20 23 1 -7
BITMAP
07E180
1FF980
3E1F80
7C1F80
7C0F80
F80F80
F80F80
F80F80
F80F80
F80F80
F80F80
7C1F80
7C1F80
3E3F80
1FEF80
07CF80
000F80
000F80
000F80
000F80
000F80
007FF0
007FF0
ENDCHAR
STARTCHAR r
ENCODING 114
SWIDTH 519 0
DWIDTH 16 0
BBX 15 16 1 0
BITMAP
FC7C
FCFE
3DFE
3DBE
3F3E
3E1C
3E00
3E00
3E00
3E00
3E00
3E00
3E00
3E00
FFC0
FFC0
ENDCHAR
STARTCHAR s
ENCODING 115
SWIDTH 500 0
DWIDTH 16 0
BBX 14 16 1 0
BITMAP
0FD8
3CF8
7038
F018
FE08
FFC0
FFF0
7FF8
3FF8
0FFC
C0FC
C03C
E038
F878
FFF0
CFC0
ENDCHAR
STARTCHAR t
ENCODING 116
SWIDTH 426 0
DWIDTH 14 0
BBX 12 23 1 0
BITMAP
0600
0600
0E00
0E00
0E00
1E00
3E00
FFE0
FFE0
3E00
3E00
3E00
3E00
3E00
3E00
3E00
3E30
3E30
3E30
3E60
3FE0
1FC0
0F80
ENDCHAR
STARTCHAR u
ENCODING 117
SWIDTH 685 0
DWIDTH 22 0
BBX 20 16 1 0
BITMAP
FE1FC0
FE1FC0
3E07C0
3E07C0
3E07C0
3E07C0
3E07C0
3E07C0
3E07C0
3E07C0
3E0FC0
3E0FC0
3F1FC0
1FFFC0
1FF7F0
07C7F0
ENDCHAR
STARTCHAR v
ENCODING 118
SWIDTH 611 0
DWIDTH 19 0
BBX 19 16 0 0
BITMAP
FF8FE0
FF8FE0
3F03C0
3F0380
1F0300
1F8700
0F8600
0FC600
07CC00
07EC00
03F800
03F800
01F800
01F000
00F000
00E000
ENDCHAR
STARTCHAR w
ENCODING 119
SWIDTH 889 0
DWIDTH 29 0
BBX 27 16 1 0
BITMAP
FFBFEFE0
FFBFEFE0
7E1F83C0
3E0F8380
3F0F8300
1F0FC300
1F8FC600
0F9FE600
0F9BE600
0FFBEC00
07F1FC00
07F1F800
03E1F800
03E0F000
01C0F000
01C06000
ENDCHAR
STARTCHAR x
ENCODING 120
SWIDTH 611 0
DWIDTH 19 0
BBX 19 16 0 0
BITMAP
FFDFE0
FFDFE0
3F0700
1F8E00
1FDC00
0FF800
07F000
03F000
01F800
03FC00
07FE00
0E7E00
1C3F00
3C3F80
FF7FE0
FF7FE0
ENDCHAR
STARTCHAR y
ENCODING 121
SWIDTH 611 0
DWIDTH 19 0
BBX 19 23 0 -7
BITMAP
FF8FE0
FF8FE0
3F0380
3F0380
1F0300
1F8700
0F8600
0FC600
07CC00
07EC00
03F800
03F800
01F800
01F000
00F000
00E000
006000
70C000
F8C000
F98000
FF0000
7F0000
3C0000
ENDCHAR
STARTCHAR z
ENCODING 122
SWIDTH 537 0
DWIDTH 16 0
BBX 14 16 1 0
BITMAP
7FFC
7FFC
70FC
61F8
61F8
43F0
07E0
07E0
0FC0
1F80
1F0C
3F0C
7E1C
7C1C
FFFC
FFFC
ENDCHAR
STARTCHAR braceleft
ENCODING 123
SWIDTH 389 0
DWIDTH 13 0
BBX 8 30 3 -4
BITMAP
03
0E
1C
3C
3C
3C
3C
3C
3C
3C
3C
3C
3C
38
F0
F8
3C
3C
3C
3C
3C
3C
3C
3C
3C
3C
3C
1C
0E
03
ENDCHAR
STARTCHAR bar
ENCODING 124
SWIDTH 606 0
DWIDTH 20 0
BBX 4 25 8 0
BITMAP
F0
F0
F0
F0
F0
F0
F0
F0
F0
F0
F0
F0
F0
F0
F0
F0
F0
F0
F0
F0
F0
F0
F0
F0
F0
ENDCHAR
STARTCHAR braceright
ENCODING 125
SWIDTH 389 0
DWIDTH 13 0
BBX 8 28 1 -3
BITMAP
E0
78
3C
3C
3C
3C
3C
3C
3C
3C
3C
3C
1C
0F
1F
3C
3C
3C
3C
3C
3C
3C
3C
3C
3C
3C
78
E0
ENDCHAR
STARTCHAR asciitilde
ENCODING 126
SWIDTH 606 0
DWIDTH 20 0
BBX 16 6 2 6
BITMAP
0E04
3F8E
7FFF
FFFE
71FC
2070
ENDCHAR
STARTCHAR space
ENCODING 160
SWIDTH 287 0
DWIDTH 9 0
BBX 1 1 1 0
BITMAP
00
ENDCHAR
STARTCHAR exclamdown
ENCODING 161
SWIDTH 296 0
DWIDTH 10 0
BBX 6 25 2 -7
BITMAP
78
FC
FC
FC
FC
78
00
00
30
30
30
30
30
30
78
78
78
78
7C
FC
FC
FC
FC
FC
78
ENDCHAR
STARTCHAR cent
ENCODING 162
SWIDTH 574 0
DWIDTH 19 0
BBX 15 22 1 -3
BITMAP
0006
0006
000C
03FC
0E7C
3C3E
7C3E
787E
F87E
F8DC
F8C0
F980
FD80
FF02
FF06
7E06
3F1C
1FF8
0FE0
1800
1800
3000
ENDCHAR
STARTCHAR sterling
ENCODING 163
SWIDTH 574 0
DWIDTH 19 0
BBX 17 24 1 0
BITMAP
01F800
07FC00
0F8E00
0F0F00
1F1F00
1F1F00
1F1F00
1F0E00
0F0000
0F0000
078000
7FF800
7FF800
078000
078000
078000
038000
038180
7B0380
FFC700
C7FF00
C7FE00
FDFE00
787C00
ENDCHAR
STARTCHAR currency
ENCODING 164
SWIDTH 606 0
DWIDTH 19 0
BBX 16 16 1 3
BITMAP
63C6
F7EF
FFFE
7FFC
3C3E
781E
700E
700E
700E
700E
781E
3C3C
7FFE
FFFF
F7EF
63C6
ENDCHAR
STARTCHAR yen
ENCODING 165
SWIDTH 722 0
DWIDTH 19 0
BBX 19 24 0 0
BITMAP
FF1FE0
FF1FE0
7C0780
3E0700
3E0700
1F0600
1F0E00
0F8C00
0F8C00
07D800
07D800
03F000
1FFE00
1FFE00
01E000
01E000
1FFE00
1FFE00
01E000
01E000
01E000
01E000
0FFC00
0FFC00
ENDCHAR
STARTCHAR brokenbar
ENCODING 166
SWIDTH 606 0
DWIDTH 20 0
BBX 4 25 8 0
BITMAP
F0
F0
F0
F0
F0
F0
F0
F0
F0
F0
00
00
00
00
00
F0
F0
F0
F0
F0
F0
F0
F0
F0
F0
ENDCHAR
STARTCHAR section
ENCODING 167
SWIDTH 500 0
DWIDTH 16 0
BBX 12 29 2 -3
BITMAP
1F00
7380
63C0
E3C0
E3C0
F180
7800
7C00
3E00
1E00
3F00
6F80
C7C0
E3E0
E1E0
F0F0
7870
7C70
3E60
1FC0
0F80
07C0
03E0
61E0
F0E0
F0E0
F0E0
79C0
3F00
ENDCHAR
STARTCHAR dieresis
ENCODING 168
SWIDTH 333 0
DWIDTH 11 0
BBX 11 5 0 18
BITMAP
60C0
F1E0
F1E0
F1E0
60C0
ENDCHAR
STARTCHAR copyright
ENCODING 169
SWIDTH 747 0
DWIDTH 25 0
BBX 24 25 1 0
BITMAP
00FF00
03FFC0
0781E0
1E0070
180018
30000C
707F0E
60F386
61C186
E3C187
C38083
C38003
C38003
C38003
C38003
C38007
C1C086
E1E186
60FF0C
703C1C
380038
1C0070
0F81C0
03FF80
00FE00
ENDCHAR
STARTCHAR ordfeminine
ENCODING 170
SWIDTH 367 0
DWIDTH 12 0
BBX 11 15 0 10
BITMAP
3F00
E3C0
F1C0
E3C0
0FC0
71C0
E1C0
E3C0
F7E0
FDE0
0000
0000
0000
FFE0
FFE0
ENDCHAR
STARTCHAR guillemotleft
ENCODING 171
SWIDTH 500 0
DWIDTH 16 0
BBX 12 11 2 3
BITMAP
0410
0C30
1860
38E0
71C0
F3C0
71C0
38E0
1860
0C30
0410
ENDCHAR
STARTCHAR logicalnot
ENCODING 172
SWIDTH 606 0
DWIDTH 20 0
BBX 16 10 2 3
BITMAP
FFFF
FFFF
FFFF
FFFF
000F
000F
000F
000F
000F
000F
ENDCHAR
STARTCHAR hyphen
ENCODING 173
SWIDTH 333 0
DWIDTH 11 0
BBX 8 4 1 6
BITMAP
FF
FF
FF
FF
ENDCHAR
STARTCHAR registered
ENCODING 174
SWIDTH 747 0
DWIDTH 24 0
BBX 23 25 0 0
BITMAP
00FE00
03FF80
0701E0
0C0070
180038
300018
61FE0C
60E70C
C0E38E
C0E386
C0E386
C0E706
C0FC06
C0EE06
C0E706
C0E706
C0E386
60E38C
63F1CC
300018
180018
1C0070
0700E0
03FF80
00FC00
ENDCHAR
STARTCHAR macron
ENCODING 175
SWIDTH 333 0
DWIDTH 11 0
BBX 11 3 0 18
BITMAP
FFE0
FFE0
FFE0
ENDCHAR
STARTCHAR degree
ENCODING 176
SWIDTH 400 0
DWIDTH 13 0
BBX 9 10 2 13
BITMAP
3E00
7F00
6300
C180
C180
C180
C180
6300
7F00
3E00
ENDCHAR
STARTCHAR plusminus
ENCODING 177
SWIDTH 606 0
DWIDTH 20 0
BBX 16 17 2 0
BITMAP
03C0
03C0
03C0
03C0
FFFF
FFFF
FFFF
FFFF
03C0
03C0
03C0
03C0
0000
FFFF
FFFF
FFFF
FFFF
ENDCHAR
STARTCHAR twosuperior
ENCODING 178
SWIDTH 344 0
DWIDTH 11 0
BBX 10 14 0 9
BITMAP
3F00
6380
C1C0
F1C0
F1C0
71C0
0380
0700
0E00
1840
3040
7FC0
FFC0
FFC0
ENDCHAR
STARTCHAR threesuperior
ENCODING 179
SWIDTH 344 0
DWIDTH 11 0
BBX 11 14 0 9
BITMAP
3F00
73C0
71C0
21C0
01C0
0380
1F00
03C0
01E0
71E0
F1E0
E1E0
63C0
3F00
ENDCHAR
STARTCHAR acute
ENCODING 180
SWIDTH 333 0
DWIDTH 11 0
BBX 7 6 2 17
BITMAP
0C
1E
3E
7C
F0
C0
ENDCHAR
STARTCHAR mu
ENCODING 181
SWIDTH 685 0
DWIDTH 22 0
BBX 20 23 1 -7
BITMAP
FE3FC0
FE3FC0
3E07C0
3E07C0
3E07C0
3E07C0
3E07C0
3E07C0
3E07C0
3E07C0
3E0FC0
3E0FC0
3F1FC0
3FFFC0
3FF7F0
37C7F0
300000
300000
780000
780000
780000
780000
300000
ENDCHAR
STARTCHAR paragraph
ENCODING 182
SWIDTH 747 0
DWIDTH 25 0
BBX 21 25 1 0
BITMAP
0FFFF8
3FFFF8
7FE3C0
7FE3C0
FFE3C0
FFE3C0
FFE3C0
FFE3C0
7FE3C0
7FE3C0
3FE3C0
1FE3C0
07E3C0
01E3C0
01E3C0
01E3C0
01E3C0
01E3C0
01E3C0
01E3C0
01E3C0
01E3C0
01E3C0
0FFFF8
0FFFF8
ENDCHAR
STARTCHAR periodcentered
ENCODING 183
SWIDTH 278 0
DWIDTH 9 0
BBX 6 6 1 5
BITMAP
78
FC
FC
FC
FC
78
ENDCHAR
STARTCHAR cedilla
ENCODING 184
SWIDTH 333 0
DWIDTH 11 0
BBX 7 7 1 -7
BITMAP
18
30
7C
0E
0E
DC
78
ENDCHAR
STARTCHAR onesuperior
ENCODING 185
SWIDTH 344 0
DWIDTH 11 0
BBX 9 14 1 9
BITMAP
0C00
FC00
1C00
1C00
1C00
1C00
1C00
1C00
1C00
1C00
1C00
1C00
1C00
FF80
ENDCHAR
STARTCHAR ordmasculine
ENCODING 186
SWIDTH 367 0
DWIDTH 12 0
BBX 11 15 0 10
BITMAP
0E00
3F80
71C0
F1E0
E0E0
E0E0
E0E0
F1E0
71C0
3F80
0E00
0000
0000
7FE0
7FE0
ENDCHAR
STARTCHAR guillemotright
ENCODING 187
SWIDTH 500 0
DWIDTH 16 0
BBX 12 11 2 3
BITMAP
8200
C300
6180
71C0
38E0
3CF0
38E0
71C0
6180
C300
8200
ENDCHAR
STARTCHAR onequarter
ENCODING 188
SWIDTH 861 0
DWIDTH 28 0
BBX 25 23 1 0
BITMAP
0C003800
FC003000
1C007000
1C00E000
1C00C000
1C01C000
1C018000
1C038000
1C070000
1C070200
1C0E0600
1C0C0E00
1C1C1E00
FFB83E00
00386E00
0070CE00
00618E00
00E30E00
00C3FF80
01C00E00
03800E00
03000E00
07003F80
ENDCHAR
STARTCHAR onehalf
ENCODING 189
SWIDTH 861 0
DWIDTH 28 0
BBX 25 23 1 0
BITMAP
0C003800
FC007000
1C007000
1C00E000
1C00C000
1C01C000
1C018000
1C038000
1C070000
1C067E00
1C0EC700
1C0D8780
1C1DE380
FFB9E780
0038E780
00700F00
00600E00
00E01C00
01C03080
01C06080
0380FF80
0301FF80
0701FF80
ENDCHAR
STARTCHAR threequarters
ENCODING 190
SWIDTH 861 0
DWIDTH 28 0
BBX 26 23 0 0
BITMAP
3F001C00
73C03800
71C03800
21C07000
01C06000
0380E000
1F00C000
03C1C000
01E38000
71E38100
F1E70300
E1E60700
63CE0F00
3F1C1F00
001C3700
00386700
0030C700
00718700
0061FFC0
00E00700
01C00700
01C00700
03801FC0
ENDCHAR
STARTCHAR questiondown
ENCODING 191
SWIDTH 500 0
DWIDTH 16 0
BBX 15 25 1 -7
BITMAP
03C0
07E0
07E0
07E0
07E0
03C0
0000
0000
0180
0180
0180
0380
0700
1F00
3E00
7E00
7C00
FC7C
FC7C
FC7E
FC7C
7C3C
7E3C
3FF0
0FC0
ENDCHAR
STARTCHAR Agrave
ENCODING 192
SWIDTH 759 0
DWIDTH 25 0
BBX 25 31 0 0
BITMAP
00300000
00780000
007C0000
003E0000
000F0000
00030000
00000000
001C0000
001E0000
003E0000
003F0000
007F0000
007F8000
007F8000
00FF8000
00CFC000
01CFC000
018FC000
0187E000
0387E000
0307F000
0703F000
07FFF000
07FFF800
0E01F800
0C01FC00
1C00FC00
1C00FE00
3E00FE00
FF83FF80
FF83FF80
ENDCHAR
STARTCHAR Aacute
ENCODING 193
SWIDTH 759 0
DWIDTH 25 0
BBX 25 32 0 0
BITMAP
00018000
0003C000
0007C000
000F8000
001E0000
00180000
00000000
001C0000
001C0000
001E0000
003E0000
003F0000
007F0000
007F8000
007F8000
00FF8000
00CFC000
01CFC000
018FC000
0187E000
0387E000
0307F000
0703F000
07FFF000
07FFF800
0E01F800
0C01FC00
1C00FC00
1C00FE00
3E00FE00
FF83FF80
FF83FF80
ENDCHAR
STARTCHAR Acircumflex
ENCODING 194
SWIDTH 759 0
DWIDTH 25 0
BBX 25 31 0 0
BITMAP
001C0000
003E0000
007F0000
00E38000
0180C000
00000000
001C0000
001C0000
001E0000
003E0000
003F0000
007F0000
007F8000
007F8000
00FF8000
00CFC000
01CFC000
018FC000
0187E000
0387E000
0307F000
0703F000
07FFF000
07FFF800
0E01F800
0C01FC00
1C00FC00
1C00FE00
3E00FE00
FF83FF80
FF83FF80
ENDCHAR
STARTCHAR Atilde
ENCODING 195
SWIDTH 759 0
DWIDTH 25 0
BBX 25 31 0 0
BITMAP
00386000
007FE000
00FFC000
00C38000
00000000
00000000
001C0000
001C0000
001E0000
003E0000
003F0000
007F0000
007F8000
007F8000
00FF8000
00CFC000
01CFC000
018FC000
0187E000
0387E000
0307F000
0703F000
07FFF000
07FFF800
0E01F800
0C01FC00
1C00FC00
1C00FE00
3E00FE00
FF83FF80
FF83FF80
ENDCHAR
STARTCHAR Adieresis
ENCODING 196
SWIDTH 759 0
DWIDTH 25 0
BBX 25 31 0 0
BITMAP
00C18000
01E3C000
01E3C000
01E3C000
00C18000
00000000
001C0000
001C0000
001E0000
003E0000
003F0000
007F0000
007F8000
007F8000
00FF8000
00CFC000
01CFC000
018FC000
0187E000
0387E000
0307F000
0703F000
07FFF000
07FFF800
0E01F800
0C01FC00
1C00FC00
1C00FE00
3E00FE00
FF83FF80
FF83FF80
ENDCHAR
STARTCHAR Aring
ENCODING 197
SWIDTH 759 0
DWIDTH 25 0
BBX 25 33 0 0
BITMAP
003E0000
00770000
00630000
00630000
00770000
003E0000
00000000
00000000
001C0000
001C0000
001E0000
003E0000
003F0000
007F0000
007F8000
007F8000
00FF8000
00CFC000
01CFC000
018FC000
0187E000
0387E000
0307F000
0703F000
07FFF000
07FFF800
0E01F800
0C01FC00
1C00FC00
1C00FE00
3E00FE00
FF83FF80
FF83FF80
ENDCHAR
STARTCHAR AE
ENCODING 198
SWIDTH 981 0
DWIDTH 33 0
BBX 31 25 -1 0
BITMAP
01FFFFFE
01FFFFFE
007BF07E
003BF03E
0033F01E
0033F00E
0073F006
0063F0C6
00E3F0C6
00C3F1C2
01C3F1C0
0183F3C0
0383FFC0
0303FFC0
07FFF3C0
07FFF1C0
0E03F0C6
0E03F0C6
0C03F0C6
1C03F00E
1803F00E
3803F01E
7C03F07E
FF1FFFFE
FF1FFFFE
ENDCHAR
STARTCHAR Ccedilla
ENCODING 199
SWIDTH 778 0
DWIDTH 24 0
BBX 22 32 1 -7
BITMAP
007E18
03FFB8
07C1F8
1F80F8
1F0078
3E0038
7E0038
7E0018
FE0018
FC0008
FC0000
FC0000
FC0000
FC0000
FC0000
FE0000
FE000C
FE001C
7E0018
7E0038
3F0030
1F8070
0FC1E0
07FFC0
00FF00
003000
006000
00F800
001C00
001C00
01B800
00F000
ENDCHAR
STARTCHAR Egrave
ENCODING 200
SWIDTH 759 0
DWIDTH 23 0
BBX 21 32 1 0
BITMAP
00C000
01E000
01F000
00F800
003C00
000C00
000000
FFFFF8
FFFFF8
1F81F8
1F80F8
1F8078
1F8038
1F8038
1F8618
1F8618
1F8E00
1F8E00
1F9E00
1FFE00
1FFE00
1F9E00
1F8E00
1F8618
1F8618
1F8618
1F8038
1F8038
1F8078
1F81F8
FFFFF8
FFFFF8
ENDCHAR
STARTCHAR Eacute
ENCODING 201
SWIDTH 759 0
DWIDTH 23 0
BBX 21 32 1 0
BITMAP
000300
000780
000F80
001F00
003C00
003000
000000
FFFFF8
FFFFF8
1F81F8
1F80F8
1F8078
1F8038
1F8038
1F8618
1F8618
1F8E00
1F8E00
1F9E00
1FFE00
1FFE00
1F9E00
1F8E00
1F8618
1F8618
1F8618
1F8038
1F8038
1F8078
1F81F8
FFFFF8
FFFFF8
ENDCHAR
STARTCHAR Ecircumflex
ENCODING 202
SWIDTH 759 0
DWIDTH 23 0
BBX 21 32 1 0
BITMAP
003800
007C00
00FE00
01C700
030180
000000
000000
FFFFF8
FFFFF8
1F81F8
1F80F8
1F8078
1F8038
1F8038
1F8618
1F8618
1F8E00
1F8E00
1F9E00
1FFE00
1FFE00
1F9E00
1F8E00
1F8618
1F8618
1F8618
1F8038
1F8038
1F8078
1F81F8
FFFFF8
FFFFF8
ENDCHAR
STARTCHAR Edieresis
ENCODING 203
SWIDTH 759 0
DWIDTH 23 0
BBX 21 32 1 0
BITMAP
018300
03C780
03C780
03C780
018300
000000
000000
FFFFF8
FFFFF8
1F81F8
1F80F8
1F8078
1F8038
1F8038
1F8618
1F8618
1F8E00
1F8E00
1F9E00
1FFE00
1FFE00
1F9E00
1F8E00
1F8618
1F8618
1F8618
1F8038
1F8038
1F8078
1F81F8
FFFFF8
FFFFF8
ENDCHAR
STARTCHAR Igrave
ENCODING 204
SWIDTH 444 0
DWIDTH 14 0
BBX 12 33 1 0
BITMAP
3000
7800
7C00
3E00
0F00
0300
0000
0000
FFF0
FFF0
1F80
1F80
1F80
1F80
1F80
1F80
1F80
1F80
1F80
1F80
1F80
1F80
1F80
1F80
1F80
1F80
1F80
1F80
1F80
1F80
1F80
FFF0
FFF0
ENDCHAR
STARTCHAR Iacute
ENCODING 205
SWIDTH 444 0
DWIDTH 14 0
BBX 12 33 1 0
BITMAP
00C0
01E0
03E0
07C0
0F00
0C00
0000
0000
FFF0
FFF0
1F80
1F80
1F80
1F80
1F80
1F80
1F80
1F80
1F80
1F80
1F80
1F80
1F80
1F80
1F80
1F80
1F80
1F80
1F80
1F80
1F80
FFF0
FFF0
ENDCHAR
STARTCHAR Icircumflex
ENCODING 206
SWIDTH 444 0
DWIDTH 14 0
BBX 12 32 1 0
BITMAP
0700
0F80
1FC0
38E0
6030
0000
0000
FFF0
FFF0
1F80
1F80
1F80
1F80
1F80
1F80
1F80
1F80
1F80
1F80
1F80
1F80
1F80
1F80
1F80
1F80
1F80
1F80
1F80
1F80
1F80
FFF0
FFF0
ENDCHAR
STARTCHAR Idieresis
ENCODING 207
SWIDTH 444 0
DWIDTH 14 0
BBX 12 32 1 0
BITMAP
3060
78F0
78F0
78F0
3060
0000
0000
FFF0
FFF0
1F80
1F80
1F80
1F80
1F80
1F80
1F80
1F80
1F80
1F80
1F80
1F80
1F80
1F80
1F80
1F80
1F80
1F80
1F80
1F80
1F80
FFF0
FFF0
ENDCHAR
STARTCHAR Eth
ENCODING 208
SWIDTH 833 0
DWIDTH 26 0
BBX 24 25 1 0
BITMAP
FFFF00
FFFFE0
1F83F0
1F81F8
1F80FC
1F807C
1F807E
1F807E
1F807F
1F803F
1F803F
1F803F
FFF83F
FFF83F
1F803F
1F803F
1F803F
1F807F
1F807E
1F807E
1F80FC
1F80F8
1F83F0
FFFFE0
FFFF00
ENDCHAR
STARTCHAR Ntilde
ENCODING 209
SWIDTH 833 0
DWIDTH 27 0
BBX 27 31 0 0
BITMAP
00386000
007FE000
00FFC000
00C38000
00000000
00000000
FF807FE0
FFC07FE0
3FE00F00
0FE00600
0FF00600
0FF80600
0FFC0600
0DFE0600
0CFE0600
0CFF0600
0C7F8600
0C3FC600
0C1FE600
0C0FE600
0C0FF600
0C07FE00
0C03FE00
0C01FE00
0C00FE00
0C007E00
0C007E00
0C003E00
1E001E00
FFC00E00
FFC00600
ENDCHAR
STARTCHAR Ograve
ENCODING 210
SWIDTH 833 0
DWIDTH 26 0
BBX 24 32 1 0
BITMAP
018000
03C000
03E000
01F000
007800
001800
000000
007E00
03FFC0
0FC1F0
1F80F8
3F00FC
3E007C
7E007E
7E007E
FC003F
FC003F
FC003F
FC003F
FC003F
FC003F
FC003F
FC003F
FC003F
7E007E
7E007E
3E007C
3F00FC
1F80F8
0FC1F0
03FFC0
007E00
ENDCHAR
STARTCHAR Oacute
ENCODING 211
SWIDTH 833 0
DWIDTH 26 0
BBX 24 32 1 0
BITMAP
0000C0
0001E0
0003E0
0007C0
000F00
000C00
000000
007E00
03FFC0
0FC1F0
1F80F8
3F00FC
3E007C
7E007E
7E007E
FC003F
FC003F
FC003F
FC003F
FC003F
FC003F
FC003F
FC003F
FC003F
7E007E
7E007E
3E007C
3F00FC
1F80F8
0FC1F0
03FFC0
007E00
ENDCHAR
STARTCHAR Ocircumflex
ENCODING 212
SWIDTH 833 0
DWIDTH 26 0
BBX 24 32 1 0
BITMAP
001C00
003E00
007F00
00E380
0180C0
000000
000000
007E00
03FFC0
0FC1F0
1F80F8
3F00FC
3E007C
7E007E
7E007E
FC003F
FC003F
FC003F
FC003F
FC003F
FC003F
FC003F
FC003F
FC003F
7E007E
7E007E
3E007C
3F00FC
1F80F8
0FC1F0
03FFC0
007E00
ENDCHAR
STARTCHAR Otilde
ENCODING 213
SWIDTH 833 0
DWIDTH 26 0
BBX 24 31 1 0
BITMAP
0070C0
00FFC0
01FF80
018700
000000
000000
007E00
03FFC0
0FC1F0
1F80F8
3F00FC
3E007C
7E007E
7E007E
FC003F
FC003F
FC003F
FC003F
FC003F
FC003F
FC003F
FC003F
FC003F
7E007E
7E007E
3E007C
3F00FC
1F80F8
0FC1F0
03FFC0
007E00
ENDCHAR
STARTCHAR Odieresis
ENCODING 214
SWIDTH 833 0
DWIDTH 26 0
BBX 24 32 1 0
BITMAP
00C180
01E3C0
01E3C0
01E3C0
00C180
000000
000000
007E00
03FFC0
0FC1F0
1F80F8
3F00FC
3E007C
7E007E
7E007E
FC003F
FC003F
FC003F
FC003F
FC003F
FC003F
FC003F
FC003F
FC003F
7E007E
7E007E
3E007C
3F00FC
1F80F8
0FC1F0
03FFC0
007E00
ENDCHAR
STARTCHAR multiply
ENCODING 215
SWIDTH 606 0
DWIDTH 20 0
BBX 16 17 2 0
BITMAP
2004
700E
F81F
FC3F
7E7E
3FFC
1FF8
0FF0
07E0
0FF0
1FF8
3FFC
7E7E
FC3F
F81F
700E
2004
ENDCHAR
STARTCHAR Oslash
ENCODING 216
SWIDTH 833 0
DWIDTH 26 0
BBX 24 27 1 -1
BITMAP
00000C
007E18
03FFF8
07C3F0
1F80F8
1F00F8
3E00FC
7E01FE
7E037E
FE077F
FC063F
FC0C3F
FC1C3F
FC183F
FC303F
FC603F
FCE03F
FEC07F
7F807E
7F807E
3F007C
1F00F8
1F80F8
0FC1E0
1BFFC0
307E00
300000
ENDCHAR
STARTCHAR Ugrave
ENCODING 217
SWIDTH 833 0
DWIDTH 28 0
BBX 26 32 1 0
BITMAP
00300000
00780000
007C0000
003E0000
000F0000
00030000
00000000
FFF0FFC0
FFF0FFC0
1F801E00
1F800C00
1F800C00
1F800C00
1F800C00
1F800C00
1F800C00
1F800C00
1F800C00
1F800C00
1F800C00
1F800C00
1F800C00
1F800C00
1F800C00
1F800C00
1F800C00
1F801C00
0FC01800
0FE03800
07F8F000
03FFE000
00FFC000
ENDCHAR
STARTCHAR Uacute
ENCODING 218
SWIDTH 833 0
DWIDTH 28 0
BBX 26 32 1 0
BITMAP
00006000
0000F000
0001F000
0003E000
00078000
00060000
00000000
FFF0FFC0
FFF0FFC0
1F801E00
1F800C00
1F800C00
1F800C00
1F800C00
1F800C00
1F800C00
1F800C00
1F800C00
1F800C00
1F800C00
1F800C00
1F800C00
1F800C00
1F800C00
1F800C00
1F800C00
1F801C00
0FC01800
0FE03800
07F8F000
03FFE000
00FFC000
ENDCHAR
STARTCHAR Ucircumflex
ENCODING 219
SWIDTH 833 0
DWIDTH 28 0
BBX 26 32 1 0
BITMAP
000E0000
001F0000
003F8000
0071C000
00C06000
00000000
00000000
FFF0FFC0
FFF0FFC0
1F801E00
1F800C00
1F800C00
1F800C00
1F800C00
1F800C00
1F800C00
1F800C00
1F800C00
1F800C00
1F800C00
1F800C00
1F800C00
1F800C00
1F800C00
1F800C00
1F800C00
1F801C00
0FC01800
0FE03800
07F8F000
03FFE000
00FFC000
ENDCHAR
STARTCHAR Udieresis
ENCODING 220
SWIDTH 833 0
DWIDTH 28 0
BBX 26 32 1 0
BITMAP
00306000
0078F000
0078F000
0078F000
00306000
00000000
00000000
FFF0FFC0
FFF0FFC0
1F801E00
1F800C00
1F800C00
1F800C00
1F800C00
1F800C00
1F800C00
1F800C00
1F800C00
1F800C00
1F800C00
1F800C00
1F800C00
1F800C00
1F800C00
1F800C00
1F800C00
1F801C00
0FC01800
0FE03800
07F8F000
03FFE000
00FFC000
ENDCHAR
STARTCHAR Yacute
ENCODING 221
SWIDTH 722 0
DWIDTH 24 0
BBX 24 33 0 0
BITMAP
000060
0000F0
0001F0
0003E0
000780
000600
000000
000000
FFF1FF
FFF1FF
3F807C
1FC038
1FC070
0FE070
0FE0E0
07F0C0
03F1C0
03F980
01FB80
01FF00
00FF00
007E00
007E00
007E00
007E00
007E00
007E00
007E00
007E00
007E00
007E00
03FFC0
03FFC0
ENDCHAR
STARTCHAR Thorn
ENCODING 222
SWIDTH 759 0
DWIDTH 24 0
BBX 22 25 1 0
BITMAP
FFF000
FFF000
1F8000
1F8000
1F8000
1FFF80
1FFFE0
1F83F0
1F81F8
1F80FC
1F80FC
1F80FC
1F80FC
1F80FC
1F80FC
1F81F8
1F83F0
1FFFE0
1FFF00
1F8000
1F8000
1F8000
1F8000
FFF000
FFF000
ENDCHAR
STARTCHAR germandbls
ENCODING 223
SWIDTH 611 0
DWIDTH 20 0
BBX 18 25 0 0
BITMAP
03FC00
07BE00
0F0F00
0F0F00
1F0F80
1F0F80
1F0F80
1F0F00
1F0F00
1F0E00
1F1C00
1F7E00
1F0F80
1F0F80
1F07C0
1F07C0
1F07C0
1F07C0
1F07C0
1F07C0
1F0780
1F0780
1F4F00
FFFE00
FF7800
ENDCHAR
STARTCHAR agrave
ENCODING 224
SWIDTH 611 0
DWIDTH 20 0
BBX 18 23 1 0
BITMAP
030000
078000
07C000
03E000
00F000
003000
000000
0FF000
3FFC00
783E00
7C3E00
7C3E00
383E00
003E00
03FE00
1FBE00
7E3E00
7C3E00
FC3E00
FC3E00
FC7F40
7FFFC0
3F8F80
ENDCHAR
STARTCHAR aacute
ENCODING 225
SWIDTH 611 0
DWIDTH 20 0
BBX 18 23 1 0
BITMAP
006000
00F000
01F000
03E000
078000
060000
000000
0FF000
3FFC00
783E00
7C3E00
7C3E00
383E00
003E00
03FE00
1FBE00
7E3E00
7C3E00
FC3E00
FC3E00
FC7F40
7FFFC0
3F8F80
ENDCHAR
STARTCHAR acircumflex
ENCODING 226
SWIDTH 611 0
DWIDTH 20 0
BBX 18 22 1 0
BITMAP
01C000
03E000
07F000
0E3800
180C00
000000
0FF000
3FFC00
783E00
7C3E00
7C3E00
383E00
003E00
03FE00
1FBE00
7E3E00
7C3E00
FC3E00
FC3E00
FC7F40
7FFFC0
3F8F80
ENDCHAR
STARTCHAR atilde
ENCODING 227
SWIDTH 611 0
DWIDTH 20 0
BBX 18 22 1 0
BITMAP
070C00
0FFC00
1FF800
187000
000000
000000
0FF000
3FFC00
783E00
7C3E00
7C3E00
383E00
003E00
03FE00
1FBE00
7E3E00
7C3E00
FC3E00
FC3E00
FC7F40
7FFFC0
3F8F80
ENDCHAR
STARTCHAR adieresis
ENCODING 228
SWIDTH 611 0
DWIDTH 20 0
BBX 18 23 1 0
BITMAP
0C1800
1E3C00
1E3C00
1E3C00
0C1800
000000
000000
0FF000
3FFC00
783E00
7C3E00
7C3E00
383E00
003E00
03FE00
1FBE00
7E3E00
7C3E00
FC3E00
FC3E00
FC7F40
7FFFC0
3F8F80
ENDCHAR
STARTCHAR aring
ENCODING 229
SWIDTH 611 0
DWIDTH 20 0
BBX 18 23 1 0
BITMAP
03E000
077000
063000
063000
077000
03E000
000000
0FF000
3FFC00
783E00
7C3E00
7C3E00
383E00
003E00
03FE00
1FBE00
7E3E00
7C3E00
FC3E00
FC3E00
FC7F40
7FFFC0
3F8F80
ENDCHAR
STARTCHAR ae
ENCODING 230
SWIDTH 870 0
DWIDTH 28 0
BBX 26 16 1 0
BITMAP
07E0F800
1E7BDE00
383F0F00
7C3F0F80
7C3E0780
783E07C0
31FE07C0
0FFFFFC0
3FFFFFC0
7E3E0000
FC3E0000
F83F00C0
F87F0180
FCEF8380
7FC7FF00
3F01FC00
ENDCHAR
STARTCHAR ccedilla
ENCODING 231
SWIDTH 556 0
DWIDTH 17 0
BBX 15 23 1 -7
BITMAP
03F0
0E3C
3E3E
7C3E
7C3E
F81C
F800
F800
F800
F800
FC02
FC06
7E06
3F1C
1FF8
07F0
0180
0300
07C0
00E0
00E0
0DC0
0780
ENDCHAR
STARTCHAR egrave
ENCODING 232
SWIDTH 574 0
DWIDTH 18 0
BBX 16 23 1 0
BITMAP
0600
0F00
0F80
07C0
01E0
0060
0000
03E0
0E78
3C3C
7C1E
7C1E
F81F
F81F
FFFF
FFFF
F800
F800
FC03
7C06
3F0E
1FFC
07F0
ENDCHAR
STARTCHAR eacute
ENCODING 233
SWIDTH 574 0
DWIDTH 18 0
BBX 16 23 1 0
BITMAP
0030
0078
00F8
01F0
03C0
0300
0000
03E0
0E78
3C3C
7C1E
7C1E
F81F
F81F
FFFF
FFFF
F800
F800
FC03
7C06
3F0E
1FFC
07F0
ENDCHAR
STARTCHAR ecircumflex
ENCODING 234
SWIDTH 574 0
DWIDTH 18 0
BBX 16 22 1 0
BITMAP
01C0
03E0
07F0
0E38
180C
0000
03E0
0E78
3C3C
7C1E
7C1E
F81F
F81F
FFFF
FFFF
F800
F800
FC03
7C06
3F0E
1FFC
07F0
ENDCHAR
STARTCHAR edieresis
ENCODING 235
SWIDTH 574 0
DWIDTH 18 0
BBX 16 23 1 0
BITMAP
0C18
1E3C
1E3C
1E3C
0C18
0000
0000
03E0
0E78
3C3C
7C1E
7C1E
F81F
F81F
FFFF
FFFF
F800
F800
FC03
7C06
3F0E
1FFC
07F0
ENDCHAR
STARTCHAR igrave
ENCODING 236
SWIDTH 370 0
DWIDTH 11 0
BBX 9 23 1 0
BITMAP
6000
F000
F800
7C00
1E00
0600
0000
FE00
FE00
3E00
3E00
3E00
3E00
3E00
3E00
3E00
3E00
3E00
3E00
3E00
3E00
FF80
FF80
ENDCHAR
STARTCHAR iacute
ENCODING 237
SWIDTH 370 0
DWIDTH 11 0
BBX 9 23 1 0
BITMAP
0600
0F00
1F00
3E00
7800
6000
0000
FE00
FE00
3E00
3E00
3E00
3E00
3E00
3E00
3E00
3E00
3E00
3E00
3E00
3E00
FF80
FF80
ENDCHAR
STARTCHAR icircumflex
ENCODING 238
SWIDTH 370 0
DWIDTH 11 0
BBX 11 22 -1 0
BITMAP
0E00
1F00
3F80
71C0
C060
0000
3F80
3F80
0F80
0F80
0F80
0F80
0F80
0F80
0F80
0F80
0F80
0F80
0F80
0F80
3FE0
3FE0
ENDCHAR
STARTCHAR idieresis
ENCODING 239
SWIDTH 370 0
DWIDTH 11 0
BBX 11 23 0 0
BITMAP
60C0
F1E0
F1E0
F1E0
60C0
0000
0000
7F00
7F00
1F00
1F00
1F00
1F00
1F00
1F00
1F00
1F00
1F00
1F00
1F00
1F00
7FC0
7FC0
ENDCHAR
STARTCHAR eth
ENCODING 240
SWIDTH 611 0
DWIDTH 20 0
BBX 17 26 1 0
BITMAP
000400
0E0E00
0F9C00
03F800
01F000
03F800
077800
0E3C00
043E00
001E00
03FF00
0F3F00
3C1F00
7C1F80
780F80
F80F80
F80F80
F80F80
F80F80
F80F80
F80F80
7C1F00
7C1F00
3E3E00
0FF800
03E000
ENDCHAR
STARTCHAR ntilde
ENCODING 241
SWIDTH 685 0
DWIDTH 22 0
BBX 20 22 1 0
BITMAP
038600
07FE00
0FFC00
0C3800
000000
000000
FE3E00
FEFF80
3FFF80
3F8FC0
3F07C0
3F07C0
3E07C0
3E07C0
3E07C0
3E07C0
3E07C0
3E07C0
3E07C0
3E07C0
FF9FF0
FF9FF0
ENDCHAR
STARTCHAR ograve
ENCODING 242
SWIDTH 611 0
DWIDTH 19 0
BBX 17 23 1 0
BITMAP
060000
0F0000
0F8000
07C000
01E000
006000
000000
03E000
0FF800
3E3E00
7C1F00
7C1F00
F80F80
F80F80
F80F80
F80F80
F80F80
F80F80
7C1F00
7C1F00
3E3E00
0FF800
03E000
ENDCHAR
STARTCHAR oacute
ENCODING 243
SWIDTH 611 0
DWIDTH 19 0
BBX 17 23 1 0
BITMAP
001800
003C00
007C00
00F800
01E000
018000
000000
03E000
0FF800
3E3E00
7C1F00
7C1F00
F80F80
F80F80
F80F80
F80F80
F80F80
F80F80
7C1F00
7C1F00
3E3E00
0FF800
03E000
ENDCHAR
STARTCHAR ocircumflex
ENCODING 244
SWIDTH 611 0
DWIDTH 19 0
BBX 17 22 1 0
BITMAP
01C000
03E000
07F000
0E3800
180C00
000000
03E000
0FF800
3E3E00
7C1F00
7C1F00
F80F80
F80F80
F80F80
F80F80
F80F80
F80F80
7C1F00
7C1F00
3E3E00
0FF800
03E000
ENDCHAR
STARTCHAR otilde
ENCODING 245
SWIDTH 611 0
DWIDTH 19 0
BBX 17 22 1 0
BITMAP
038600
07FE00
0FFC00
0C3800
000000
000000
03E000
0FF800
3E3E00
7C1F00
7C1F00
F80F80
F80F80
F80F80
F80F80
F80F80
F80F80
7C1F00
7C1F00
3E3E00
0FF800
03E000
ENDCHAR
STARTCHAR odieresis
ENCODING 246
SWIDTH 611 0
DWIDTH 19 0
BBX 17 23 1 0
BITMAP
0C1800
1E3C00
1E3C00
1E3C00
0C1800
000000
000000
03E000
0FF800
3E3E00
7C1F00
7C1F00
F80F80
F80F80
F80F80
F80F80
F80F80
F80F80
7C1F00
7C1F00
3E3E00
0FF800
03E000
ENDCHAR
STARTCHAR divide
ENCODING 247
SWIDTH 606 0
DWIDTH 20 0
BBX 17 17 2 0
BITMAP
01C000
03E000
03E000
03E000
01C000
000000
FFFF80
FFFF80
FFFF80
FFFF80
000000
000000
01C000
03E000
03E000
03E000
01C000
ENDCHAR
STARTCHAR oslash
ENCODING 248
SWIDTH 611 0
DWIDTH 19 0
BBX 17 22 1 -3
BITMAP
000200
000600
000C00
03EC00
0FF800
3E3E00
7C3F00
7C6F00
F84F80
F8CF80
F88F80
F98F80
FB0F80
FA0F80
7E1F00
7C1F00
3E3E00
1FF800
1BE000
300000
300000
200000
ENDCHAR
STARTCHAR ugrave
ENCODING 249
SWIDTH 685 0
DWIDTH 22 0
BBX 20 23 1 0
BITMAP
030000
078000
07C000
03E000
00F000
003000
000000
FE1FC0
FE1FC0
3E07C0
3E07C0
3E07C0
3E07C0
3E07C0
3E07C0
3E07C0
3E07C0
3E0FC0
3E0FC0
3F1FC0
1FFFC0
1FF7F0
07C7F0
ENDCHAR
STARTCHAR uacute
ENCODING 250
SWIDTH 685 0
DWIDTH 22 0
BBX 20 23 1 0
BITMAP
001800
003C00
007C00
00F800
01E000
018000
000000
FE1FC0
FE1FC0
3E07C0
3E07C0
3E07C0
3E07C0
3E07C0
3E07C0
3E07C0
3E07C0
3E0FC0
3E0FC0
3F1FC0
1FFFC0
1FF7F0
07C7F0
ENDCHAR
STARTCHAR ucircumflex
ENCODING 251
SWIDTH 685 0
DWIDTH 22 0
BBX 20 22 1 0
BITMAP
00E000
01F000
03F800
071C00
0C0600
000000
FE1FC0
FE1FC0
3E07C0
3E07C0
3E07C0
3E07C0
3E07C0
3E07C0
3E07C0
3E07C0
3E0FC0
3E0FC0
3F1FC0
1FFFC0
1FF7F0
07C7F0
ENDCHAR
STARTCHAR udieresis
ENCODING 252
SWIDTH 685 0
DWIDTH 22 0
BBX 20 23 1 0
BITMAP
060C00
0F1E00
0F1E00
0F1E00
060C00
000000
000000
FE1FC0
FE1FC0
3E07C0
3E07C0
3E07C0
3E07C0
3E07C0
3E07C0
3E07C0
3E07C0
3E0FC0
3E0FC0
3F1FC0
1FFFC0
1FF7F0
07C7F0
ENDCHAR
STARTCHAR yacute
ENCODING 253
SWIDTH 611 0
DWIDTH 19 0
BBX 19 30 0 -7
BITMAP
000C00
001E00
003E00
007C00
00F000
00C000
000000
FF8FE0
FF8FE0
3F0380
3F0380
1F0300
1F8700
0F8600
0FC600
07CC00
07EC00
03F800
03F800
01F800
01F000
00F000
00E000
006000
70C000
F8C000
F98000
FF0000
7F0000
3C0000
ENDCHAR
STARTCHAR thorn
ENCODING 254
SWIDTH 667 0
DWIDTH 22 0
BBX 20 29 0 -7
BITMAP
FF0000
FF0000
1F0000
1F0000
1F0000
1F0000
1F3F00
1F7FC0
1FC7E0
1F83E0
1F83F0
1F03F0
1F03F0
1F01F0
1F01F0
1F01F0
1F03F0
1F83E0
1F83E0
1FC7C0
1FFF80
1F3F00
1F0000
1F0000
1F0000
1F0000
1F0000
7FE000
7FE000
ENDCHAR
STARTCHAR ydieresis
ENCODING 255
SWIDTH 611 0
DWIDTH 19 0
BBX 19 30 0 -7
BITMAP
030600
078F00
078F00
078F00
030600
000000
000000
FF8FE0
FF8FE0
3F0380
3F0380
1F0300
1F8700
0F8600
0FC600
07CC00
07EC00
03F800
03F800
01F800
01F000
00F000
00E000
006000
70C000
F8C000
F98000
FF0000
7F0000
3C0000
ENDCHAR
STARTCHAR Amacron
ENCODING 256
SWIDTH 759 0
DWIDTH 25 0
BBX 25 29 0 0
BITMAP
01FFC000
01FFC000
01FFC000
00000000
001C0000
001C0000
001E0000
003E0000
003F0000
007F0000
007F8000
007F8000
00FF8000
00CFC000
01CFC000
018FC000
0187E000
0387E000
0307F000
0703F000
07FFF000
07FFF800
0E01F800
0C01FC00
1C00FC00
1C00FE00
3E00FE00
FF83FF80
FF83FF80
ENDCHAR
STARTCHAR amacron
ENCODING 257
SWIDTH 611 0
DWIDTH 20 0
BBX 18 20 1 0
BITMAP
1FFC00
1FFC00
1FFC00
000000
0FF000
3FFC00
787E00
7C3E00
7C3E00
383E00
003E00
03FE00
1FBE00
7E3E00
7C3E00
FC3E00
FC3E00
FC7F40
7FFFC0
3F8F80
ENDCHAR
STARTCHAR Abreve
ENCODING 258
SWIDTH 759 0
DWIDTH 25 0
BBX 25 32 0 0
BITMAP
00C0C000
00C0C000
00E1C000
007F8000
007F8000
001E0000
00000000
001C0000
001C0000
001E0000
003E0000
003F0000
007F0000
007F8000
007F8000
00FF8000
00CFC000
01CFC000
018FC000
0187E000
0387E000
0307F000
0703F000
07FFF000
07FFF800
0E01F800
0C01FC00
1C00FC00
1C00FE00
3E00FE00
FF83FF80
FF83FF80
ENDCHAR
STARTCHAR abreve
ENCODING 259
SWIDTH 611 0
DWIDTH 20 0
BBX 18 23 1 0
BITMAP
181800
181800
1C3800
0FF000
0FF000
03C000
000000
0FF000
3FFC00
787E00
7C3E00
7C3E00
383E00
003E00
03FE00
1FBE00
7E3E00
7C3E00
FC3E00
FC3E00
FC7F40
7FFFC0
3F8F80
ENDCHAR
STARTCHAR Aogonek
ENCODING 260
SWIDTH 759 0
DWIDTH 25 0
BBX 25 31 0 -6
BITMAP
001C0000
001C0000
001E0000
003E0000
003F0000
007F0000
007F8000
007F8000
00FF8000
00CFC000
01CFC000
018FC000
0187E000
0387E000
0307F000
0703F000
07FFF000
07FFF800
0E01F800
0C01FC00
1C00FC00
1C00FE00
3E00FE00
FF83FF80
FF83FF80
000C0000
001C0000
00380000
00390000
003F0000
001E0000
ENDCHAR
STARTCHAR aogonek
ENCODING 261
SWIDTH 611 0
DWIDTH 20 0
BBX 18 22 1 -6
BITMAP
0FF000
3FFC00
787E00
7C3E00
7C3E00
383E00
003E00
03FE00
1FBE00
7E3E00
7C3E00
FC3E00
FC3E00
FC7F40
7FFFC0
3F8F80
00C000
01C000
038000
039000
03F000
01E000
ENDCHAR
STARTCHAR Cacute
ENCODING 262
SWIDTH 778 0
DWIDTH 24 0
BBX 22 32 1 0
BITMAP
000600
000F00
001F00
003E00
007800
006000
000000
007E18
03FFB8
07C1F8
1F80F8
1F0078
3E0038
7E0038
7E0018
FE0018
FC0008
FC0000
FC0000
FC0000
FC0000
FC0000
FE0000
FE000C
FE001C
7E0018
7E0038
3F0030
1F8070
0FC1E0
07FFC0
00FF00
ENDCHAR
STARTCHAR cacute
ENCODING 263
SWIDTH 556 0
DWIDTH 17 0
BBX 15 23 1 0
BITMAP
0030
0078
00F8
01F0
03C0
0300
0000
03F0
0FFC
3E3E
7C3E
7C3E
F81C
F800
F800
F800
F800
FC02
FC06
7E06
3F1C
1FF8
07E0
ENDCHAR
STARTCHAR Ccircumflex
ENCODING 264
SWIDTH 778 0
DWIDTH 24 0
BBX 22 31 1 0
BITMAP
003800
007C00
00EE00
01C700
038380
000000
007E18
03FFB8
07C1F8
1F80F8
1F0078
3E0038
7E0038
7E0018
FE0018
FC0008
FC0000
FC0000
FC0000
FC0000
FC0000
FE0000
FE000C
FE001C
7E0018
7E0038
3F0030
1F8070
0FC1E0
07FFC0
00FF00
ENDCHAR
STARTCHAR ccircumflex
ENCODING 265
SWIDTH 556 0
DWIDTH 17 0
BBX 15 22 1 0
BITMAP
01C0
03E0
0770
0E38
1C1C
0000
03F0
0FFC
3E3E
7C3E
7C3E
F81C
F800
F800
F800
F800
FC02
FC06
7E06
3F1C
1FF8
07E0
ENDCHAR
STARTCHAR Cdotaccent
ENCODING 266
SWIDTH 778 0
DWIDTH 24 0
BBX 22 31 1 0
BITMAP
001800
003C00
003C00
003C00
001800
000000
007E18
03FFB8
07C1F8
1F80F8
1F0078
3E0038
7E0038
7E0018
FE0018
FC0008
FC0000
FC0000
FC0000
FC0000
FC0000
FE0000
FE000C
FE001C
7E0018
7E0038
3F0030
1F8070
0FC1E0
07FFC0
00FF00
ENDCHAR
STARTCHAR cdotaccent
ENCODING 267
SWIDTH 556 0
DWIDTH 17 0
BBX 15 22 1 0
BITMAP
0180
03C0
03C0
03C0
0180
0000
03F0
0FFC
3E3E
7C3E
7C3E
F81C
F800
F800
F800
F800
FC02
FC06
7E06
3F1C
1FF8
07E0
ENDCHAR
STARTCHAR Ccaron
ENCODING 268
SWIDTH 778 0
DWIDTH 24 0
BBX 22 31 1 0
BITMAP
038380
01C700
00EE00
007C00
003800
000000
007E18
03FFB8
07C1F8
1F80F8
1F0078
3E0038
7E0038
7E0018
FE0018
FC0008
FC0000
FC0000
FC0000
FC0000
FC0000
FE0000
FE000C
FE001C
7E0018
7E0038
3F0030
1F8070
0FC1E0
07FFC0
00FF00
ENDCHAR
STARTCHAR ccaron
ENCODING 269
SWIDTH 556 0
DWIDTH 17 0
BBX 15 22 1 0
BITMAP
1C1C
0E38
0770
03E0
01C0
0000
03F0
0FFC
3E3E
7C3E
7C3E
F81C
F800
F800
F800
F800
FC02
FC06
7E06
3F1C
1FF8
07E0
ENDCHAR
STARTCHAR Dcaron
ENCODING 270
SWIDTH 833 0
DWIDTH 26 0
BBX 24 31 1 0
BITMAP
038380
01C700
00EE00
007C00
003800
000000
FFFF00
FFFFE0
1F83F0
1F81F8
1F80FC
1F807E
1F807E
1F807F
1F803F
1F803F
1F803F
1F803F
1F803F
1F803F
1F803F
1F803F
1F807F
1F807E
1F807E
1F807E
1F80FC
1F81F8
1F83F0
FFFFE0
FFFF00
ENDCHAR
STARTCHAR dcaron
ENCODING 271
SWIDTH 875 0
DWIDTH 29 0
BBX 27 25 1 0
BITMAP
007F83C0
007F87E0
001F87E0
000F87E0
000F87E0
000F83E0
000F80E0
000F80C0
000F81C0
0FCF8380
1FEF8700
3E3F8600
7C1F8000
781F8000
F80F8000
F80F8000
F80F8000
F80F8000
F80F8000
F80F8000
F81F8000
7C1F8000
7C7F8000
3FEFF000
0F8FF000
ENDCHAR
STARTCHAR Dcroat
ENCODING 272
SWIDTH 833 0
DWIDTH 26 0
BBX 24 25 1 0
BITMAP
FFFF00
FFFFE0
1F83F0
1F81F8
1F80FC
1F807C
1F807E
1F807E
1F807F
1F803F
1F803F
1F803F
FFF83F
FFF83F
1F803F
1F803F
1F803F
1F807F
1F807E
1F807E
1F80FC
1F80F8
1F83F0
FFFFE0
FFFF00
ENDCHAR
STARTCHAR dcroat
ENCODING 273
SWIDTH 667 0
DWIDTH 22 0
BBX 21 25 1 0
BITMAP
007F80
007F80
001F80
000F80
000F80
000F80
007FF8
007FF8
007FF8
0FCF80
1FEF80
3E3F80
7C1F80
781F80
F80F80
F80F80
F80F80
F80F80
F80F80
F80F80
F81F80
7C1F80
7C7F80
3FEFF0
0F8FF0
ENDCHAR
STARTCHAR Emacron
ENCODING 274
SWIDTH 759 0
DWIDTH 23 0
BBX 21 29 1 0
BITMAP
07FF00
07FF00
07FF00
000000
FFFFF8
FFFFF8
1F81F8
1F80F8
1F8078
1F8038
1F8038
1F8618
1F8618
1F8E00
1F8E00
1F9E00
1FFE00
1FFE00
1F9E00
1F8E00
1F8618
1F8618
1F8618
1F8038
1F8038
1F8078
1F81F8
FFFFF8
FFFFF8
ENDCHAR
STARTCHAR emacron
ENCODING 275
SWIDTH 574 0
DWIDTH 18 0
BBX 16 20 1 0
BITMAP
1FFC
1FFC
1FFC
0000
03E0
0FF8
3C3C
781E
781E
F81F
F81F
FFFF
FFFF
F800
F800
FC03
7C06
3F0E
1FFC
07F0
ENDCHAR
STARTCHAR Ebreve
ENCODING 276
SWIDTH 759 0
DWIDTH 23 0
BBX 21 32 1 0
BITMAP
030300
030300
038700
01FE00
01FE00
007800
000000
FFFFF8
FFFFF8
1F81F8
1F80F8
1F8078
1F8038
1F8038
1F8618
1F8618
1F8E00
1F8E00
1F9E00
1FFE00
1FFE00
1F9E00
1F8E00
1F8618
1F8618
1F8618
1F8038
1F8038
1F8078
1F81F8
FFFFF8
FFFFF8
ENDCHAR
STARTCHAR ebreve
ENCODING 277
SWIDTH 574 0
DWIDTH 18 0
BBX 16 23 1 0
BITMAP
1818
1818
1C38
0FF0
0FF0
03C0
0000
03E0
0FF8
3C3C
781E
781E
F81F
F81F
FFFF
FFFF
F800
F800
FC03
7C06
3F0E
1FFC
07F0
ENDCHAR
STARTCHAR Edotaccent
ENCODING 278
SWIDTH 759 0
DWIDTH 23 0
BBX 21 31 1 0
BITMAP
003000
007800
007800
007800
003000
000000
FFFFF8
FFFFF8
1F81F8
1F80F8
1F8078
1F8038
1F8038
1F8618
1F8618
1F8E00
1F8E00
1F9E00
1FFE00
1FFE00
1F9E00
1F8E00
1F8618
1F8618
1F8618
1F8038
1F8038
1F8078
1F81F8
FFFFF8
FFFFF8
ENDCHAR
STARTCHAR edotaccent
ENCODING 279
SWIDTH 574 0
DWIDTH 18 0
BBX 16 22 1 0
BITMAP
0180
03C0
03C0
03C0
0180
0000
03E0
0FF8
3C3C
781E
781E
F81F
F81F
FFFF
FFFF
F800
F800
FC03
7C06
3F0E
1FFC
07F0
ENDCHAR
STARTCHAR Eogonek
ENCODING 280
SWIDTH 759 0
DWIDTH 23 0
BBX 21 31 1 -6
BITMAP
FFFFF8
FFFFF8
1F81F8
1F80F8
1F8078
1F8038
1F8038
1F8618
1F8618
1F8E00
1F8E00
1F9E00
1FFE00
1FFE00
1F9E00
1F8E00
1F8618
1F8618
1F8618
1F8038
1F8038
1F8078
1F81F8
FFFFF8
FFFFF8
003000
007000
00E000
00E400
00FC00
007800
ENDCHAR
STARTCHAR eogonek
ENCODING 281
SWIDTH 574 0
DWIDTH 18 0
BBX 16 22 1 -6
BITMAP
03E0
0FF8
3C3C
781E
781E
F81F
F81F
FFFF
FFFF
F800
F800
FC03
7C06
3F0E
1FFC
07F0
0180
0380
0700
0720
07E0
03C0
ENDCHAR
STARTCHAR Ecaron
ENCODING 282
SWIDTH 759 0
DWIDTH 23 0
BBX 21 31 1 0
BITMAP
070700
038E00
01DC00
00F800
007000
000000
FFFFF8
FFFFF8
1F81F8
1F80F8
1F8078
1F8038
1F8038
1F8618
1F8618
1F8E00
1F8E00
1F9E00
1FFE00
1FFE00
1F9E00
1F8E00
1F8618
1F8618
1F8618
1F8038
1F8038
1F8078
1F81F8
FFFFF8
FFFFF8
ENDCHAR
STARTCHAR ecaron
ENCODING 283
SWIDTH 574 0
DWIDTH 18 0
BBX 16 22 1 0
BITMAP
1C1C
0E38
0770
03E0
01C0
0000
03E0
0FF8
3C3C
781E
781E
F81F
F81F
FFFF
FFFF
F800
F800
FC03
7C06
3F0E
1FFC
07F0
ENDCHAR
STARTCHAR Gcircumflex
ENCODING 284
SWIDTH 833 0
DWIDTH 26 0
BBX 25 31 1 0
BITMAP
001C0000
003E0000
00770000
00E38000
01C1C000
00000000
007E0C00
03FFDC00
07C1FC00
0F807C00
1F003C00
3F001C00
7E001C00
7E000C00
FE000C00
FE000400
FE000000
FC000000
FC000000
FC000000
FC07FF80
FC07FF80
FC007C00
FE007C00
7E007C00
7E007C00
3F00FC00
1F00FC00
0F81DC00
07FF1C00
00FC0C00
ENDCHAR
STARTCHAR gcircumflex
ENCODING 285
SWIDTH 611 0
DWIDTH 20 0
BBX 20 31 1 -7
BITMAP
007000
00F800
01DC00
038E00
070700
000000
0001E0
0003F0
07FFF0
1F7CE0
3E3E00
7C1F00
7C1F00
7C1F00
7C1F00
7C1F00
3E3E00
1F7E00
1FF800
7C0000
F80000
FFFC00
FFFF00
3FFF00
1FFF80
7FFF80
F00780
F00780
F80F00
7FFE00
0FF000
ENDCHAR
STARTCHAR Gbreve
ENCODING 286
SWIDTH 833 0
DWIDTH 26 0
BBX 25 32 1 0
BITMAP
00C0C000
00C0C000
00E1C000
007F8000
007F8000
001E0000
00000000
007E0C00
03FFDC00
07C1FC00
0F807C00
1F003C00
3F001C00
7E001C00
7E000C00
FE000C00
FE000400
FE000000
FC000000
FC000000
FC000000
FC07FF80
FC07FF80
FC007C00
FE007C00
7E007C00
7E007C00
3F00FC00
1F00FC00
0F81DC00
07FF1C00
00FC0C00
ENDCHAR
STARTCHAR gbreve
ENCODING 287
SWIDTH 611 0
DWIDTH 20 0
BBX 20 32 1 -7
BITMAP
030300
030300
038700
01FE00
01FE00
007800
000000
0001E0
0003F0
07FFF0
1F7CE0
3E3E00
7C1F00
7C1F00
7C1F00
7C1F00
7C1F00
3E3E00
1F7E00
1FF800
7C0000
F80000
FFFC00
FFFF00
3FFF00
1FFF80
7FFF80
F00780
F00780
F80F00
7FFE00
0FF000
ENDCHAR
STARTCHAR Gdotaccent
ENCODING 288
SWIDTH 833 0
DWIDTH 26 0
BBX 25 31 1 0
BITMAP
000C0000
001E0000
001E0000
001E0000
000C0000
00000000
007E0C00
03FFDC00
07C1FC00
0F807C00
1F003C00
3F001C00
7E001C00
7E000C00
FE000C00
FE000400
FE000000
FC000000
FC000000
FC000000
FC07FF80
FC07FF80
FC007C00
FE007C00
7E007C00
7E007C00
3F00FC00
1F00FC00
0F81DC00
07FF1C00
00FC0C00
ENDCHAR
STARTCHAR gdotaccent
ENCODING 289
SWIDTH 611 0
DWIDTH 20 0
BBX 20 31 1 -7
BITMAP
003000
007800
007800
007800
003000
000000
0001E0
0003F0
07FFF0
1F7CE0
3E3E00
7C1F00
7C1F00
7C1F00
7C1F00
7C1F00
3E3E00
1F7E00
1FF800
7C0000
F80000
FFFC00
FFFF00
3FFF00
1FFF80
7FFF80
F00780
F00780
F80F00
7FFE00
0FF000
ENDCHAR
STARTCHAR Gcommaaccent
ENCODING 290
SWIDTH 833 0
DWIDTH 26 0
BBX 25 37 1 -12
BITMAP
007E0C00
03FFDC00
07C1FC00
0F807C00
1F003C00
3F001C00
7E001C00
7E000C00
FE000C00
FE000400
FE000000
FC000000
FC000000
FC000000
FC07FF80
FC07FF80
FC007C00
FE007C00
7E007C00
7E007C00
3F00FC00
1F00FC00
0F81DC00
07FF1C00
00FC0C00
00000000
003C0000
007C0000
007E0000
007E0000
007E0000
003E0000
000E0000
000C0000
00180000
00380000
00700000
ENDCHAR
STARTCHAR gcommaaccent
ENCODING 291
SWIDTH 611 0
DWIDTH 20 0
BBX 20 38 1 -7
BITMAP
000C00
001C00
003800
007000
006000
00E000
00F800
00FC00
00FC00
00FC00
007C00
007800
000000
0001E0
0003F0
07FFF0
1F7CE0
3E3E00
7C1F00
7C1F00
7C1F00
7C1F00
7C1F00
3E3E00
1F7E00
1FF800
7C0000
F80000
FFFC00
FFFF00
3FFF00
1FFF80
7FFF80
F00780
F00780
F80F00
7FFE00
0FF000
ENDCHAR
STARTCHAR Hcircumflex
ENCODING 292
SWIDTH 870 0
DWIDTH 28 0
BBX 26 31 1 0
BITMAP
000E0000
001F0000
003B8000
0071C000
00E0E000
00000000
FFF3FFC0
FFF3FFC0
1F807E00
1F807E00
1F807E00
1F807E00
1F807E00
1F807E00
1F807E00
1F807E00
1F807E00
1F807E00
1FFFFE00
1FFFFE00
1F807E00
1F807E00
1F807E00
1F807E00
1F807E00
1F807E00
1F807E00
1F807E00
1F807E00
FFF3FFC0
FFF3FFC0
ENDCHAR
STARTCHAR hcircumflex
ENCODING 293
SWIDTH 685 0
DWIDTH 22 0
BBX 20 31 1 0
BITMAP
070000
0F8000
1DC000
38E000
707000
000000
FE0000
FE0000
3E0000
3E0000
3E0000
3E0000
3E0000
3E0000
3E0000
3E3E00
3EFF80
3FFF80
3F8FC0
3F07C0
3F07C0
3E07C0
3E07C0
3E07C0
3E07C0
3E07C0
3E07C0
3E07C0
3E07C0
FF9FF0
FF9FF0
ENDCHAR
STARTCHAR Hbar
ENCODING 294
SWIDTH 870 0
DWIDTH 28 0
BBX 26 25 1 0
BITMAP
FFF3FFC0
FFF3FFC0
1F807E00
1F807E00
1F807E00
1F807E00
1F807E00
FFFFFFC0
FFFFFFC0
FFFFFFC0
1F807E00
1F807E00
1FFFFE00
1FFFFE00
1F807E00
1F807E00
1F807E00
1F807E00
1F807E00
1F807E00
1F807E00
1F807E00
1F807E00
FFF3FFC0
FFF3FFC0
ENDCHAR
STARTCHAR hbar
ENCODING 295
SWIDTH 685 0
DWIDTH 22 0
BBX 21 25 0 0
BITMAP
7F0000
7F0000
1F0000
1F0000
1F0000
1F0000
FFF000
FFF000
FFF000
1F1F00
1F7FC0
1FFFC0
1FC7E0
1F83E0
1F83E0
1F03E0
1F03E0
1F03E0
1F03E0
1F03E0
1F03E0
1F03E0
1F03E0
7FCFF8
7FCFF8
ENDCHAR
STARTCHAR Itilde
ENCODING 296
SWIDTH 444 0
DWIDTH 14 0
BBX 12 30 1 0
BITMAP
1C30
3FF0
7FE0
61C0
0000
FFF0
FFF0
1F80
1F80
1F80
1F80
1F80
1F80
1F80
1F80
1F80
1F80
1F80
1F80
1F80
1F80
1F80
1F80
1F80
1F80
1F80
1F80
1F80
FFF0
FFF0
ENDCHAR
STARTCHAR itilde
ENCODING 297
SWIDTH 370 0
DWIDTH 11 0
BBX 11 21 0 0
BITMAP
3860
7FE0
FFC0
C380
0000
7F00
7F00
1F00
1F00
1F00
1F00
1F00
1F00
1F00
1F00
1F00
1F00
1F00
1F00
7FC0
7FC0
ENDCHAR
STARTCHAR Imacron
ENCODING 298
SWIDTH 444 0
DWIDTH 14 0
BBX 12 29 1 0
BITMAP
7FF0
7FF0
7FF0
0000
FFF0
FFF0
1F80
1F80
1F80
1F80
1F80
1F80
1F80
1F80
1F80
1F80
1F80
1F80
1F80
1F80
1F80
1F80
1F80
1F80
1F80
1F80
1F80
FFF0
FFF0
ENDCHAR
STARTCHAR imacron
ENCODING 299
SWIDTH 370 0
DWIDTH 11 0
BBX 11 20 0 0
BITMAP
FFE0
FFE0
FFE0
0000
7F00
7F00
1F00
1F00
1F00
1F00
1F00
1F00
1F00
1F00
1F00
1F00
1F00
1F00
7FC0
7FC0
ENDCHAR
STARTCHAR Ibreve
ENCODING 300
SWIDTH 444 0
DWIDTH 14 0
BBX 12 32 1 0
BITMAP
6060
6060
70E0
3FC0
3FC0
0F00
0000
FFF0
FFF0
1F80
1F80
1F80
1F80
1F80
1F80
1F80
1F80
1F80
1F80
1F80
1F80
1F80
1F80
1F80
1F80
1F80
1F80
1F80
1F80
1F80
FFF0
FFF0
ENDCHAR
STARTCHAR ibreve
ENCODING 301
SWIDTH 370 0
DWIDTH 11 0
BBX 10 23 0 0
BITMAP
C0C0
C0C0
E1C0
7F80
7F80
1E00
0000
7F00
7F00
1F00
1F00
1F00
1F00
1F00
1F00
1F00
1F00
1F00
1F00
1F00
1F00
7FC0
7FC0
ENDCHAR
STARTCHAR Iogonek
ENCODING 302
SWIDTH 444 0
DWIDTH 14 0
BBX 12 31 1 -6
BITMAP
FFF0
FFF0
1F80
1F80
1F80
1F80
1F80
1F80
1F80
1F80
1F80
1F80
1F80
1F80
1F80
1F80
1F80
1F80
1F80
1F80
1F80
1F80
1F80
FFF0
FFF0
0600
0E00
1C00
1C80
1F80
0F00
ENDCHAR
STARTCHAR iogonek
ENCODING 303
SWIDTH 370 0
DWIDTH 12 0
BBX 9 31 2 -6
BITMAP
1C00
3E00
3E00
3E00
1C00
0000
0000
0000
0000
FE00
FE00
3E00
3E00
3E00
3E00
3E00
3E00
3E00
3E00
3E00
3E00
3E00
3E00
FF80
FF80
0C00
1C00
3800
3900
3F00
1E00
ENDCHAR
STARTCHAR Idotaccent
ENCODING 304
SWIDTH 444 0
DWIDTH 14 0
BBX 12 31 1 0
BITMAP
0600
0F00
0F00
0F00
0600
0000
FFF0
FFF0
1F80
1F80
1F80
1F80
1F80
1F80
1F80
1F80
1F80
1F80
1F80
1F80
1F80
1F80
1F80
1F80
1F80
1F80
1F80
1F80
1F80
FFF0
FFF0
ENDCHAR
STARTCHAR dotlessi
ENCODING 305
SWIDTH 370 0
DWIDTH 11 0
BBX 9 16 1 0
BITMAP
FE00
FE00
3E00
3E00
3E00
3E00
3E00
3E00
3E00
3E00
3E00
3E00
3E00
3E00
FF80
FF80
ENDCHAR
STARTCHAR IJ
ENCODING 306
SWIDTH 1070 0
DWIDTH 33 0
BBX 32 25 1 0
BITMAP
FFF00FFF
FFF00FFF
1F8001F8
1F8001F8
1F8001F8
1F8001F8
1F8001F8
1F8001F8
1F8001F8
1F8001F8
1F8001F8
1F8001F8
1F8001F8
1F8181F8
1F87E1F8
1F87E1F8
1F8FE1F8
1F8FE1F8
1F8FE1F8
1F8FC1F0
1F8603F0
1F8603E0
1F838FE0
FFF3FF80
FFF0FE00
ENDCHAR
STARTCHAR ij
ENCODING 307
SWIDTH 704 0
DWIDTH 23 0
BBX 18 32 2 -7
BITMAP
1C0380
3E07C0
3E07C0
3E07C0
1C0380
000000
000000
000000
000000
FE1FC0
FE1FC0
3E07C0
3E07C0
3E07C0
3E07C0
3E07C0
3E07C0
3E07C0
3E07C0
3E07C0
3E07C0
3E07C0
3E07C0
FF87C0
FF87C0
0007C0
01C7C0
03E780
03E780
03EF00
01FE00
007800
ENDCHAR
STARTCHAR Jcircumflex
ENCODING 308
SWIDTH 648 0
DWIDTH 20 0
BBX 20 31 0 0
BITMAP
001C00
003E00
007700
00E380
01C1C0
000000
00FFF0
00FFF0
001F80
001F80
001F80
001F80
001F80
001F80
001F80
001F80
001F80
001F80
001F80
181F80
7E1F80
7E1F80
FE1F80
FE1F80
FE1F80
FC1F00
603F00
603E00
38FE00
3FF800
0FE000
ENDCHAR
STARTCHAR jcircumflex
ENCODING 309
SWIDTH 352 0
DWIDTH 12 0
BBX 14 29 -3 -7
BITMAP
01C0
03E0
0770
0E38
1C1C
0000
07F0
07F0
01F0
01F0
01F0
01F0
01F0
01F0
01F0
01F0
01F0
01F0
01F0
01F0
01F0
01F0
01F0
71F0
F9E0
F9E0
FBC0
7F80
1E00
ENDCHAR
STARTCHAR Kcommaaccent
ENCODING 310
SWIDTH 815 0
DWIDTH 27 0
BBX 25 37 1 -12
BITMAP
FFF3FF80
FFF3FF80
1F807E00
1F807800
1F80F000
1F81E000
1F81C000
1F838000
1F870000
1F8F0000
1F9F0000
1FBF8000
1FFFC000
1FEFC000
1FEFE000
1FC7E000
1F87F000
1F83F800
1F81F800
1F81FC00
1F80FC00
1F80FE00
1F80FF00
FFF3FF80
FFF3FF80
00000000
001E0000
003E0000
003F0000
003F0000
003F0000
001F0000
00070000
00060000
000C0000
001C0000
00380000
ENDCHAR
STARTCHAR kcommaaccent
ENCODING 311
SWIDTH 667 0
DWIDTH 22 0
BBX 20 37 1 -12
BITMAP
FE0000
FE0000
3E0000
3E0000
3E0000
3E0000
3E0000
3E0000
3E0000
3E3FE0
3E3FE0
3E0F00
3E0E00
3E3C00
3E7000
3EF800
3FFC00
3FFE00
3F7E00
3E3F00
3E1F80
3E1FC0
3E0FE0
FFBFF0
FFBFF0
000000
00F000
01F000
01F800
01F800
01F800
00F800
003800
003000
006000
00E000
01C000
ENDCHAR
STARTCHAR kgreenlandic
ENCODING 312
SWIDTH 667 0
DWIDTH 22 0
BBX 20 16 1 0
BITMAP
3E3FE0
3E3FE0
3E0F00
3E0E00
3E3C00
3E7000
3EF800
3FFC00
3FFE00
3F7E00
3E3F00
3E1F80
3E1FC0
3E0FE0
FFBFF0
FFBFF0
ENDCHAR
STARTCHAR Lacute
ENCODING 313
SWIDTH 722 0
DWIDTH 23 0
BBX 21 32 1 0
BITMAP
006000
00F000
01F000
03E000
078000
060000
000000
FFF000
FFF000
1F8000
1F8000
1F8000
1F8000
1F8000
1F8000
1F8000
1F8000
1F8000
1F8000
1F8000
1F8000
1F8000
1F8000
1F8018
1F8018
1F8018
1F8038
1F8038
1F8078
1F81F8
FFFFF8
FFFFF8
ENDCHAR
STARTCHAR lacute
ENCODING 314
SWIDTH 352 0
DWIDTH 12 0
BBX 10 32 1 0
BITMAP
0300
0780
0F80
1F00
3C00
3000
0000
FE00
FE00
3E00
3E00
3E00
3E00
3E00
3E00
3E00
3E00
3E00
3E00
3E00
3E00
3E00
3E00
3E00
3E00
3E00
3E00
3E00
3E00
3E00
FFC0
FFC0
ENDCHAR
STARTCHAR Lcommaaccent
ENCODING 315
SWIDTH 722 0
DWIDTH 23 0
BBX 21 37 1 -12
BITMAP
FFF000
FFF000
1F8000
1F8000
1F8000
1F8000
1F8000
1F8000
1F8000
1F8000
1F8000
1F8000
1F8000
1F8000
1F8000
1F8000
1F8018
1F8018
1F8018
1F8038
1F8038
1F8078
1F81F8
FFFFF8
FFFFF8
000000
007800
00F800
00FC00
00FC00
00FC00
007C00
001C00
001800
003000
007000
00E000
ENDCHAR
STARTCHAR lcommaaccent
ENCODING 316
SWIDTH 352 0
DWIDTH 12 0
BBX 10 37 1 -12
BITMAP
FE00
FE00
3E00
3E00
3E00
3E00
3E00
3E00
3E00
3E00
3E00
3E00
3E00
3E00
3E00
3E00
3E00
3E00
3E00
3E00
3E00
3E00
3E00
FFC0
FFC0
0000
1E00
3E00
3F00
3F00
3F00
1F00
0700
0600
0C00
1C00
3800
ENDCHAR
STARTCHAR Lcaron
ENCODING 317
SWIDTH 927 0
DWIDTH 30 0
BBX 28 25 1 0
BITMAP
FFF001E0
FFF003F0
1F8003F0
1F8003F0
1F8003F0
1F8001F0
1F800070
1F800060
1F8000E0
1F8001C0
1F800380
1F800300
1F800000
1F800000
1F800000
1F800000
1F801800
1F801800
1F801800
1F803800
1F803800
1F807800
1F81F800
FFFFF800
FFFFF800
ENDCHAR
STARTCHAR lcaron
ENCODING 318
SWIDTH 575 0
DWIDTH 19 0
BBX 17 25 1 0
BITMAP
FE0F00
FE1F80
3E1F80
3E1F80
3E1F80
3E0F80
3E0380
3E0300
3E0700
3E0E00
3E1C00
3E1800
3E0000
3E0000
3E0000
3E0000
3E0000
3E0000
3E0000
3E0000
3E0000
3E0000
3E0000
FFC000
FFC000
ENDCHAR
STARTCHAR Ldot
ENCODING 319
SWIDTH 964 0
DWIDTH 31 0
BBX 28 25 1 0
BITMAP
FFF00000
FFF00000
1F800000
1F800000
1F800000
1F800000
1F800000
1F800000
1F800000
1F800000
1F800000
1F800000
1F800000
1F800000
1F8001E0
1F8003F0
1F801BF0
1F801BF0
1F801BF0
1F8039E0
1F803800
1F807800
1F81F800
FFFFF800
FFFFF800
ENDCHAR
STARTCHAR ldot
ENCODING 320
SWIDTH 612 0
DWIDTH 20 0
BBX 17 25 1 0
BITMAP
FE0000
FE0000
3E0000
3E0000
3E0000
3E0000
3E0000
3E0000
3E0000
3E0000
3E0000
3E0000
3E0000
3E0000
3E0F00
3E1F80
3E1F80
3E1F80
3E1F80
3E0F00
3E0000
3E0000
3E0000
FFC000
FFC000
ENDCHAR
STARTCHAR Lslash
ENCODING 321
SWIDTH 722 0
DWIDTH 23 0
BBX 21 25 1 0
BITMAP
FFF000
FFF000
1F8000
1F8000
1F8000
1F8000
1F8000
1F9800
1FB800
1FF000
1FC000
1F8000
1F8000
1F8000
7F8000
FF8000
DF8018
1F8018
1F8018
1F8038
1F8038
1F8078
1F81F8
FFFFF8
FFFFF8
ENDCHAR
STARTCHAR lslash
ENCODING 322
SWIDTH 352 0
DWIDTH 12 0
BBX 11 25 0 0
BITMAP
7F00
7F00
1F00
1F00
1F00
1F00
1F00
1F00
1F60
1FE0
1F80
1F00
3F00
FF00
DF00
1F00
1F00
1F00
1F00
1F00
1F00
1F00
1F00
7FE0
7FE0
ENDCHAR
STARTCHAR Nacute
ENCODING 323
SWIDTH 833 0
DWIDTH 27 0
BBX 27 32 0 0
BITMAP
00030000
00078000
000F8000
001F0000
003C0000
00300000
00000000
FF807FE0
FFC07FE0
3FE00F00
0FE00600
0FF00600
0FF80600
0FFC0600
0DFE0600
0CFE0600
0CFF0600
0C7F8600
0C3FC600
0C1FE600
0C0FE600
0C0FF600
0C07FE00
0C03FE00
0C01FE00
0C00FE00
0C007E00
0C007E00
0C003E00
1E001E00
FFC00E00
FFC00600
ENDCHAR
STARTCHAR nacute
ENCODING 324
SWIDTH 685 0
DWIDTH 22 0
BBX 20 23 1 0
BITMAP
001800
003C00
007C00
00F800
01E000
018000
000000
FE3E00
FEFF80
3FFF80
3F8FC0
3F07C0
3E07C0
3E07C0
3E07C0
3E07C0
3E07C0
3E07C0
3E07C0
3E07C0
3E07C0
FF9FF0
FF9FF0
ENDCHAR
STARTCHAR Ncommaaccent
ENCODING 325
SWIDTH 833 0
DWIDTH 27 0
BBX 27 37 0 -12
BITMAP
FF807FE0
FFC07FE0
3FE00F00
0FE00600
0FF00600
0FF80600
0FFC0600
0DFE0600
0CFE0600
0CFF0600
0C7F8600
0C3FC600
0C1FE600
0C0FE600
0C0FF600
0C07FE00
0C03FE00
0C01FE00
0C00FE00
0C007E00
0C007E00
0C003E00
1E001E00
FFC00E00
FFC00600
00000000
001E0000
003E0000
003F0000
003F0000
003F0000
001F0000
00070000
00060000
000C0000
001C0000
00380000
ENDCHAR
STARTCHAR ncommaaccent
ENCODING 326
SWIDTH 685 0
DWIDTH 22 0
BBX 20 28 1 -12
BITMAP
FE3E00
FEFF80
3FFF80
3F8FC0
3F07C0
3E07C0
3E07C0
3E07C0
3E07C0
3E07C0
3E07C0
3E07C0
3E07C0
3E07C0
FF9FF0
FF9FF0
000000
00F000
01F000
01F800
01F800
01F800
00F800
003800
003000
006000
00E000
01C000
ENDCHAR
STARTCHAR Ncaron
ENCODING 327
SWIDTH 833 0
DWIDTH 27 0
BBX 27 31 0 0
BITMAP
01C1C000
00E38000
00770000
003E0000
001C0000
00000000
FF807FE0
FFC07FE0
3FE00F00
0FE00600
0FF00600
0FF80600
0FFC0600
0DFE0600
0CFE0600
0CFF0600
0C7F8600
0C3FC600
0C1FE600
0C0FE600
0C0FF600
0C07FE00
0C03FE00
0C01FE00
0C00FE00
0C007E00
0C007E00
0C003E00
1E001E00
FFC00E00
FFC00600
ENDCHAR
STARTCHAR ncaron
ENCODING 328
SWIDTH 685 0
DWIDTH 22 0
BBX 20 22 1 0
BITMAP
0E0E00
071C00
03B800
01F000
00E000
000000
FE3E00
FEFF80
3FFF80
3F8FC0
3F07C0
3E07C0
3E07C0
3E07C0
3E07C0
3E07C0
3E07C0
3E07C0
3E07C0
3E07C0
FF9FF0
FF9FF0
ENDCHAR
STARTCHAR napostrophe
ENCODING 329
SWIDTH 914 0
DWIDTH 30 0
BBX 28 25 1 0
BITMAP
78000000
FC000000
FC000000
FC000000
FC000000
7C000000
1C000000
18000000
38000000
70FE3E00
E0FEFF80
C03FFF80
003F8FC0
003F07C0
003E07C0
003E07C0
003E07C0
003E07C0
003E07C0
003E07C0
003E07C0
003E07C0
003E07C0
00FF9FF0
00FF9FF0
ENDCHAR
STARTCHAR Eng
ENCODING 330
SWIDTH 833 0
DWIDTH 27 0
BBX 27 32 0 -7
BITMAP
FF807FE0
FFC07FE0
3FE00F00
0FE00600
0FF00600
0FF80600
0FFC0600
0DFE0600
0CFE0600
0CFF0600
0C7F8600
0C3FC600
0C1FE600
0C0FE600
0C0FF600
0C07FE00
0C03FE00
0C01FE00
0C00FE00
0C007E00
0C007E00
0C003E00
1E003E00
FFC03E00
FFC03E00
00003E00
000E3E00
001F3C00
001F3C00
001F7800
000FF000
0003C000
ENDCHAR
STARTCHAR eng
ENCODING 331
SWIDTH 685 0
DWIDTH 22 0
BBX 18 23 1 -7
BITMAP
FE3E00
FEFF80
3FFF80
3F8FC0
3F07C0
3E07C0
3E07C0
3E07C0
3E07C0
3E07C0
3E07C0
3E07C0
3E07C0
3E07C0
FF87C0
FF87C0
0007C0
01C7C0
03E780
03E780
03EF00
01FE00
007800
ENDCHAR
STARTCHAR Omacron
ENCODING 332
SWIDTH 833 0
DWIDTH 26 0
BBX 24 29 1 0
BITMAP
03FF80
03FF80
03FF80
000000
007E00
03FFC0
0FC1F0
1F80F8
3F00FC
3E007C
7E007E
7E007E
FC003F
FC003F
FC003F
FC003F
FC003F
FC003F
FC003F
FC003F
FC003F
7E007E
7E007E
3E007C
3F00FC
1F80F8
0FC1F0
03FFC0
007E00
ENDCHAR
STARTCHAR omacron
ENCODING 333
SWIDTH 611 0
DWIDTH 19 0
BBX 17 20 1 0
BITMAP
1FFC00
1FFC00
1FFC00
000000
03E000
0FF800
3E3E00
7C1F00
7C1F00
F80F80
F80F80
F80F80
F80F80
F80F80
F80F80
7C1F00
7C1F00
3E3E00
0FF800
03E000
ENDCHAR
STARTCHAR Obreve
ENCODING 334
SWIDTH 833 0
DWIDTH 26 0
BBX 24 32 1 0
BITMAP
018180
018180
01C380
00FF00
00FF00
003C00
000000
007E00
03FFC0
0FC1F0
1F80F8
3F00FC
3E007C
7E007E
7E007E
FC003F
FC003F
FC003F
FC003F
FC003F
FC003F
FC003F
FC003F
FC003F
7E007E
7E007E
3E007C
3F00FC
1F80F8
0FC1F0
03FFC0
007E00
ENDCHAR
STARTCHAR obreve
ENCODING 335
SWIDTH 611 0
DWIDTH 19 0
BBX 17 23 1 0
BITMAP
0C0C00
0C0C00
0E1C00
07F800
07F800
01E000
000000
03E000
0FF800
3E3E00
7C1F00
7C1F00
F80F80
F80F80
F80F80
F80F80
F80F80
F80F80
7C1F00
7C1F00
3E3E00
0FF800
03E000
ENDCHAR
STARTCHAR Ohungarumlaut
ENCODING 336
SWIDTH 833 0
DWIDTH 26 0
BBX 24 33 1 0
BITMAP
003180
007380
007380
007380
00E700
00C600
00C600
000000
007E00
03FFC0
0FC1F0
1F80F8
3F00FC
3E007C
7E007E
7E007E
FC003F
FC003F
FC003F
FC003F
FC003F
FC003F
FC003F
FC003F
FC003F
7E007E
7E007E
3E007C
3F00FC
1F80F8
0FC1F0
03FFC0
007E00
ENDCHAR
STARTCHAR ohungarumlaut
ENCODING 337
SWIDTH 611 0
DWIDTH 19 0
BBX 17 24 1 0
BITMAP
018C00
039C00
039C00
039C00
073800
063000
063000
000000
03E000
0FF800
3E3E00
7C1F00
7C1F00
F80F80
F80F80
F80F80
F80F80
F80F80
F80F80
7C1F00
7C1F00
3E3E00
0FF800
03E000
ENDCHAR
STARTCHAR OE
ENCODING 338
SWIDTH 1000 0
DWIDTH 33 0
BBX 31 25 1 0
BITMAP
00FFFFFE
07FFFFFE
0FC3F87E
1F03F83E
3F01F81E
3E01F80E
7E01F806
7E01F8C6
FE01F8C6
FE01F8C0
FE01F9C0
FC01FBC0
FC01FFC0
FC01FFC0
FC01FBC0
FC01F9C0
FE01F8C2
7E01F8C6
7E01F8C6
3E01F80E
3F01F81E
1F03F83E
0F83F87E
07FFFFFE
00FFFFFE
ENDCHAR
STARTCHAR oe
ENCODING 339
SWIDTH 907 0
DWIDTH 29 0
BBX 27 16 1 0
BITMAP
03E07C00
0E39C700
3E1FC780
7C1F83C0
7C0F83C0
FC0F83E0
F80F83E0
F80FFFE0
F80FFFE0
F80F8000
F80F8000
7C0F8060
7C1FC0C0
3E3FE1C0
0FFDFF80
03E07E00
ENDCHAR
STARTCHAR Racute
ENCODING 340
SWIDTH 815 0
DWIDTH 27 0
BBX 25 32 1 0
BITMAP
00060000
000F0000
001F0000
003E0000
00780000
00600000
00000000
FFFF8000
FFFFF000
1F83F800
1F81F800
1F80FC00
1F80FC00
1F80FC00
1F80FC00
1F80FC00
1F81F800
1F81F000
1F87C000
1FFF0000
1FFFC000
1F87E000
1F83E000
1F83F000
1F83F000
1F83F000
1F83F980
1F81F980
1F81FB00
1F81FF00
FFF0FE00
FFF07C00
ENDCHAR
STARTCHAR racute
ENCODING 341
SWIDTH 519 0
DWIDTH 16 0
BBX 15 23 1 0
BITMAP
0030
0078
00F8
01F0
03C0
0300
0000
FC7C
FCFE
3DFE
3DBE
3F3E
3E1C
3E00
3E00
3E00
3E00
3E00
3E00
3E00
3E00
FFC0
FFC0
ENDCHAR
STARTCHAR Rcommaaccent
ENCODING 342
SWIDTH 815 0
DWIDTH 27 0
BBX 25 37 1 -12
BITMAP
FFFF8000
FFFFF000
1F83F800
1F81F800
1F80FC00
1F80FC00
1F80FC00
1F80FC00
1F80FC00
1F81F800
1F81F000
1F87C000
1FFF0000
1FFFC000
1F87E000
1F83E000
1F83F000
1F83F000
1F83F000
1F83F980
1F81F980
1F81FB00
1F81FF00
FFF0FE00
FFF07C00
00000000
001E0000
003E0000
003F0000
003F0000
003F0000
001F0000
00070000
00060000
000C0000
001C0000
00380000
ENDCHAR
STARTCHAR rcommaaccent
ENCODING 343
SWIDTH 519 0
DWIDTH 16 0
BBX 15 28 1 -12
BITMAP
FC7C
FCFE
3DFE
3DBE
3F3E
3E1C
3E00
3E00
3E00
3E00
3E00
3E00
3E00
3E00
FFC0
FFC0
0000
0F00
1F00
1F80
1F80
1F80
0F80
0380
0300
0600
0E00
1C00
ENDCHAR
STARTCHAR Rcaron
ENCODING 344
SWIDTH 815 0
DWIDTH 27 0
BBX 25 31 1 0
BITMAP
03838000
01C70000
00EE0000
007C0000
00380000
00000000
FFFF8000
FFFFF000
1F83F800
1F81F800
1F80FC00
1F80FC00
1F80FC00
1F80FC00
1F80FC00
1F81F800
1F81F000
1F87C000
1FFF0000
1FFFC000
1F87E000
1F83E000
1F83F000
1F83F000
1F83F000
1F83F980
1F81F980
1F81FB00
1F81FF00
FFF0FE00
FFF07C00
ENDCHAR
STARTCHAR rcaron
ENCODING 345
SWIDTH 519 0
DWIDTH 16 0
BBX 15 22 1 0
BITMAP
3838
1C70
0EE0
07C0
0380
0000
FC7C
FCFE
3DFE
3DBE
3F3E
3E1C
3E00
3E00
3E00
3E00
3E00
3E00
3E00
3E00
FFC0
FFC0
ENDCHAR
STARTCHAR Sacute
ENCODING 346
SWIDTH 667 0
DWIDTH 21 0
BBX 19 32 1 0
BITMAP
001800
003C00
007C00
00F800
01E000
018000
000000
03F0C0
1FFDC0
3C1FC0
7807C0
7003C0
F001C0
F000C0
F800C0
FF00C0
FFF000
7FFE00
7FFF00
3FFF80
0FFFC0
07FFE0
407FE0
6007E0
6003E0
7001E0
7801E0
7801C0
7E03C0
7F0780
67FF00
61FC00
ENDCHAR
STARTCHAR sacute
ENCODING 347
SWIDTH 500 0
DWIDTH 16 0
BBX 14 23 1 0
BITMAP
00C0
01E0
03E0
07C0
0F00
0C00
0000
0FD8
3CF8
7038
F018
FE08
FFC0
FFF0
7FF8
3FF8
0FFC
C0FC
C03C
E038
F878
FFF0
CFC0
ENDCHAR
STARTCHAR Scircumflex
ENCODING 348
SWIDTH 667 0
DWIDTH 21 0
BBX 19 31 1 0
BITMAP
00E000
01F000
03B800
071C00
0E0E00
000000
03F0C0
1FFDC0
3C1FC0
7807C0
7003C0
F001C0
F000C0
F800C0
FF00C0
FFF000
7FFE00
7FFF00
3FFF80
0FFFC0
07FFE0
407FE0
6007E0
6003E0
7001E0
7801E0
7801C0
7E03C0
7F0780
67FF00
61FC00
ENDCHAR
STARTCHAR scircumflex
ENCODING 349
SWIDTH 500 0
DWIDTH 16 0
BBX 14 22 1 0
BITMAP
0700
0F80
1DC0
38E0
7070
0000
0FD8
3CF8
7038
F018
FE08
FFC0
FFF0
7FF8
3FF8
0FFC
C0FC
C03C
E038
F878
FFF0
CFC0
ENDCHAR
STARTCHAR Scedilla
ENCODING 350
SWIDTH 667 0
DWIDTH 21 0
BBX 19 32 1 -7
BITMAP
03F0C0
1FFDC0
3C1FC0
7807C0
7003C0
F001C0
F000C0
F800C0
FF00C0
FFF000
7FFE00
7FFF00
3FFF80
0FFFC0
07FFE0
407FE0
6007E0
6003E0
7001E0
7801E0
7801C0
7E03C0
7F0780
67FF00
61FC00
006000
00C000
01F000
003800
003800
037000
01E000
ENDCHAR
STARTCHAR scedilla
ENCODING 351
SWIDTH 500 0
DWIDTH 16 0
BBX 14 23 1 -7
BITMAP
0FD8
3CF8
7038
F018
FE08
FFC0
FFF0
7FF8
3FF8
0FFC
C0FC
C03C
E038
F878
FFF0
CFC0
0300
0600
0F80
01C0
01C0
1B80
0F00
ENDCHAR
STARTCHAR Scaron
ENCODING 352
SWIDTH 667 0
DWIDTH 21 0
BBX 19 31 0 0
BITMAP
0E0E00
071C00
03B800
01F000
00E000
000000
03F0C0
1FFDC0
3C1FC0
7807C0
7003C0
F001C0
F000C0
F800C0
FF00C0
FFF000
7FFE00
7FFF00
3FFF80
0FFFC0
07FFE0
407FE0
6007E0
6003E0
7001E0
7801E0
7801C0
7E03C0
7F0780
67FF00
61FC00
ENDCHAR
STARTCHAR scaron
ENCODING 353
SWIDTH 500 0
DWIDTH 16 0
BBX 14 22 1 0
BITMAP
3838
1C70
0EE0
07C0
0380
0000
0FD8
38F8
3038
7018
7E08
7FC0
7FF0
7FF8
3FF8
0FFC
C0FC
C03C
E038
F878
FFF0
C7C0
ENDCHAR
STARTCHAR Tcommaaccent
ENCODING 354
SWIDTH 722 0
DWIDTH 23 0
BBX 21 32 1 -7
BITMAP
FFFFF8
FFFFF8
F1F878
E1F838
E1F838
C1F818
C1F818
C1F818
81F808
81F808
01F800
01F800
01F800
01F800
01F800
01F800
01F800
01F800
01F800
01F800
01F800
01F800
01F800
0FFF80
0FFF80
003000
006000
00F800
001C00
001C00
01B800
00F000
ENDCHAR
STARTCHAR tcommaaccent
ENCODING 355
SWIDTH 426 0
DWIDTH 14 0
BBX 12 30 1 -7
BITMAP
0600
0600
0E00
0E00
0E00
1E00
3E00
FFE0
FFE0
3E00
3E00
3E00
3E00
3E00
3E00
3E00
3E30
3E30
3E30
3E60
3FE0
1FC0
0F80
0300
0600
0F80
01C0
01C0
1B80
0F00
ENDCHAR
STARTCHAR Tcaron
ENCODING 356
SWIDTH 722 0
DWIDTH 23 0
BBX 21 31 1 0
BITMAP
070700
038E00
01DC00
00F800
007000
000000
FFFFF8
FFFFF8
F1F878
E1F838
E1F838
C1F818
C1F818
C1F818
81F808
81F808
01F800
01F800
01F800
01F800
01F800
01F800
01F800
01F800
01F800
01F800
01F800
01F800
01F800
0FFF80
0FFF80
ENDCHAR
STARTCHAR tcaron
ENCODING 357
SWIDTH 646 0
DWIDTH 21 0
BBX 19 25 1 0
BITMAP
0003C0
0007E0
0607E0
0607E0
0E07E0
0E03E0
0E00E0
1E00C0
3E01C0
FFE380
FFE700
3E0600
3E0000
3E0000
3E0000
3E0000
3E0000
3E0000
3E3000
3E3000
3E3000
3E6000
3FE000
1FC000
0F8000
ENDCHAR
STARTCHAR Tbar
ENCODING 358
SWIDTH 722 0
DWIDTH 23 0
BBX 21 25 1 0
BITMAP
FFFFF8
FFFFF8
F1F878
E1F838
E1F838
C1F818
C1F818
C1F818
81F808
81F808
01F800
07FF80
07FF80
07FF80
01F800
01F800
01F800
01F800
01F800
01F800
01F800
01F800
01F800
0FFF80
0FFF80
ENDCHAR
STARTCHAR tbar
ENCODING 359
SWIDTH 426 0
DWIDTH 14 0
BBX 12 23 1 0
BITMAP
0600
0600
0E00
0E00
0E00
1E00
3E00
FFE0
FFE0
3E00
3E00
3E00
3E00
3E00
FFF0
FFF0
FFF0
3E30
3E30
3E60
3FE0
1FC0
0F80
ENDCHAR
STARTCHAR Utilde
ENCODING 360
SWIDTH 833 0
DWIDTH 28 0
BBX 26 30 1 0
BITMAP
0070C000
00FFC000
01FF8000
01870000
00000000
FFF0FFC0
FFF0FFC0
1F801E00
1F800C00
1F800C00
1F800C00
1F800C00
1F800C00
1F800C00
1F800C00
1F800C00
1F800C00
1F800C00
1F800C00
1F800C00
1F800C00
1F800C00
1F800C00
1F800C00
1F801C00
0FC01800
0FE03800
07F8F000
03FFE000
00FFC000
ENDCHAR
STARTCHAR utilde
ENCODING 361
SWIDTH 685 0
DWIDTH 22 0
BBX 20 21 1 0
BITMAP
01C300
03FF00
07FE00
061C00
000000
FE1FC0
FE1FC0
3E07C0
3E07C0
3E07C0
3E07C0
3E07C0
3E07C0
3E07C0
3E07C0
3E0FC0
3E0FC0
3F1FC0
1FFFC0
1FF7F0
07C7F0
ENDCHAR
STARTCHAR Umacron
ENCODING 362
SWIDTH 833 0
DWIDTH 28 0
BBX 26 29 1 0
BITMAP
01FFC000
01FFC000
01FFC000
00000000
FFF0FFC0
FFF0FFC0
1F801E00
1F800C00
1F800C00
1F800C00
1F800C00
1F800C00
1F800C00
1F800C00
1F800C00
1F800C00
1F800C00
1F800C00
1F800C00
1F800C00
1F800C00
1F800C00
1F800C00
1F801C00
0FC01800
0FE03800
07F8F000
03FFE000
00FFC000
ENDCHAR
STARTCHAR umacron
ENCODING 363
SWIDTH 685 0
DWIDTH 22 0
BBX 20 20 1 0
BITMAP
0FFE00
0FFE00
0FFE00
000000
FE1FC0
FE1FC0
3E07C0
3E07C0
3E07C0
3E07C0
3E07C0
3E07C0
3E07C0
3E07C0
3E0FC0
3E0FC0
3F1FC0
1FFFC0
1FF7F0
07C7F0
ENDCHAR
STARTCHAR Ubreve
ENCODING 364
SWIDTH 833 0
DWIDTH 28 0
BBX 26 32 1 0
BITMAP
01818000
01818000
01C38000
00FF0000
00FF0000
003C0000
00000000
FFF0FFC0
FFF0FFC0
1F801E00
1F800C00
1F800C00
1F800C00
1F800C00
1F800C00
1F800C00
1F800C00
1F800C00
1F800C00
1F800C00
1F800C00
1F800C00
1F800C00
1F800C00
1F800C00
1F800C00
1F801C00
0FC01800
0FE03800
07F8F000
03FFE000
00FFC000
ENDCHAR
STARTCHAR ubreve
ENCODING 365
SWIDTH 685 0
DWIDTH 22 0
BBX 20 23 1 0
BITMAP
060600
060600
070E00
03FC00
03FC00
00F000
000000
FE1FC0
FE1FC0
3E07C0
3E07C0
3E07C0
3E07C0
3E07C0
3E07C0
3E07C0
3E07C0
3E0FC0
3E0FC0
3F1FC0
1FFFC0
1FF7F0
07C7F0
ENDCHAR
STARTCHAR Uring
ENCODING 366
SWIDTH 833 0
DWIDTH 28 0
BBX 26 32 1 0
BITMAP
003E0000
00770000
00630000
00630000
00770000
003E0000
00000000
FFF0FFC0
FFF0FFC0
1F801E00
1F800C00
1F800C00
1F800C00
1F800C00
1F800C00
1F800C00
1F800C00
1F800C00
1F800C00
1F800C00
1F800C00
1F800C00
1F800C00
1F800C00
1F800C00
1F800C00
1F801C00
0FC01800
0FE03800
07F8F000
03FFE000
00FFC000
ENDCHAR
STARTCHAR uring
ENCODING 367
SWIDTH 685 0
DWIDTH 22 0
BBX 20 23 1 0
BITMAP
01F000
03B800
031800
031800
03B800
01F000
000000
FE1FC0
FE1FC0
3E07C0
3E07C0
3E07C0
3E07C0
3E07C0
3E07C0
3E07C0
3E07C0
3E0FC0
3E0FC0
3F1FC0
1FFFC0
1FF7F0
07C7F0
ENDCHAR
STARTCHAR Uhungarumlaut
ENCODING 368
SWIDTH 833 0
DWIDTH 28 0
BBX 26 33 1 0
BITMAP
00318000
00738000
00738000
00738000
00E70000
00C60000
00C60000
00000000
FFF0FFC0
FFF0FFC0
1F801E00
1F800C00
1F800C00
1F800C00
1F800C00
1F800C00
1F800C00
1F800C00
1F800C00
1F800C00
1F800C00
1F800C00
1F800C00
1F800C00
1F800C00
1F800C00
1F800C00
1F801C00
0FC01800
0FE03800
07F8F000
03FFE000
00FFC000
ENDCHAR
STARTCHAR uhungarumlaut
ENCODING 369
SWIDTH 685 0
DWIDTH 22 0
BBX 20 24 1 0
BITMAP
00C600
01CE00
01CE00
01CE00
039C00
031800
031800
000000
FE1FC0
FE1FC0
3E07C0
3E07C0
3E07C0
3E07C0
3E07C0
3E07C0
3E07C0
3E07C0
3E0FC0
3E0FC0
3F1FC0
1FFFC0
1FF7F0
07C7F0
ENDCHAR
STARTCHAR Uogonek
ENCODING 370
SWIDTH 833 0
DWIDTH 28 0
BBX 26 31 1 -6
BITMAP
FFF0FFC0
FFF0FFC0
1F801E00
1F800C00
1F800C00
1F800C00
1F800C00
1F800C00
1F800C00
1F800C00
1F800C00
1F800C00
1F800C00
1F800C00
1F800C00
1F800C00
1F800C00
1F800C00
1F800C00
1F801C00
0FC01800
0FE03800
07F8F000
03FFE000
00FFC000
00180000
00380000
00700000
00720000
007E0000
003C0000
ENDCHAR
STARTCHAR uogonek
ENCODING 371
SWIDTH 685 0
DWIDTH 22 0
BBX 20 22 1 -6
BITMAP
FE1FC0
FE1FC0
3E07C0
3E07C0
3E07C0
3E07C0
3E07C0
3E07C0
3E07C0
3E07C0
3E0FC0
3E0FC0
3F1FC0
1FFFC0
1FF7F0
07C7F0
003000
007000
00E000
00E400
00FC00
007800
ENDCHAR
STARTCHAR Wcircumflex
ENCODING 372
SWIDTH 981 0
DWIDTH 32 0
BBX 32 31 0 0
BITMAP
00038000
0007C000
000EE000
001C7000
00383800
00000000
FFDFF9FF
FFDFF9FF
3F07E07C
3F07E038
1F83E030
1F83F070
1F83F070
0FC1F060
0FC3F860
0FC3F8E0
07C3F8C0
07E7F8C0
07E6FCC0
07E6FD80
03FE7D80
03FC7F80
03FC7F80
01FC3F00
01F83F00
01F83F00
00F83E00
00F81E00
00F01E00
00701C00
00700C00
ENDCHAR
STARTCHAR wcircumflex
ENCODING 373
SWIDTH 889 0
DWIDTH 29 0
BBX 27 22 1 0
BITMAP
000E0000
001F0000
003B8000
0071C000
00E0E000
00000000
FFBFEFE0
FFBFEFE0
7E1F83C0
3E0F8380
3F0F8300
1F0FC300
1F8FC600
0F9FE600
0F9BE600
0FFBEC00
07F1FC00
07F1F800
03E1F800
03E0F000
01C0F000
01C06000
ENDCHAR
STARTCHAR Ycircumflex
ENCODING 374
SWIDTH 722 0
DWIDTH 24 0
BBX 24 31 0 0
BITMAP
003800
007C00
00EE00
01C700
038380
000000
FFF1FF
FFF1FF
3F807C
1FC038
1FC070
0FE070
0FE0E0
07F0C0
03F1C0
03F980
01FB80
01FF00
00FF00
007E00
007E00
007E00
007E00
007E00
007E00
007E00
007E00
007E00
007E00
03FFC0
03FFC0
ENDCHAR
STARTCHAR ycircumflex
ENCODING 375
SWIDTH 611 0
DWIDTH 19 0
BBX 19 29 0 -7
BITMAP
00E000
01F000
03B800
071C00
0E0E00
000000
FF8FE0
FF8FE0
3F0380
3F0380
1F0300
1F8700
0F8600
0FC600
07CC00
07EC00
03F800
03F800
01F800
01F000
00F000
00E000
006000
70C000
F8C000
F98000
FF0000
7F0000
3C0000
ENDCHAR
STARTCHAR Ydieresis
ENCODING 376
SWIDTH 722 0
DWIDTH 24 0
BBX 24 32 0 0
BITMAP
00C180
01E3C0
01E3C0
01E3C0
00C180
000000
000000
FFF1FF
FFF1FF
3F807C
1FC038
1FC070
0FE070
0FE0E0
07F0C0
03F1C0
03F980
01FB80
01FF00
00FF00
007E00
007E00
007E00
007E00
007E00
007E00
007E00
007E00
007E00
007E00
03FFC0
03FFC0
ENDCHAR
STARTCHAR Zacute
ENCODING 377
SWIDTH 667 0
DWIDTH 21 0
BBX 19 32 1 0
BITMAP
000C00
001E00
003E00
007C00
00F000
00C000
000000
7FFFE0
7FFFE0
7E0FE0
780FE0
701FC0
701F80
603F80
607F00
407E00
00FE00
01FC00
01FC00
03F800
03F000
07F000
0FE020
0FE060
1FC060
1F8060
3F80E0
7F00E0
7F01E0
FE07E0
FFFFE0
FFFFE0
ENDCHAR
STARTCHAR zacute
ENCODING 378
SWIDTH 537 0
DWIDTH 16 0
BBX 14 23 1 0
BITMAP
0060
00F0
01F0
03E0
0780
0600
0000
7FFC
7FFC
70FC
61F8
61F8
43F0
07E0
07E0
0FC0
1F80
1F0C
3F0C
7E1C
7C1C
FFFC
FFFC
ENDCHAR
STARTCHAR Zdotaccent
ENCODING 379
SWIDTH 667 0
DWIDTH 21 0
BBX 19 31 1 0
BITMAP
006000
00F000
00F000
00F000
006000
000000
7FFFE0
7FFFE0
7E0FE0
780FE0
701FC0
701F80
603F80
607F00
407E00
00FE00
01FC00
01FC00
03F800
03F000
07F000
0FE020
0FE060
1FC060
1F8060
3F80E0
7F00E0
7F01E0
FE07E0
FFFFE0
FFFFE0
ENDCHAR
STARTCHAR zdotaccent
ENCODING 380
SWIDTH 537 0
DWIDTH 16 0
BBX 14 22 1 0
BITMAP
0180
03C0
03C0
03C0
0180
0000
7FFC
7FFC
70FC
61F8
61F8
43F0
07E0
07E0
0FC0
1F80
1F0C
3F0C
7E1C
7C1C
FFFC
FFFC
ENDCHAR
STARTCHAR Zcaron
ENCODING 381
SWIDTH 667 0
DWIDTH 21 0
BBX 19 31 1 0
BITMAP
070700
038E00
01DC00
00F800
007000
000000
7FFFE0
7FFFE0
7E0FE0
780FE0
701FC0
701F80
603F80
607F00
407E00
00FE00
01FC00
01FC00
03F800
03F000
07F000
0FE020
0FE060
1FC060
1F8060
3F80E0
7F00E0
7F01E0
FE07E0
FFFFE0
FFFFE0
ENDCHAR
STARTCHAR zcaron
ENCODING 382
SWIDTH 537 0
DWIDTH 16 0
BBX 14 22 1 0
BITMAP
3838
1C70
0EE0
07C0
0380
0000
7FFC
7FFC
70FC
61F8
61F8
43F0
07E0
07E0
0FC0
1F80
1F0C
3F0C
7E1C
7C1C
FFFC
FFFC
ENDCHAR
STARTCHAR uni0186
ENCODING 390
SWIDTH 778 0
DWIDTH 24 0
BBX 22 25 1 0
BITMAP
03FC00
0FFF80
1E0FC0
3807E0
3003F0
7001F8
6001F8
E001FC
C001FC
0001FC
0000FC
0000FC
0000FC
0000FC
0000FC
4000FC
6001FC
6001F8
7001F8
7001F0
7803E0
7C07E0
7E0F80
77FF00
61F800
ENDCHAR
STARTCHAR uni0189
ENCODING 393
SWIDTH 833 0
DWIDTH 26 0
BBX 24 25 1 0
BITMAP
FFFF00
FFFFE0
1F83F0
1F81F8
1F80FC
1F807C
1F807E
1F807E
1F807F
1F803F
1F803F
1F803F
FFF83F
FFF83F
1F803F
1F803F
1F803F
1F807F
1F807E
1F807E
1F80FC
1F80F8
1F83F0
FFFFE0
FFFF00
ENDCHAR
STARTCHAR uni018E
ENCODING 398
SWIDTH 759 0
DWIDTH 23 0
BBX 21 25 1 0
BITMAP
FFFFF8
FFFFF8
FC0FC0
F00FC0
E00FC0
E00FC0
C30FC0
C30FC0
C30FC0
038FC0
03CFC0
03FFC0
03FFC0
03CFC0
038FC0
038FC0
C30FC0
C30FC0
E00FC0
E00FC0
F00FC0
F80FC0
FC0FC0
FFFFF8
FFFFF8
ENDCHAR
STARTCHAR florin
ENCODING 402
SWIDTH 574 0
DWIDTH 19 0
BBX 17 32 0 -7
BITMAP
001F00
003780
007780
00F780
00E300
00E000
01E000
01E000
01E000
01E000
1FFE00
1FFE00
01E000
03E000
03E000
03E000
03E000
03E000
03E000
03E000
03C000
03C000
03C000
03C000
03C000
03C000
038000
638000
F78000
F70000
F60000
7C0000
ENDCHAR
STARTCHAR uni0197
ENCODING 407
SWIDTH 444 0
DWIDTH 14 0
BBX 12 25 1 0
BITMAP
FFF0
FFF0
1F80
1F80
1F80
1F80
1F80
1F80
1F80
1F80
1F80
FFF0
FFF0
FFF0
1F80
1F80
1F80
1F80
1F80
1F80
1F80
1F80
1F80
FFF0
FFF0
ENDCHAR
STARTCHAR uni019A
ENCODING 410
SWIDTH 352 0
DWIDTH 12 0
BBX 12 25 0 0
BITMAP
7F00
7F00
1F00
1F00
1F00
1F00
1F00
1F00
1F00
1F00
1F00
FFF0
FFF0
FFF0
1F00
1F00
1F00
1F00
1F00
1F00
1F00
1F00
1F00
7FE0
7FE0
ENDCHAR
STARTCHAR uni019D
ENCODING 413
SWIDTH 833 0
DWIDTH 27 0
BBX 30 32 -3 -7
BITMAP
1FF00FFC
1FF80FFC
07FC01E0
01FC00C0
01FE00C0
01FF00C0
01FF80C0
01BFC0C0
019FC0C0
019FE0C0
018FF0C0
0187F8C0
0183FCC0
0181FCC0
0181FEC0
0180FFC0
01807FC0
01803FC0
01F01FC0
01F00FC0
01F00FC0
01F007C0
01F003C0
01F001C0
01F000C0
01F00000
71F00000
F9E00000
F9E00000
FBC00000
7F800000
1E000000
ENDCHAR
STARTCHAR uni019F
ENCODING 415
SWIDTH 833 0
DWIDTH 26 0
BBX 24 25 1 0
BITMAP
007E00
03FFC0
0FC1F0
1F80F8
3F00FC
3E007C
7E007E
7E007E
FC003F
FC003F
FC003F
FFFFFF
FFFFFF
FFFFFF
FC003F
FC003F
FC003F
7E007E
7E007E
3E007C
3F00FC
1F80F8
0FC1F0
03FFC0
007E00
ENDCHAR
STARTCHAR Ohorn
ENCODING 416
SWIDTH 833 0
DWIDTH 26 0
BBX 28 25 1 0
BITMAP
007E01E0
03FFC3F0
0FC1F3F0
1F80FBF0
3F00FFF0
3E007DF0
7E007E70
7E007E60
FC003FE0
FC003FC0
FC003F80
FC003F00
FC003F00
FC003F00
FC003F00
FC003F00
FC003F00
7E007E00
7E007E00
3E007C00
3F00FC00
1F80F800
0FC1F000
03FFC000
007E0000
ENDCHAR
STARTCHAR ohorn
ENCODING 417
SWIDTH 611 0
DWIDTH 19 0
BBX 21 16 1 0
BITMAP
03E0F0
0FF9F8
3E3FF8
7C1FF8
7C1FF8
F80FF8
F80FB8
F80FB0
F80FF0
F80FE0
F80FC0
7C1F80
7C1F00
3E3E00
0FF800
03E000
ENDCHAR
STARTCHAR uni01A7
ENCODING 423
SWIDTH 667 0
DWIDTH 21 0
BBX 19 25 1 0
BITMAP
61F800
77FF00
7F0780
7C03C0
7801C0
7001E0
6001E0
6003E0
601FE0
01FFE0
0FFFC0
1FFFC0
3FFF80
7FFE00
FFFC00
FFC040
FC00C0
F800C0
F001C0
F003C0
7003C0
780FC0
3C1FC0
1FFCC0
07F0C0
ENDCHAR
STARTCHAR uni01A8
ENCODING 424
SWIDTH 500 0
DWIDTH 16 0
BBX 14 16 1 0
BITMAP
6FC0
7CF0
7038
603C
41FC
0FFC
3FFC
7FF8
7FF0
FFC0
FC0C
F00C
701C
787C
3FFC
0FCC
ENDCHAR
STARTCHAR uni01AE
ENCODING 430
SWIDTH 722 0
DWIDTH 23 0
BBX 21 32 1 -7
BITMAP
FFFFF8
FFFFF8
F1F878
E1F838
E1F838
C1F818
C1F818
C1F818
81F808
81F808
01F800
01F800
01F800
01F800
01F800
01F800
01F800
01F800
01F800
00F800
00F800
00F800
00F800
00F800
00F800
00F800
00F8E0
0079F0
0079F0
003DF0
001FE0
000780
ENDCHAR
STARTCHAR Uhorn
ENCODING 431
SWIDTH 833 0
DWIDTH 28 0
BBX 29 25 1 0
BITMAP
FFF0FFF0
FFF0FFF8
1F801FF8
1F800DF8
1F800DF8
1F800CF8
1F800C38
1F800C30
1F800C70
1F800CE0
1F800DC0
1F800D80
1F800C00
1F800C00
1F800C00
1F800C00
1F800C00
1F800C00
1F800C00
1F801C00
0FC01800
0FE03800
07F8F000
03FFE000
00FFC000
ENDCHAR
STARTCHAR uhorn
ENCODING 432
SWIDTH 685 0
DWIDTH 22 0
BBX 24 16 1 0
BITMAP
FE1FDE
FE1FFF
3E07FF
3E07FF
3E07FF
3E07DF
3E07C7
3E07C6
3E07CE
3E07DC
3E0FF8
3E0FF0
3F1FC0
1FFFC0
1FF7F0
07C7F0
ENDCHAR
STARTCHAR uni01B5
ENCODING 437
SWIDTH 667 0
DWIDTH 21 0
BBX 19 25 1 0
BITMAP
7FFFE0
7FFFE0
7E0FE0
780FE0
701FC0
701F80
603F80
607F00
407E00
00FE00
01FC00
0FFF00
0FFF00
0FFF00
07F000
0FE020
0FE060
1FC060
1F8060
3F80E0
7F00E0
7F01E0
FE07E0
FFFFE0
FFFFE0
ENDCHAR
STARTCHAR uni01B6
ENCODING 438
SWIDTH 537 0
DWIDTH 16 0
BBX 14 16 1 0
BITMAP
7FFC
7FFC
70FC
61F8
61F8
43F0
7FF8
7FF8
7FF8
1F80
1F0C
3F0C
7E1C
7C1C
FFFC
FFFC
ENDCHAR
STARTCHAR uni01BB
ENCODING 443
SWIDTH 574 0
DWIDTH 19 0
BBX 17 24 1 0
BITMAP
0FF000
3FFC00
787E00
F03F00
F81F00
FC1F00
FC1F00
FC1F00
7C3F00
383E00
FFFF80
FFFF80
FFFF80
01E000
03C000
038180
070180
0E0180
1C0380
3FFF80
7FFF00
7FFF00
FFFF00
FFFF00
ENDCHAR
STARTCHAR uni01BC
ENCODING 444
SWIDTH 574 0
DWIDTH 19 0
BBX 16 24 1 0
BITMAP
1FFF
3FFE
3FFE
3FFC
3FF0
3000
3000
3000
3000
37E0
3FF8
387C
303E
203E
001F
001F
381F
7C1F
FC1F
FC3E
783E
70FC
3FF0
0FC0
ENDCHAR
STARTCHAR uni01C0
ENCODING 448
SWIDTH 606 0
DWIDTH 20 0
BBX 4 25 8 0
BITMAP
F0
F0
F0
F0
F0
F0
F0
F0
F0
F0
F0
F0
F0
F0
F0
F0
F0
F0
F0
F0
F0
F0
F0
F0
F0
ENDCHAR
STARTCHAR uni01C2
ENCODING 450
SWIDTH 606 0
DWIDTH 20 0
BBX 16 25 2 -4
BITMAP
03C0
03C0
03C0
03C0
03C0
03C0
03C0
03C0
FFFF
FFFF
FFFF
FFFF
03C0
03C0
FFFF
FFFF
FFFF
FFFF
03C0
03C0
03C0
03C0
03C0
03C0
03C0
ENDCHAR
STARTCHAR uni01C3
ENCODING 451
SWIDTH 296 0
DWIDTH 10 0
BBX 6 25 2 0
BITMAP
78
FC
FC
FC
FC
FC
FC
78
78
78
78
30
30
30
30
30
30
00
00
78
FC
FC
FC
FC
78
ENDCHAR
STARTCHAR uni01CD
ENCODING 461
SWIDTH 759 0
DWIDTH 25 0
BBX 25 31 0 0
BITMAP
01C1C000
00E38000
00770000
003E0000
001C0000
00000000
001C0000
001C0000
001E0000
003E0000
003F0000
007F0000
007F8000
007F8000
00FF8000
00CFC000
01CFC000
018FC000
0187E000
0387E000
0307F000
0703F000
07FFF000
07FFF800
0E01F800
0C01FC00
1C00FC00
1C00FE00
3E00FE00
FF83FF80
FF83FF80
ENDCHAR
STARTCHAR uni01CE
ENCODING 462
SWIDTH 611 0
DWIDTH 20 0
BBX 18 22 1 0
BITMAP
1C1C00
0E3800
077000
03E000
01C000
000000
0FF000
3FFC00
787E00
7C3E00
7C3E00
383E00
003E00
03FE00
1FBE00
7E3E00
7C3E00
FC3E00
FC3E00
FC7F40
7FFFC0
3F8F80
ENDCHAR
STARTCHAR uni01CF
ENCODING 463
SWIDTH 444 0
DWIDTH 14 0
BBX 12 31 1 0
BITMAP
7070
38E0
1DC0
0F80
0700
0000
FFF0
FFF0
1F80
1F80
1F80
1F80
1F80
1F80
1F80
1F80
1F80
1F80
1F80
1F80
1F80
1F80
1F80
1F80
1F80
1F80
1F80
1F80
1F80
FFF0
FFF0
ENDCHAR
STARTCHAR uni01D0
ENCODING 464
SWIDTH 370 0
DWIDTH 11 0
BBX 11 22 0 0
BITMAP
E0E0
71C0
3B80
1F00
0E00
0000
7F00
7F00
1F00
1F00
1F00
1F00
1F00
1F00
1F00
1F00
1F00
1F00
1F00
1F00
7FC0
7FC0
ENDCHAR
STARTCHAR uni01D1
ENCODING 465
SWIDTH 833 0
DWIDTH 26 0
BBX 24 31 1 0
BITMAP
038380
01C700
00EE00
007C00
003800
000000
007E00
03FFC0
0FC1F0
1F80F8
3F00FC
3E007C
7E007E
7E007E
FC003F
FC003F
FC003F
FC003F
FC003F
FC003F
FC003F
FC003F
FC003F
7E007E
7E007E
3E007C
3F00FC
1F80F8
0FC1F0
03FFC0
007E00
ENDCHAR
STARTCHAR uni01D2
ENCODING 466
SWIDTH 611 0
DWIDTH 19 0
BBX 17 22 1 0
BITMAP
1C1C00
0E3800
077000
03E000
01C000
000000
03E000
0FF800
3E3E00
7C1F00
7C1F00
F80F80
F80F80
F80F80
F80F80
F80F80
F80F80
7C1F00
7C1F00
3E3E00
0FF800
03E000
ENDCHAR
STARTCHAR uni01D3
ENCODING 467
SWIDTH 833 0
DWIDTH 28 0
BBX 26 31 1 0
BITMAP
01C1C000
00E38000
00770000
003E0000
001C0000
00000000
FFF0FFC0
FFF0FFC0
1F801E00
1F800C00
1F800C00
1F800C00
1F800C00
1F800C00
1F800C00
1F800C00
1F800C00
1F800C00
1F800C00
1F800C00
1F800C00
1F800C00
1F800C00
1F800C00
1F800C00
1F801C00
0FC01800
0FE03800
07F8F000
03FFE000
00FFC000
ENDCHAR
STARTCHAR uni01D4
ENCODING 468
SWIDTH 685 0
DWIDTH 22 0
BBX 20 22 1 0
BITMAP
0E0E00
071C00
03B800
01F000
00E000
000000
FE1FC0
FE1FC0
3E07C0
3E07C0
3E07C0
3E07C0
3E07C0
3E07C0
3E07C0
3E07C0
3E0FC0
3E0FC0
3F1FC0
1FFFC0
1FF7F0
07C7F0
ENDCHAR
STARTCHAR uni01D5
ENCODING 469
SWIDTH 833 0
DWIDTH 28 0
BBX 26 36 1 0
BITMAP
00FFE000
00FFE000
00FFE000
00000000
00306000
0078F000
0078F000
0078F000
00306000
00000000
00000000
FFF0FFC0
FFF0FFC0
1F801E00
1F800C00
1F800C00
1F800C00
1F800C00
1F800C00
1F800C00
1F800C00
1F800C00
1F800C00
1F800C00
1F800C00
1F800C00
1F800C00
1F800C00
1F800C00
1F800C00
1F801C00
0FC01800
0FE03800
07F8F000
03FFE000
00FFC000
ENDCHAR
STARTCHAR uni01D6
ENCODING 470
SWIDTH 685 0
DWIDTH 22 0
BBX 20 27 1 0
BITMAP
0FFE00
0FFE00
0FFE00
000000
060C00
0F1E00
0F1E00
0F1E00
060C00
000000
000000
FE1FC0
FE1FC0
3E07C0
3E07C0
3E07C0
3E07C0
3E07C0
3E07C0
3E07C0
3E07C0
3E0FC0
3E0FC0
3F1FC0
1FFFC0
1FF7F0
07C7F0
ENDCHAR
STARTCHAR uni01D7
ENCODING 471
SWIDTH 833 0
DWIDTH 28 0
BBX 26 39 1 0
BITMAP
00018000
0003C000
0007C000
000F8000
001E0000
00180000
00000000
00306000
0078F000
0078F000
0078F000
00306000
00000000
00000000
FFF0FFC0
FFF0FFC0
1F801E00
1F800C00
1F800C00
1F800C00
1F800C00
1F800C00
1F800C00
1F800C00
1F800C00
1F800C00
1F800C00
1F800C00
1F800C00
1F800C00
1F800C00
1F800C00
1F800C00
1F801C00
0FC01800
0FE03800
07F8F000
03FFE000
00FFC000
ENDCHAR
STARTCHAR uni01D8
ENCODING 472
SWIDTH 685 0
DWIDTH 22 0
BBX 20 30 1 0
BITMAP
001800
003C00
007C00
00F800
01E000
018000
000000
060C00
0F1E00
0F1E00
0F1E00
060C00
000000
000000
FE1FC0
FE1FC0
3E07C0
3E07C0
3E07C0
3E07C0
3E07C0
3E07C0
3E07C0
3E07C0
3E0FC0
3E0FC0
3F1FC0
1FFFC0
1FF7F0
07C7F0
ENDCHAR
STARTCHAR uni01D9
ENCODING 473
SWIDTH 833 0
DWIDTH 28 0
BBX 26 38 1 0
BITMAP
00E0E000
0071C000
003B8000
001F0000
000E0000
00000000
00306000
0078F000
0078F000
0078F000
00306000
00000000
00000000
FFF0FFC0
FFF0FFC0
1F801E00
1F800C00
1F800C00
1F800C00
1F800C00
1F800C00
1F800C00
1F800C00
1F800C00
1F800C00
1F800C00
1F800C00
1F800C00
1F800C00
1F800C00
1F800C00
1F800C00
1F801C00
0FC01800
0FE03800
07F8F000
03FFE000
00FFC000
ENDCHAR
STARTCHAR uni01DA
ENCODING 474
SWIDTH 685 0
DWIDTH 22 0
BBX 20 29 1 0
BITMAP
0E0E00
071C00
03B800
01F000
00E000
000000
060C00
0F1E00
0F1E00
0F1E00
060C00
000000
000000
FE1FC0
FE1FC0
3E07C0
3E07C0
3E07C0
3E07C0
3E07C0
3E07C0
3E07C0
3E07C0
3E0FC0
3E0FC0
3F1FC0
1FFFC0
1FF7F0
07C7F0
ENDCHAR
STARTCHAR uni01DB
ENCODING 475
SWIDTH 833 0
DWIDTH 28 0
BBX 26 39 1 0
BITMAP
00300000
00780000
007C0000
003E0000
000F0000
00030000
00000000
00306000
0078F000
0078F000
0078F000
00306000
00000000
00000000
FFF0FFC0
FFF0FFC0
1F801E00
1F800C00
1F800C00
1F800C00
1F800C00
1F800C00
1F800C00
1F800C00
1F800C00
1F800C00
1F800C00
1F800C00
1F800C00
1F800C00
1F800C00
1F800C00
1F800C00
1F801C00
0FC01800
0FE03800
07F8F000
03FFE000
00FFC000
ENDCHAR
STARTCHAR uni01DC
ENCODING 476
SWIDTH 685 0
DWIDTH 22 0
BBX 20 30 1 0
BITMAP
030000
078000
07C000
03E000
00F000
003000
000000
060C00
0F1E00
0F1E00
0F1E00
060C00
000000
000000
FE1FC0
FE1FC0
3E07C0
3E07C0
3E07C0
3E07C0
3E07C0
3E07C0
3E07C0
3E07C0
3E0FC0
3E0FC0
3F1FC0
1FFFC0
1FF7F0
07C7F0
ENDCHAR
STARTCHAR uni01DD
ENCODING 477
SWIDTH 574 0
DWIDTH 18 0
BBX 16 16 1 0
BITMAP
0FE0
3FF8
70FC
603E
C03F
001F
001F
FFFF
FFFF
F81F
F81F
781E
781E
3C3C
1FF0
07C0
ENDCHAR
STARTCHAR uni01DE
ENCODING 478
SWIDTH 759 0
DWIDTH 25 0
BBX 25 35 0 0
BITMAP
01FFC000
01FFC000
01FFC000
00000000
00C18000
01E3C000
01E3C000
01E3C000
00C18000
00000000
001C0000
001C0000
001E0000
003E0000
003F0000
007F0000
007F8000
007F8000
00FF8000
00CFC000
01CFC000
018FC000
0187E000
0387E000
0307F000
0703F000
07FFF000
07FFF800
0E01F800
0C01FC00
1C00FC00
1C00FE00
3E00FE00
FF83FF80
FF83FF80
ENDCHAR
STARTCHAR uni01DF
ENCODING 479
SWIDTH 611 0
DWIDTH 20 0
BBX 18 27 1 0
BITMAP
1FFC00
1FFC00
1FFC00
000000
0C1800
1E3C00
1E3C00
1E3C00
0C1800
000000
000000
0FF000
3FFC00
783E00
7C3E00
7C3E00
383E00
003E00
03FE00
1FBE00
7E3E00
7C3E00
FC3E00
FC3E00
FC7F40
7FFFC0
3F8F80
ENDCHAR
STARTCHAR uni01E0
ENCODING 480
SWIDTH 759 0
DWIDTH 25 0
BBX 25 35 0 0
BITMAP
01FFC000
01FFC000
01FFC000
00000000
000C0000
001E0000
001E0000
001E0000
000C0000
00000000
001C0000
001C0000
001E0000
003E0000
003F0000
007F0000
007F8000
007F8000
00FF8000
00CFC000
01CFC000
018FC000
0187E000
0387E000
0307F000
0703F000
07FFF000
07FFF800
0E01F800
0C01FC00
1C00FC00
1C00FE00
3E00FE00
FF83FF80
FF83FF80
ENDCHAR
STARTCHAR uni01E1
ENCODING 481
SWIDTH 611 0
DWIDTH 20 0
BBX 18 26 1 0
BITMAP
1FFC00
1FFC00
1FFC00
000000
018000
03C000
03C000
03C000
018000
000000
0FF000
3FFC00
787E00
7C3E00
7C3E00
383E00
003E00
03FE00
1FBE00
7E3E00
7C3E00
FC3E00
FC3E00
FC7F40
7FFFC0
3F8F80
ENDCHAR
STARTCHAR uni01E2
ENCODING 482
SWIDTH 981 0
DWIDTH 33 0
BBX 31 29 -1 0
BITMAP
000FFE00
000FFE00
000FFE00
00000000
01FFFFFE
01FFFFFE
007BF07E
003BF03E
0033F01E
0033F00E
0073F006
0063F0C6
00E3F0C6
00C3F1C2
01C3F1C0
0183F3C0
0383FFC0
0303FFC0
07FFF3C0
07FFF1C0
0E03F0C6
0E03F0C6
0C03F0C6
1C03F00E
1803F00E
3803F01E
7C03F07E
FF1FFFFE
FF1FFFFE
ENDCHAR
STARTCHAR uni01E3
ENCODING 483
SWIDTH 870 0
DWIDTH 28 0
BBX 26 20 1 0
BITMAP
01FFC000
01FFC000
01FFC000
00000000
07E0F800
1E7BDE00
383F0F00
7C3F0F80
7C3E0780
783E07C0
31FE07C0
0FFFFFC0
3FFFFFC0
7E3E0000
FC3E0000
F83F00C0
F87F0180
FCEF8380
7FC7FF00
3F01FC00
ENDCHAR
STARTCHAR uni01E4
ENCODING 484
SWIDTH 833 0
DWIDTH 26 0
BBX 28 25 1 0
BITMAP
007E0C00
03FFDC00
07C1FC00
0F807C00
1F003C00
3F001C00
7E001C00
7E000C00
FE000C00
FE000400
FE000000
FC000000
FC000000
FC000000
FC07FF80
FC07FF80
FC007C00
FE007C00
7E007C00
7E00FFF0
3F00FFF0
1F00FFF0
0F81DC00
07FF1C00
00FC0C00
ENDCHAR
STARTCHAR uni01E5
ENCODING 485
SWIDTH 611 0
DWIDTH 20 0
BBX 20 25 1 -7
BITMAP
0001E0
0003F0
07FFF0
1F7CE0
3E3E00
7C1F00
7C1F00
7C1F00
7C1F00
7C1F00
3E3E00
1F7E00
1FF800
7C0000
F80000
FFFC00
FFFF00
FFFFF0
FFFFF0
FFFFF0
F00780
F00780
F80F00
7FFE00
0FF000
ENDCHAR
STARTCHAR Gcaron
ENCODING 486
SWIDTH 833 0
DWIDTH 26 0
BBX 25 31 1 0
BITMAP
01C1C000
00E38000
00770000
003E0000
001C0000
00000000
007E0C00
03FFDC00
07C1FC00
0F807C00
1F003C00
3F001C00
7E001C00
7E000C00
FE000C00
FE000400
FE000000
FC000000
FC000000
FC000000
FC07FF80
FC07FF80
FC007C00
FE007C00
7E007C00
7E007C00
3F00FC00
1F00FC00
0F81DC00
07FF1C00
00FC0C00
ENDCHAR
STARTCHAR gcaron
ENCODING 487
SWIDTH 611 0
DWIDTH 20 0
BBX 20 31 1 -7
BITMAP
070700
038E00
01DC00
00F800
007000
000000
0001E0
0003F0
07FFF0
1F7CE0
3E3E00
7C1F00
7C1F00
7C1F00
7C1F00
7C1F00
3E3E00
1F7E00
1FF800
7C0000
F80000
FFFC00
FFFF00
3FFF00
1FFF80
7FFF80
F00780
F00780
F80F00
7FFE00
0FF000
ENDCHAR
STARTCHAR uni01E8
ENCODING 488
SWIDTH 815 0
DWIDTH 27 0
BBX 25 31 1 0
BITMAP
03838000
01C70000
00EE0000
007C0000
00380000
00000000
FFF3FF80
FFF3FF80
1F807E00
1F807800
1F80F000
1F81E000
1F81C000
1F838000
1F870000
1F8F0000
1F9F0000
1FBF8000
1FFFC000
1FEFC000
1FEFE000
1FC7E000
1F87F000
1F83F800
1F81F800
1F81FC00
1F80FC00
1F80FE00
1F80FF00
FFF3FF80
FFF3FF80
ENDCHAR
STARTCHAR uni01E9
ENCODING 489
SWIDTH 667 0
DWIDTH 22 0
BBX 20 31 1 0
BITMAP
707000
38E000
1DC000
0F8000
070000
000000
FE0000
FE0000
3E0000
3E0000
3E0000
3E0000
3E0000
3E0000
3E0000
3E3FE0
3E3FE0
3E0F00
3E0E00
3E3C00
3E7000
3EF800
3FFC00
3FFE00
3F7E00
3E3F00
3E1F80
3E1FC0
3E0FE0
FFBFF0
FFBFF0
ENDCHAR
STARTCHAR uni01EA
ENCODING 490
SWIDTH 833 0
DWIDTH 26 0
BBX 24 31 1 -6
BITMAP
007E00
03FFC0
0FC1F0
1F80F8
3F00FC
3E007C
7E007E
7E007E
FC003F
FC003F
FC003F
FC003F
FC003F
FC003F
FC003F
FC003F
FC003F
7E007E
7E007E
3E007C
3F00FC
1F80F8
0FC1F0
03FFC0
007E00
001800
003800
007000
007200
007E00
003C00
ENDCHAR
STARTCHAR uni01EB
ENCODING 491
SWIDTH 611 0
DWIDTH 19 0
BBX 17 22 1 -6
BITMAP
03E000
0FF800
3E3E00
7C1F00
7C1F00
F80F80
F80F80
F80F80
F80F80
F80F80
F80F80
7C1F00
7C1F00
3E3E00
0FF800
03E000
00C000
01C000
038000
039000
03F000
01E000
ENDCHAR
STARTCHAR uni01EC
ENCODING 492
SWIDTH 833 0
DWIDTH 26 0
BBX 24 35 1 -6
BITMAP
03FF80
03FF80
03FF80
000000
007E00
03FFC0
0FC1F0
1F80F8
3F00FC
3E007C
7E007E
7E007E
FC003F
FC003F
FC003F
FC003F
FC003F
FC003F
FC003F
FC003F
FC003F
7E007E
7E007E
3E007C
3F00FC
1F80F8
0FC1F0
03FFC0
007E00
001800
003800
007000
007200
007E00
003C00
ENDCHAR
STARTCHAR uni01ED
ENCODING 493
SWIDTH 611 0
DWIDTH 19 0
BBX 17 26 1 -6
BITMAP
1FFC00
1FFC00
1FFC00
000000
03E000
0FF800
3E3E00
7C1F00
7C1F00
F80F80
F80F80
F80F80
F80F80
F80F80
F80F80
7C1F00
7C1F00
3E3E00
0FF800
03E000
00C000
01C000
038000
039000
03F000
01E000
ENDCHAR
STARTCHAR uni01F0
ENCODING 496
SWIDTH 352 0
DWIDTH 12 0
BBX 14 29 -3 -7
BITMAP
1C1C
0E38
0770
03E0
01C0
0000
07F0
07F0
01F0
01F0
01F0
01F0
01F0
01F0
01F0
01F0
01F0
01F0
01F0
01F0
01F0
01F0
01F0
71F0
F9E0
F9E0
FBC0
7F80
1E00
ENDCHAR
STARTCHAR uni01F4
ENCODING 500
SWIDTH 833 0
DWIDTH 26 0
BBX 25 32 1 0
BITMAP
00030000
00078000
000F8000
001F0000
003C0000
00300000
00000000
007E0C00
03FFDC00
07C1FC00
0F807C00
1F003C00
3F001C00
7E001C00
7E000C00
FE000C00
FE000400
FE000000
FC000000
FC000000
FC000000
FC07FF80
FC07FF80
FC007C00
FE007C00
7E007C00
7E007C00
3F00FC00
1F00FC00
0F81DC00
07FF1C00
00FC0C00
ENDCHAR
STARTCHAR uni01F5
ENCODING 501
SWIDTH 611 0
DWIDTH 20 0
BBX 20 32 1 -7
BITMAP
000C00
001E00
003E00
007C00
00F000
00C000
000000
0001E0
0003F0
07FFF0
1F7CE0
3E3E00
7C1F00
7C1F00
7C1F00
7C1F00
7C1F00
3E3E00
1F7E00
1FF800
7C0000
F80000
FFFC00
FFFF00
3FFF00
1FFF80
7FFF80
F00780
F00780
F80F00
7FFE00
0FF000
ENDCHAR
STARTCHAR uni01F8
ENCODING 504
SWIDTH 833 0
DWIDTH 27 0
BBX 27 32 0 0
BITMAP
00600000
00F00000
00F80000
007C0000
001E0000
00060000
00000000
FF807FE0
FFC07FE0
3FE00F00
0FE00600
0FF00600
0FF80600
0FFC0600
0DFE0600
0CFE0600
0CFF0600
0C7F8600
0C3FC600
0C1FE600
0C0FE600
0C0FF600
0C07FE00
0C03FE00
0C01FE00
0C00FE00
0C007E00
0C007E00
0C003E00
1E001E00
FFC00E00
FFC00600
ENDCHAR
STARTCHAR uni01F9
ENCODING 505
SWIDTH 685 0
DWIDTH 22 0
BBX 20 23 1 0
BITMAP
030000
078000
07C000
03E000
00F000
003000
000000
FE3E00
FEFF80
3FFF80
3F8FC0
3F07C0
3E07C0
3E07C0
3E07C0
3E07C0
3E07C0
3E07C0
3E07C0
3E07C0
3E07C0
FF9FF0
FF9FF0
ENDCHAR
STARTCHAR Aringacute
ENCODING 506
SWIDTH 759 0
DWIDTH 25 0
BBX 25 40 0 0
BITMAP
00030000
00078000
000F8000
001F0000
003C0000
00300000
00000000
003E0000
00770000
00630000
00630000
00770000
003E0000
00000000
00000000
001C0000
001C0000
001E0000
003E0000
003F0000
007F0000
007F8000
007F8000
00FF8000
00CFC000
01CFC000
018FC000
0187E000
0387E000
0307F000
0703F000
07FFF000
07FFF800
0E01F800
0C01FC00
1C00FC00
1C00FE00
3E00FE00
FF83FF80
FF83FF80
ENDCHAR
STARTCHAR aringacute
ENCODING 507
SWIDTH 611 0
DWIDTH 20 0
BBX 18 30 1 0
BITMAP
003000
007800
00F800
01F000
03C000
030000
000000
03E000
077000
063000
063000
077000
03E000
000000
0FF000
3FFC00
783E00
7C3E00
7C3E00
383E00
003E00
03FE00
1FBE00
7E3E00
7C3E00
FC3E00
FC3E00
FC7F40
7FFFC0
3F8F80
ENDCHAR
STARTCHAR AEacute
ENCODING 508
SWIDTH 981 0
DWIDTH 33 0
BBX 31 32 -1 0
BITMAP
00000C00
00001E00
00003E00
00007C00
0000F000
0000C000
00000000
01FFFFFE
01FFFFFE
007BF07E
003BF03E
0033F01E
0033F00E
0073F006
0063F0C6
00E3F0C6
00C3F1C2
01C3F1C0
0183F3C0
0383FFC0
0303FFC0
07FFF3C0
07FFF1C0
0E03F0C6
0E03F0C6
0C03F0C6
1C03F00E
1803F00E
3803F01E
7C03F07E
FF1FFFFE
FF1FFFFE
ENDCHAR
STARTCHAR aeacute
ENCODING 509
SWIDTH 870 0
DWIDTH 28 0
BBX 26 23 1 0
BITMAP
00018000
0003C000
0007C000
000F8000
001E0000
00180000
00000000
07E0F800
1E7BDE00
383F0F00
7C3F0F80
7C3E0780
783E07C0
31FE07C0
0FFFFFC0
3FFFFFC0
7E3E0000
FC3E0000
F83F00C0
F87F0180
FCEF8380
7FC7FF00
3F01FC00
ENDCHAR
STARTCHAR Oslashacute
ENCODING 510
SWIDTH 833 0
DWIDTH 26 0
BBX 24 34 1 -1
BITMAP
000300
000780
000F80
001F00
003C00
003000
000000
00000C
007E18
03FFF8
07C3F0
1F80F8
1F00F8
3E00FC
7E01FE
7E037E
FE077F
FC063F
FC0C3F
FC1C3F
FC183F
FC303F
FC603F
FCE03F
FEC07F
7F807E
7F807E
3F007C
1F00F8
1F80F8
0FC1E0
1BFFC0
307E00
300000
ENDCHAR
STARTCHAR oslashacute
ENCODING 511
SWIDTH 611 0
DWIDTH 19 0
BBX 17 29 1 -3
BITMAP
001800
003C00
007C00
00F800
01E000
018000
000000
000200
000600
000C00
03EC00
0FF800
3E3E00
7C3F00
7C6F00
F84F80
F8CF80
F88F80
F98F80
FB0F80
FA0F80
7E1F00
7C1F00
3E3E00
1FF800
1BE000
300000
300000
200000
ENDCHAR
STARTCHAR uni0200
ENCODING 512
SWIDTH 759 0
DWIDTH 25 0
BBX 25 33 0 0
BITMAP
00C60000
00E70000
00E70000
00E70000
00738000
00318000
00318000
00000000
001C0000
001C0000
001E0000
003E0000
003F0000
007F0000
007F8000
007F8000
00FF8000
00CFC000
01CFC000
018FC000
0187E000
0387E000
0307F000
0703F000
07FFF000
07FFF800
0E01F800
0C01FC00
1C00FC00
1C00FE00
3E00FE00
FF83FF80
FF83FF80
ENDCHAR
STARTCHAR uni0201
ENCODING 513
SWIDTH 611 0
DWIDTH 20 0
BBX 18 24 1 0
BITMAP
18C000
1CE000
1CE000
1CE000
0E7000
063000
063000
000000
0FF000
3FFC00
787E00
7C3E00
7C3E00
383E00
003E00
03FE00
1FBE00
7E3E00
7C3E00
FC3E00
FC3E00
FC7F40
7FFFC0
3F8F80
ENDCHAR
STARTCHAR uni0202
ENCODING 514
SWIDTH 759 0
DWIDTH 25 0
BBX 25 32 0 0
BITMAP
001E0000
007F8000
007F8000
00E1C000
00C0C000
00C0C000
00000000
001C0000
001C0000
001E0000
003E0000
003F0000
007F0000
007F8000
007F8000
00FF8000
00CFC000
01CFC000
018FC000
0187E000
0387E000
0307F000
0703F000
07FFF000
07FFF800
0E01F800
0C01FC00
1C00FC00
1C00FE00
3E00FE00
FF83FF80
FF83FF80
ENDCHAR
STARTCHAR uni0203
ENCODING 515
SWIDTH 611 0
DWIDTH 20 0
BBX 18 23 1 0
BITMAP
03C000
0FF000
0FF000
1C3800
181800
181800
000000
0FF000
3FFC00
787E00
7C3E00
7C3E00
383E00
003E00
03FE00
1FBE00
7E3E00
7C3E00
FC3E00
FC3E00
FC7F40
7FFFC0
3F8F80
ENDCHAR
STARTCHAR uni0204
ENCODING 516
SWIDTH 759 0
DWIDTH 23 0
BBX 21 33 1 0
BITMAP
031800
039C00
039C00
039C00
01CE00
00C600
00C600
000000
FFFFF8
FFFFF8
1F81F8
1F80F8
1F8078
1F8038
1F8038
1F8618
1F8618
1F8E00
1F8E00
1F9E00
1FFE00
1FFE00
1F9E00
1F8E00
1F8618
1F8618
1F8618
1F8038
1F8038
1F8078
1F81F8
FFFFF8
FFFFF8
ENDCHAR
STARTCHAR uni0205
ENCODING 517
SWIDTH 574 0
DWIDTH 18 0
BBX 16 24 1 0
BITMAP
18C0
1CE0
1CE0
1CE0
0E70
0630
0630
0000
03E0
0FF8
3C3C
781E
781E
F81F
F81F
FFFF
FFFF
F800
F800
FC03
7C06
3F0E
1FFC
07F0
ENDCHAR
STARTCHAR uni0206
ENCODING 518
SWIDTH 759 0
DWIDTH 23 0
BBX 21 32 1 0
BITMAP
007800
01FE00
01FE00
038700
030300
030300
000000
FFFFF8
FFFFF8
1F81F8
1F80F8
1F8078
1F8038
1F8038
1F8618
1F8618
1F8E00
1F8E00
1F9E00
1FFE00
1FFE00
1F9E00
1F8E00
1F8618
1F8618
1F8618
1F8038
1F8038
1F8078
1F81F8
FFFFF8
FFFFF8
ENDCHAR
STARTCHAR uni0207
ENCODING 519
SWIDTH 574 0
DWIDTH 18 0
BBX 16 23 1 0
BITMAP
03C0
0FF0
0FF0
1C38
1818
1818
0000
03E0
0FF8
3C3C
781E
781E
F81F
F81F
FFFF
FFFF
F800
F800
FC03
7C06
3F0E
1FFC
07F0
ENDCHAR
STARTCHAR uni0208
ENCODING 520
SWIDTH 444 0
DWIDTH 14 0
BBX 12 33 1 0
BITMAP
6300
7380
7380
7380
39C0
18C0
18C0
0000
FFF0
FFF0
1F80
1F80
1F80
1F80
1F80
1F80
1F80
1F80
1F80
1F80
1F80
1F80
1F80
1F80
1F80
1F80
1F80
1F80
1F80
1F80
1F80
FFF0
FFF0
ENDCHAR
STARTCHAR uni0209
ENCODING 521
SWIDTH 370 0
DWIDTH 11 0
BBX 10 24 0 0
BITMAP
C600
E700
E700
E700
7380
3180
3180
0000
7F00
7F00
1F00
1F00
1F00
1F00
1F00
1F00
1F00
1F00
1F00
1F00
1F00
1F00
7FC0
7FC0
ENDCHAR
STARTCHAR uni020A
ENCODING 522
SWIDTH 444 0
DWIDTH 14 0
BBX 12 32 1 0
BITMAP
0F00
3FC0
3FC0
70E0
6060
6060
0000
FFF0
FFF0
1F80
1F80
1F80
1F80
1F80
1F80
1F80
1F80
1F80
1F80
1F80
1F80
1F80
1F80
1F80
1F80
1F80
1F80
1F80
1F80
1F80
FFF0
FFF0
ENDCHAR
STARTCHAR uni020B
ENCODING 523
SWIDTH 370 0
DWIDTH 11 0
BBX 10 23 0 0
BITMAP
1E00
7F80
7F80
E1C0
C0C0
C0C0
0000
7F00
7F00
1F00
1F00
1F00
1F00
1F00
1F00
1F00
1F00
1F00
1F00
1F00
1F00
7FC0
7FC0
ENDCHAR
STARTCHAR uni020C
ENCODING 524
SWIDTH 833 0
DWIDTH 26 0
BBX 24 33 1 0
BITMAP
018C00
01CE00
01CE00
01CE00
00E700
006300
006300
000000
007E00
03FFC0
0FC1F0
1F80F8
3F00FC
3E007C
7E007E
7E007E
FC003F
FC003F
FC003F
FC003F
FC003F
FC003F
FC003F
FC003F
FC003F
7E007E
7E007E
3E007C
3F00FC
1F80F8
0FC1F0
03FFC0
007E00
ENDCHAR
STARTCHAR uni020D
ENCODING 525
SWIDTH 611 0
DWIDTH 19 0
BBX 17 24 1 0
BITMAP
18C000
1CE000
1CE000
1CE000
0E7000
063000
063000
000000
03E000
0FF800
3E3E00
7C1F00
7C1F00
F80F80
F80F80
F80F80
F80F80
F80F80
F80F80
7C1F00
7C1F00
3E3E00
0FF800
03E000
ENDCHAR
STARTCHAR uni020E
ENCODING 526
SWIDTH 833 0
DWIDTH 26 0
BBX 24 32 1 0
BITMAP
003C00
00FF00
00FF00
01C380
018180
018180
000000
007E00
03FFC0
0FC1F0
1F80F8
3F00FC
3E007C
7E007E
7E007E
FC003F
FC003F
FC003F
FC003F
FC003F
FC003F
FC003F
FC003F
FC003F
7E007E
7E007E
3E007C
3F00FC
1F80F8
0FC1F0
03FFC0
007E00
ENDCHAR
STARTCHAR uni020F
ENCODING 527
SWIDTH 611 0
DWIDTH 19 0
BBX 17 23 1 0
BITMAP
01E000
07F800
07F800
0E1C00
0C0C00
0C0C00
000000
03E000
0FF800
3E3E00
7C1F00
7C1F00
F80F80
F80F80
F80F80
F80F80
F80F80
F80F80
7C1F00
7C1F00
3E3E00
0FF800
03E000
ENDCHAR
STARTCHAR uni0210
ENCODING 528
SWIDTH 815 0
DWIDTH 27 0
BBX 25 33 1 0
BITMAP
03180000
039C0000
039C0000
039C0000
01CE0000
00C60000
00C60000
00000000
FFFF8000
FFFFF000
1F83F800
1F81F800
1F80FC00
1F80FC00
1F80FC00
1F80FC00
1F80FC00
1F81F800
1F81F000
1F87C000
1FFF0000
1FFFC000
1F87E000
1F83E000
1F83F000
1F83F000
1F83F000
1F83F980
1F81F980
1F81FB00
1F81FF00
FFF0FE00
FFF07C00
ENDCHAR
STARTCHAR uni0211
ENCODING 529
SWIDTH 519 0
DWIDTH 16 0
BBX 15 24 1 0
BITMAP
18C0
1CE0
1CE0
1CE0
0E70
0630
0630
0000
FC7C
FCFE
3DFE
3DBE
3F3E
3E1C
3E00
3E00
3E00
3E00
3E00
3E00
3E00
3E00
FFC0
FFC0
ENDCHAR
STARTCHAR uni0212
ENCODING 530
SWIDTH 815 0
DWIDTH 27 0
BBX 25 32 1 0
BITMAP
003C0000
00FF0000
00FF0000
01C38000
01818000
01818000
00000000
FFFF8000
FFFFF000
1F83F800
1F81F800
1F80FC00
1F80FC00
1F80FC00
1F80FC00
1F80FC00
1F81F800
1F81F000
1F87C000
1FFF0000
1FFFC000
1F87E000
1F83E000
1F83F000
1F83F000
1F83F000
1F83F980
1F81F980
1F81FB00
1F81FF00
FFF0FE00
FFF07C00
ENDCHAR
STARTCHAR uni0213
ENCODING 531
SWIDTH 519 0
DWIDTH 16 0
BBX 15 23 1 0
BITMAP
03C0
0FF0
0FF0
1C38
1818
1818
0000
FC7C
FCFE
3DFE
3DBE
3F3E
3E1C
3E00
3E00
3E00
3E00
3E00
3E00
3E00
3E00
FFC0
FFC0
ENDCHAR
STARTCHAR uni0214
ENCODING 532
SWIDTH 833 0
DWIDTH 28 0
BBX 26 33 1 0
BITMAP
018C0000
01CE0000
01CE0000
01CE0000
00E70000
00630000
00630000
00000000
FFF0FFC0
FFF0FFC0
1F801E00
1F800C00
1F800C00
1F800C00
1F800C00
1F800C00
1F800C00
1F800C00
1F800C00
1F800C00
1F800C00
1F800C00
1F800C00
1F800C00
1F800C00
1F800C00
1F800C00
1F801C00
0FC01800
0FE03800
07F8F000
03FFE000
00FFC000
ENDCHAR
STARTCHAR uni0215
ENCODING 533
SWIDTH 685 0
DWIDTH 22 0
BBX 20 24 1 0
BITMAP
063000
073800
073800
073800
039C00
018C00
018C00
000000
FE1FC0
FE1FC0
3E07C0
3E07C0
3E07C0
3E07C0
3E07C0
3E07C0
3E07C0
3E07C0
3E0FC0
3E0FC0
3F1FC0
1FFFC0
1FF7F0
07C7F0
ENDCHAR
STARTCHAR uni0216
ENCODING 534
SWIDTH 833 0
DWIDTH 28 0
BBX 26 32 1 0
BITMAP
003C0000
00FF0000
00FF0000
01C38000
01818000
01818000
00000000
FFF0FFC0
FFF0FFC0
1F801E00
1F800C00
1F800C00
1F800C00
1F800C00
1F800C00
1F800C00
1F800C00
1F800C00
1F800C00
1F800C00
1F800C00
1F800C00
1F800C00
1F800C00
1F800C00
1F800C00
1F801C00
0FC01800
0FE03800
07F8F000
03FFE000
00FFC000
ENDCHAR
STARTCHAR uni0217
ENCODING 535
SWIDTH 685 0
DWIDTH 22 0
BBX 20 23 1 0
BITMAP
00F000
03FC00
03FC00
070E00
060600
060600
000000
FE1FC0
FE1FC0
3E07C0
3E07C0
3E07C0
3E07C0
3E07C0
3E07C0
3E07C0
3E07C0
3E0FC0
3E0FC0
3F1FC0
1FFFC0
1FF7F0
07C7F0
ENDCHAR
STARTCHAR Scommaaccent
ENCODING 536
SWIDTH 667 0
DWIDTH 21 0
BBX 19 37 1 -12
BITMAP
03F0C0
1FFDC0
3C1FC0
7807C0
7003C0
F001C0
F000C0
F800C0
FF00C0
FFF000
7FFE00
7FFF00
3FFF80
0FFFC0
07FFE0
407FE0
6007E0
6003E0
7001E0
7801E0
7801C0
7E03C0
7F0780
67FF00
61FC00
000000
01E000
03E000
03F000
03F000
03F000
01F000
007000
006000
00C000
01C000
038000
ENDCHAR
STARTCHAR scommaaccent
ENCODING 537
SWIDTH 500 0
DWIDTH 16 0
BBX 14 28 1 -12
BITMAP
0FD8
3CF8
7038
F018
FE08
FFC0
FFF0
7FF8
3FF8
0FFC
C0FC
C03C
E038
F878
FFF0
CFC0
0000
0780
0F80
0FC0
0FC0
0FC0
07C0
01C0
0180
0300
0700
0E00
ENDCHAR
STARTCHAR Tcommaaccent
ENCODING 538
SWIDTH 722 0
DWIDTH 23 0
BBX 21 37 1 -12
BITMAP
FFFFF8
FFFFF8
F1F878
E1F838
E1F838
C1F818
C1F818
C1F818
81F808
81F808
01F800
01F800
01F800
01F800
01F800
01F800
01F800
01F800
01F800
01F800
01F800
01F800
01F800
0FFF80
0FFF80
000000
00F000
01F000
01F800
01F800
01F800
00F800
003800
003000
006000
00E000
01C000
ENDCHAR
STARTCHAR tcommaaccent
ENCODING 539
SWIDTH 426 0
DWIDTH 14 0
BBX 12 35 1 -12
BITMAP
0600
0600
0E00
0E00
0E00
1E00
3E00
FFE0
FFE0
3E00
3E00
3E00
3E00
3E00
3E00
3E00
3E30
3E30
3E30
3E60
3FE0
1FC0
0F80
0000
0F00
1F00
1F80
1F80
1F80
0F80
0380
0300
0600
0E00
1C00
ENDCHAR
STARTCHAR uni021E
ENCODING 542
SWIDTH 870 0
DWIDTH 28 0
BBX 26 31 1 0
BITMAP
00E0E000
0071C000
003B8000
001F0000
000E0000
00000000
FFF3FFC0
FFF3FFC0
1F807E00
1F807E00
1F807E00
1F807E00
1F807E00
1F807E00
1F807E00
1F807E00
1F807E00
1F807E00
1FFFFE00
1FFFFE00
1F807E00
1F807E00
1F807E00
1F807E00
1F807E00
1F807E00
1F807E00
1F807E00
1F807E00
FFF3FFC0
FFF3FFC0
ENDCHAR
STARTCHAR uni021F
ENCODING 543
SWIDTH 685 0
DWIDTH 22 0
BBX 20 31 1 0
BITMAP
707000
38E000
1DC000
0F8000
070000
000000
FE0000
FE0000
3E0000
3E0000
3E0000
3E0000
3E0000
3E0000
3E0000
3E3E00
3EFF80
3FFF80
3F8FC0
3F07C0
3F07C0
3E07C0
3E07C0
3E07C0
3E07C0
3E07C0
3E07C0
3E07C0
3E07C0
FF9FF0
FF9FF0
ENDCHAR
STARTCHAR uni0226
ENCODING 550
SWIDTH 759 0
DWIDTH 25 0
BBX 25 31 0 0
BITMAP
000C0000
001E0000
001E0000
001E0000
000C0000
00000000
001C0000
001C0000
001E0000
003E0000
003F0000
007F0000
007F8000
007F8000
00FF8000
00CFC000
01CFC000
018FC000
0187E000
0387E000
0307F000
0703F000
07FFF000
07FFF800
0E01F800
0C01FC00
1C00FC00
1C00FE00
3E00FE00
FF83FF80
FF83FF80
ENDCHAR
STARTCHAR uni0227
ENCODING 551
SWIDTH 611 0
DWIDTH 20 0
BBX 18 22 1 0
BITMAP
018000
03C000
03C000
03C000
018000
000000
0FF000
3FFC00
787E00
7C3E00
7C3E00
383E00
003E00
03FE00
1FBE00
7E3E00
7C3E00
FC3E00
FC3E00
FC7F40
7FFFC0
3F8F80
ENDCHAR
STARTCHAR uni0228
ENCODING 552
SWIDTH 759 0
DWIDTH 23 0
BBX 21 32 1 -7
BITMAP
FFFFF8
FFFFF8
1F81F8
1F80F8
1F8078
1F8038
1F8038
1F8618
1F8618
1F8E00
1F8E00
1F9E00
1FFE00
1FFE00
1F9E00
1F8E00
1F8618
1F8618
1F8618
1F8038
1F8038
1F8078
1F81F8
FFFFF8
FFFFF8
003000
006000
00F800
001C00
001C00
01B800
00F000
ENDCHAR
STARTCHAR uni0229
ENCODING 553
SWIDTH 574 0
DWIDTH 18 0
BBX 16 23 1 -7
BITMAP
03E0
0FF8
3C3C
781E
781E
F81F
F81F
FFFF
FFFF
F800
F800
FC03
7C06
3F0E
1FFC
07F0
0180
0300
07C0
00E0
00E0
0DC0
0780
ENDCHAR
STARTCHAR uni022A
ENCODING 554
SWIDTH 833 0
DWIDTH 26 0
BBX 24 36 1 0
BITMAP
01FFC0
01FFC0
01FFC0
000000
00C180
01E3C0
01E3C0
01E3C0
00C180
000000
000000
007E00
03FFC0
0FC1F0
1F80F8
3F00FC
3E007C
7E007E
7E007E
FC003F
FC003F
FC003F
FC003F
FC003F
FC003F
FC003F
FC003F
FC003F
7E007E
7E007E
3E007C
3F00FC
1F80F8
0FC1F0
03FFC0
007E00
ENDCHAR
STARTCHAR uni022B
ENCODING 555
SWIDTH 611 0
DWIDTH 19 0
BBX 17 27 1 0
BITMAP
1FFC00
1FFC00
1FFC00
000000
0C1800
1E3C00
1E3C00
1E3C00
0C1800
000000
000000
03E000
0FF800
3E3E00
7C1F00
7C1F00
F80F80
F80F80
F80F80
F80F80
F80F80
F80F80
7C1F00
7C1F00
3E3E00
0FF800
03E000
ENDCHAR
STARTCHAR uni022C
ENCODING 556
SWIDTH 833 0
DWIDTH 26 0
BBX 24 35 1 0
BITMAP
01FFC0
01FFC0
01FFC0
000000
0070C0
00FFC0
01FF80
018700
000000
000000
007E00
03FFC0
0FC1F0
1F80F8
3F00FC
3E007C
7E007E
7E007E
FC003F
FC003F
FC003F
FC003F
FC003F
FC003F
FC003F
FC003F
FC003F
7E007E
7E007E
3E007C
3F00FC
1F80F8
0FC1F0
03FFC0
007E00
ENDCHAR
STARTCHAR uni022D
ENCODING 557
SWIDTH 611 0
DWIDTH 19 0
BBX 17 26 1 0
BITMAP
0FFE00
0FFE00
0FFE00
000000
038600
07FE00
0FFC00
0C3800
000000
000000
03E000
0FF800
3E3E00
7C1F00
7C1F00
F80F80
F80F80
F80F80
F80F80
F80F80
F80F80
7C1F00
7C1F00
3E3E00
0FF800
03E000
ENDCHAR
STARTCHAR uni022E
ENCODING 558
SWIDTH 833 0
DWIDTH 26 0
BBX 24 31 1 0
BITMAP
001800
003C00
003C00
003C00
001800
000000
007E00
03FFC0
0FC1F0
1F80F8
3F00FC
3E007C
7E007E
7E007E
FC003F
FC003F
FC003F
FC003F
FC003F
FC003F
FC003F
FC003F
FC003F
7E007E
7E007E
3E007C
3F00FC
1F80F8
0FC1F0
03FFC0
007E00
ENDCHAR
STARTCHAR uni022F
ENCODING 559
SWIDTH 611 0
DWIDTH 19 0
BBX 17 22 1 0
BITMAP
00C000
01E000
01E000
01E000
00C000
000000
03E000
0FF800
3E3E00
7C1F00
7C1F00
F80F80
F80F80
F80F80
F80F80
F80F80
F80F80
7C1F00
7C1F00
3E3E00
0FF800
03E000
ENDCHAR
STARTCHAR uni0230
ENCODING 560
SWIDTH 833 0
DWIDTH 26 0
BBX 24 35 1 0
BITMAP
01FFC0
01FFC0
01FFC0
000000
001800
003C00
003C00
003C00
001800
000000
007E00
03FFC0
0FC1F0
1F80F8
3F00FC
3E007C
7E007E
7E007E
FC003F
FC003F
FC003F
FC003F
FC003F
FC003F
FC003F
FC003F
FC003F
7E007E
7E007E
3E007C
3F00FC
1F80F8
0FC1F0
03FFC0
007E00
ENDCHAR
STARTCHAR uni0231
ENCODING 561
SWIDTH 611 0
DWIDTH 19 0
BBX 17 26 1 0
BITMAP
1FFC00
1FFC00
1FFC00
000000
00C000
01E000
01E000
01E000
00C000
000000
03E000
0FF800
3E3E00
7C1F00
7C1F00
F80F80
F80F80
F80F80
F80F80
F80F80
F80F80
7C1F00
7C1F00
3E3E00
0FF800
03E000
ENDCHAR
STARTCHAR uni0232
ENCODING 562
SWIDTH 722 0
DWIDTH 24 0
BBX 24 29 0 0
BITMAP
03FF80
03FF80
03FF80
000000
FFF1FF
FFF1FF
3F807C
1FC038
1FC070
0FE070
0FE0E0
07F0C0
03F1C0
03F980
01FB80
01FF00
00FF00
007E00
007E00
007E00
007E00
007E00
007E00
007E00
007E00
007E00
007E00
03FFC0
03FFC0
ENDCHAR
STARTCHAR uni0233
ENCODING 563
SWIDTH 611 0
DWIDTH 19 0
BBX 19 27 0 -7
BITMAP
0FFE00
0FFE00
0FFE00
000000
FF8FE0
FF8FE0
3F0380
3F0380
1F0300
1F8700
0F8600
0FC600
07CC00
07EC00
03F800
03F800
01F800
01F000
00F000
00E000
006000
70C000
F8C000
F98000
FF0000
7F0000
3C0000
ENDCHAR
STARTCHAR uni0250
ENCODING 592
SWIDTH 611 0
DWIDTH 20 0
BBX 18 16 1 0
BITMAP
7C7F00
FFFF80
BF8FC0
1F0FC0
1F0FC0
1F0F80
1F1F80
1F7E00
1FF000
1F0000
1F0700
1F0F80
1F0F80
1F8780
0FFF00
03FC00
ENDCHAR
STARTCHAR uni0254
ENCODING 596
SWIDTH 556 0
DWIDTH 17 0
BBX 15 16 1 0
BITMAP
1F80
7FE0
F8F8
F87C
F87C
703E
003E
003E
003E
003E
807E
C07E
C0FC
71F8
3FF0
0FC0
ENDCHAR
STARTCHAR uni0258
ENCODING 600
SWIDTH 574 0
DWIDTH 18 0
BBX 16 16 1 0
BITMAP
07C0
1FF0
3C3C
781E
781E
F81F
F81F
FFFF
FFFF
001F
001F
C03F
603E
70FC
3FF8
0FE0
ENDCHAR
STARTCHAR uni0259
ENCODING 601
SWIDTH 574 0
DWIDTH 18 0
BBX 16 16 1 0
BITMAP
0FE0
3FF8
70FC
603E
C03F
001F
001F
FFFF
FFFF
F81F
F81F
781E
781E
3C3C
1FF0
07C0
ENDCHAR
STARTCHAR uni025F
ENCODING 607
SWIDTH 389 0
DWIDTH 13 0
BBX 15 25 0 -9
BITMAP
0FFE
0FFE
01F0
01F0
01F0
01F0
01F0
01F0
01F0
01F0
01F0
01F0
01F0
01F0
1FFE
1FFE
01F0
01F0
01F0
71F0
F9E0
F9E0
F3C0
7F80
1E00
ENDCHAR
STARTCHAR uni0265
ENCODING 613
SWIDTH 685 0
DWIDTH 22 0
BBX 20 25 1 -9
BITMAP
FF9FF0
FF9FF0
3E07C0
3E07C0
3E07C0
3E07C0
3E07C0
3E07C0
3E07C0
3E07C0
3E0FC0
3E0FC0
3F1FC0
1FFFC0
1FF7C0
07C7C0
0007C0
0007C0
0007C0
0007C0
0007C0
0007C0
0007C0
0007F0
0007F0
ENDCHAR
STARTCHAR uni0275
ENCODING 629
SWIDTH 611 0
DWIDTH 19 0
BBX 17 16 1 0
BITMAP
03E000
0FF800
3E3E00
7C1F00
7C1F00
F80F80
FFFF80
FFFF80
FFFF80
F80F80
F80F80
7C1F00
7C1F00
3E3E00
0FF800
03E000
ENDCHAR
STARTCHAR uni0279
ENCODING 633
SWIDTH 519 0
DWIDTH 16 0
BBX 15 16 1 0
BITMAP
07FE
07FE
00F8
00F8
00F8
00F8
00F8
00F8
00F8
00F8
70F8
F9F8
FB78
FF78
FE7E
7C7E
ENDCHAR
STARTCHAR uni0287
ENCODING 647
SWIDTH 426 0
DWIDTH 14 0
BBX 12 23 1 0
BITMAP
1F00
3F80
7FC0
67C0
C7C0
C7C0
C7C0
07C0
07C0
07C0
07C0
07C0
07C0
07C0
7FF0
7FF0
07C0
0780
0700
0700
0700
0600
0600
ENDCHAR
STARTCHAR uni0288
ENCODING 648
SWIDTH 426 0
DWIDTH 14 0
BBX 19 30 1 -7
BITMAP
060000
060000
0E0000
0E0000
0E0000
1E0000
3E0000
FFE000
FFE000
3E0000
3E0000
3E0000
3E0000
3E0000
3E0000
3E0000
3FF000
01F000
01F000
01F000
01F000
01F000
01F000
01F000
01F1C0
00F3E0
00F3E0
007BE0
003FC0
000F00
ENDCHAR
STARTCHAR uni0289
ENCODING 649
SWIDTH 685 0
DWIDTH 22 0
BBX 20 16 1 0
BITMAP
FE1FC0
FE1FC0
3E07C0
3E07C0
3E07C0
3E07C0
FFFFF0
FFFFF0
FFFFF0
3E07C0
3E0FC0
3E0FC0
3F1FC0
1FFFC0
1FF7F0
07C7F0
ENDCHAR
STARTCHAR uni028C
ENCODING 652
SWIDTH 611 0
DWIDTH 19 0
BBX 19 16 0 0
BITMAP
00E000
01E000
01F000
03F000
03F800
03F800
06FC00
067C00
0C7E00
0C3E00
1C3F00
181F00
381F80
781F80
FE3FE0
FE3FE0
ENDCHAR
STARTCHAR uni028D
ENCODING 653
SWIDTH 889 0
DWIDTH 29 0
BBX 27 16 1 0
BITMAP
00C07000
01E07000
01E0F800
03F0F800
03F1FC00
07F1FC00
06FBFE00
0CFB3E00
0CFF3E00
0C7E3F00
187E1F00
183E1F80
383E0F80
783F0FC0
FEFFBFE0
FEFFBFE0
ENDCHAR
STARTCHAR uni028E
ENCODING 654
SWIDTH 611 0
DWIDTH 19 0
BBX 19 23 0 0
BITMAP
000780
001FC0
001FE0
0033E0
0063E0
0061C0
00C000
00E000
01E000
01F000
03F000
03F800
03F800
06FC00
067C00
0C7E00
0C3E00
1C3F00
181F00
381F80
381F80
FE3FE0
FE3FE0
ENDCHAR
STARTCHAR uni029E
ENCODING 670
SWIDTH 667 0
DWIDTH 22 0
BBX 20 25 1 -9
BITMAP
FFDFF0
FFDFF0
7F07C0
3F87C0
1F87C0
0FC7C0
07EFC0
07FFC0
03FFC0
01F7C0
00E7C0
03C7C0
0707C0
0F07C0
7FC7C0
7FC7C0
0007C0
0007C0
0007C0
0007C0
0007C0
0007C0
0007C0
0007F0
0007F0
ENDCHAR
STARTCHAR uni02BB
ENCODING 699
SWIDTH 241 0
DWIDTH 8 0
BBX 6 12 1 13
BITMAP
0C
1C
38
70
60
E0
F8
FC
FC
FC
7C
78
ENDCHAR
STARTCHAR afii57929
ENCODING 700
SWIDTH 241 0
DWIDTH 8 0
BBX 6 12 1 13
BITMAP
78
FC
FC
FC
FC
7C
1C
18
38
70
E0
C0
ENDCHAR
STARTCHAR afii64937
ENCODING 701
SWIDTH 241 0
DWIDTH 8 0
BBX 6 12 1 13
BITMAP
78
FC
FC
FC
FC
F8
E0
60
70
38
1C
0C
ENDCHAR
STARTCHAR circumflex
ENCODING 710
SWIDTH 333 0
DWIDTH 11 0
BBX 11 5 0 18
BITMAP
0E00
1F00
3B80
71C0
E0E0
ENDCHAR
STARTCHAR caron
ENCODING 711
SWIDTH 333 0
DWIDTH 11 0
BBX 11 5 0 18
BITMAP
E0E0
71C0
3B80
1F00
0E00
ENDCHAR
STARTCHAR uni02C8
ENCODING 712
SWIDTH 241 0
DWIDTH 8 0
BBX 4 11 2 14
BITMAP
60
F0
F0
F0
F0
F0
F0
60
60
60
60
ENDCHAR
STARTCHAR macron
ENCODING 713
SWIDTH 333 0
DWIDTH 11 0
BBX 11 3 0 18
BITMAP
FFE0
FFE0
FFE0
ENDCHAR
STARTCHAR uni02CA
ENCODING 714
SWIDTH 333 0
DWIDTH 11 0
BBX 7 6 2 17
BITMAP
0C
1E
3E
7C
F0
C0
ENDCHAR
STARTCHAR uni02CB
ENCODING 715
SWIDTH 333 0
DWIDTH 11 0
BBX 7 6 2 17
BITMAP
60
F0
F8
7C
1E
06
ENDCHAR
STARTCHAR uni02CD
ENCODING 717
SWIDTH 333 0
DWIDTH 11 0
BBX 11 3 0 -4
BITMAP
FFE0
FFE0
FFE0
ENDCHAR
STARTCHAR uni02CE
ENCODING 718
SWIDTH 333 0
DWIDTH 11 0
BBX 7 6 2 -7
BITMAP
60
F0
F8
7C
1E
06
ENDCHAR
STARTCHAR uni02CF
ENCODING 719
SWIDTH 333 0
DWIDTH 11 0
BBX 7 6 2 -7
BITMAP
0C
1E
3E
7C
F0
C0
ENDCHAR
STARTCHAR breve
ENCODING 728
SWIDTH 333 0
DWIDTH 11 0
BBX 10 6 0 18
BITMAP
C0C0
C0C0
E1C0
7F80
7F80
1E00
ENDCHAR
STARTCHAR dotaccent
ENCODING 729
SWIDTH 333 0
DWIDTH 11 0
BBX 4 5 3 18
BITMAP
60
F0
F0
F0
60
ENDCHAR
STARTCHAR ring
ENCODING 730
SWIDTH 333 0
DWIDTH 11 0
BBX 7 6 2 17
BITMAP
7C
EE
C6
C6
EE
7C
ENDCHAR
STARTCHAR ogonek
ENCODING 731
SWIDTH 333 0
DWIDTH 11 0
BBX 6 6 2 -6
BITMAP
30
70
E0
E4
FC
78
ENDCHAR
STARTCHAR tilde
ENCODING 732
SWIDTH 333 0
DWIDTH 11 0
BBX 11 4 0 18
BITMAP
3860
7FE0
FFC0
C380
ENDCHAR
STARTCHAR hungarumlaut
ENCODING 733
SWIDTH 333 0
DWIDTH 11 0
BBX 9 7 1 17
BITMAP
3180
7380
7380
7380
E700
C600
C600
ENDCHAR
STARTCHAR uni02EE
ENCODING 750
SWIDTH 481 0
DWIDTH 16 0
BBX 13 12 1 13
BITMAP
78F0
FDF8
FDF8
FDF8
FDF8
7CF8
1C38
1830
3870
70E0
E1C0
C180
ENDCHAR
STARTCHAR uni037E
ENCODING 894
SWIDTH 278 0
DWIDTH 9 0
BBX 6 21 2 -5
BITMAP
78
FC
FC
FC
FC
78
00
00
00
00
78
F8
FC
FC
FC
7C
1C
18
30
70
E0
ENDCHAR
STARTCHAR tonos
ENCODING 900
SWIDTH 333 0
DWIDTH 11 0
BBX 7 6 2 17
BITMAP
0C
1E
3E
7C
F0
C0
ENDCHAR
STARTCHAR dieresistonos
ENCODING 901
SWIDTH 333 0
DWIDTH 11 0
BBX 11 12 0 18
BITMAP
0180
03C0
07C0
0F80
1E00
1800
0000
60C0
F1E0
F1E0
F1E0
60C0
ENDCHAR
STARTCHAR anoteleia
ENCODING 903
SWIDTH 278 0
DWIDTH 9 0
BBX 6 6 1 5
BITMAP
78
FC
FC
FC
FC
78
ENDCHAR
STARTCHAR mu
ENCODING 956
SWIDTH 685 0
DWIDTH 22 0
BBX 20 23 1 -7
BITMAP
FE3FC0
FE3FC0
3E07C0
3E07C0
3E07C0
3E07C0
3E07C0
3E07C0
3E07C0
3E07C0
3E0FC0
3E0FC0
3F1FC0
3FFFC0
3FF7F0
37C7F0
300000
300000
780000
780000
780000
780000
300000
ENDCHAR
STARTCHAR uni1E00
ENCODING 7680
SWIDTH 759 0
DWIDTH 25 0
BBX 25 32 0 -7
BITMAP
001C0000
001C0000
001E0000
003E0000
003F0000
007F0000
007F8000
007F8000
00FF8000
00CFC000
01CFC000
018FC000
0187E000
0387E000
0307F000
0703F000
07FFF000
07FFF800
0E01F800
0C01FC00
1C00FC00
1C00FE00
3E00FE00
FF83FF80
FF83FF80
00000000
001F0000
003B8000
00318000
00318000
003B8000
001F0000
ENDCHAR
STARTCHAR uni1E01
ENCODING 7681
SWIDTH 611 0
DWIDTH 20 0
BBX 18 23 1 -7
BITMAP
0FF000
3FFC00
787E00
7C3E00
7C3E00
383E00
003E00
03FE00
1FBE00
7E3E00
7C3E00
FC3E00
FC3E00
FC7F40
7FFFC0
3F8F80
000000
03E000
077000
063000
063000
077000
03E000
ENDCHAR
STARTCHAR uni1E02
ENCODING 7682
SWIDTH 778 0
DWIDTH 25 0
BBX 23 31 1 0
BITMAP
003000
007800
007800
007800
003000
000000
FFFF80
FFFFE0
1F83F0
1F81F8
1F81F8
1F80FC
1F80FC
1F80FC
1F80F8
1F81F8
1F81F0
1F87E0
1FFF00
1FFFC0
1F83F0
1F80FC
1F80FC
1F80FE
1F807E
1F80FE
1F80FC
1F80FC
1F83F8
FFFFF0
FFFFC0
ENDCHAR
STARTCHAR uni1E03
ENCODING 7683
SWIDTH 648 0
DWIDTH 21 0
BBX 19 31 0 0
BITMAP
060000
0F0000
0F0000
0F0000
060000
000000
FF0000
FF0000
1F0000
1F0000
1F0000
1F0000
1F0000
1F0000
1F0000
1F3F00
1FFF80
1FCFC0
1F87C0
1F03E0
1F03E0
1F03E0
1F03E0
1F03E0
1F03E0
1F03E0
1F03C0
1F07C0
1F8F80
1DFF00
187C00
ENDCHAR
STARTCHAR uni1E04
ENCODING 7684
SWIDTH 778 0
DWIDTH 25 0
BBX 23 31 1 -6
BITMAP
FFFF80
FFFFE0
1F83F0
1F81F8
1F81F8
1F80FC
1F80FC
1F80FC
1F80F8
1F81F8
1F81F0
1F87E0
1FFF00
1FFFC0
1F83F0
1F80FC
1F80FC
1F80FE
1F807E
1F80FE
1F80FC
1F80FC
1F83F8
FFFFF0
FFFFC0
000000
003000
007800
007800
007800
003000
ENDCHAR
STARTCHAR uni1E05
ENCODING 7685
SWIDTH 648 0
DWIDTH 21 0
BBX 19 31 0 -6
BITMAP
FF0000
FF0000
1F0000
1F0000
1F0000
1F0000
1F0000
1F0000
1F0000
1F3F00
1FFF80
1FCFC0
1F87C0
1F03E0
1F03E0
1F03E0
1F03E0
1F03E0
1F03E0
1F03E0
1F03C0
1F07C0
1F8F80
1DFF00
187C00
000000
006000
00F000
00F000
00F000
006000
ENDCHAR
STARTCHAR uni1E06
ENCODING 7686
SWIDTH 778 0
DWIDTH 25 0
BBX 23 29 1 -4
BITMAP
FFFF80
FFFFE0
1F83F0
1F81F8
1F81F8
1F80FC
1F80FC
1F80FC
1F80F8
1F81F8
1F81F0
1F87E0
1FFF00
1FFFC0
1F83F0
1F80FC
1F80FC
1F80FE
1F807E
1F80FE
1F80FC
1F80FC
1F83F8
FFFFF0
FFFFC0
000000
03FF80
03FF80
03FF80
ENDCHAR
STARTCHAR uni1E07
ENCODING 7687
SWIDTH 648 0
DWIDTH 21 0
BBX 19 29 0 -4
BITMAP
FF0000
FF0000
1F0000
1F0000
1F0000
1F0000
1F0000
1F0000
1F0000
1F3F00
1FFF80
1FCFC0
1F87C0
1F03E0
1F03E0
1F03E0
1F03E0
1F03E0
1F03E0
1F03E0
1F03C0
1F07C0
1F8F80
1DFF00
187C00
000000
07FF00
07FF00
07FF00
ENDCHAR
STARTCHAR uni1E08
ENCODING 7688
SWIDTH 778 0
DWIDTH 24 0
BBX 22 39 1 -7
BITMAP
000600
000F00
001F00
003E00
007800
006000
000000
007E18
03FFB8
07C1F8
1F80F8
1F0078
3E0038
7E0038
7E0018
FE0018
FC0008
FC0000
FC0000
FC0000
FC0000
FC0000
FE0000
FE000C
FE001C
7E0018
7E0038
3F0030
1F8070
0FC1E0
07FFC0
00FF00
003000
006000
00F800
001C00
001C00
01B800
00F000
ENDCHAR
STARTCHAR uni1E09
ENCODING 7689
SWIDTH 556 0
DWIDTH 17 0
BBX 15 30 1 -7
BITMAP
0030
0078
00F8
01F0
03C0
0300
0000
03F0
0E3C
3E3E
7C3E
7C3E
F81C
F800
F800
F800
F800
FC02
FC06
7E06
3F1C
1FF8
07F0
0180
0300
07C0
00E0
00E0
0DC0
0780
ENDCHAR
STARTCHAR uni1E0A
ENCODING 7690
SWIDTH 833 0
DWIDTH 26 0
BBX 24 31 1 0
BITMAP
003000
007800
007800
007800
003000
000000
FFFF00
FFFFE0
1F83F0
1F81F8
1F80FC
1F807E
1F807E
1F807F
1F803F
1F803F
1F803F
1F803F
1F803F
1F803F
1F803F
1F803F
1F807F
1F807E
1F807E
1F807E
1F80FC
1F81F8
1F83F0
FFFFE0
FFFF00
ENDCHAR
STARTCHAR uni1E0B
ENCODING 7691
SWIDTH 667 0
DWIDTH 22 0
BBX 20 31 1 0
BITMAP
000C00
001E00
001E00
001E00
000C00
000000
007F80
007F80
001F80
000F80
000F80
000F80
000F80
000F80
000F80
0FCF80
1FEF80
3E3F80
7C1F80
781F80
F80F80
F80F80
F80F80
F80F80
F80F80
F80F80
F81F80
7C1F80
7C7F80
3FEFF0
0F8FF0
ENDCHAR
STARTCHAR uni1E0C
ENCODING 7692
SWIDTH 833 0
DWIDTH 26 0
BBX 24 31 1 -6
BITMAP
FFFF00
FFFFE0
1F83F0
1F81F8
1F80FC
1F807E
1F807E
1F807F
1F803F
1F803F
1F803F
1F803F
1F803F
1F803F
1F803F
1F803F
1F807F
1F807E
1F807E
1F807E
1F80FC
1F81F8
1F83F0
FFFFE0
FFFF00
000000
003000
007800
007800
007800
003000
ENDCHAR
STARTCHAR uni1E0D
ENCODING 7693
SWIDTH 667 0
DWIDTH 22 0
BBX 20 31 1 -6
BITMAP
007F80
007F80
001F80
000F80
000F80
000F80
000F80
000F80
000F80
0FCF80
1FEF80
3E3F80
7C1F80
781F80
F80F80
F80F80
F80F80
F80F80
F80F80
F80F80
F81F80
7C1F80
7C7F80
3FEFF0
0F8FF0
000000
006000
00F000
00F000
00F000
006000
ENDCHAR
STARTCHAR uni1E0E
ENCODING 7694
SWIDTH 833 0
DWIDTH 26 0
BBX 24 29 1 -4
BITMAP
FFFF00
FFFFE0
1F83F0
1F81F8
1F80FC
1F807E
1F807E
1F807F
1F803F
1F803F
1F803F
1F803F
1F803F
1F803F
1F803F
1F803F
1F807F
1F807E
1F807E
1F807E
1F80FC
1F81F8
1F83F0
FFFFE0
FFFF00
000000
03FF80
03FF80
03FF80
ENDCHAR
STARTCHAR uni1E0F
ENCODING 7695
SWIDTH 667 0
DWIDTH 22 0
BBX 20 29 1 -4
BITMAP
007F80
007F80
001F80
000F80
000F80
000F80
000F80
000F80
000F80
0FCF80
1FEF80
3E3F80
7C1F80
781F80
F80F80
F80F80
F80F80
F80F80
F80F80
F80F80
F81F80
7C1F80
7C7F80
3FEFF0
0F8FF0
000000
0FFE00
0FFE00
0FFE00
ENDCHAR
STARTCHAR uni1E10
ENCODING 7696
SWIDTH 833 0
DWIDTH 26 0
BBX 24 32 1 -7
BITMAP
FFFF00
FFFFE0
1F83F0
1F81F8
1F80FC
1F807E
1F807E
1F807F
1F803F
1F803F
1F803F
1F803F
1F803F
1F803F
1F803F
1F803F
1F807F
1F807E
1F807E
1F807E
1F80FC
1F81F8
1F83F0
FFFFE0
FFFF00
001800
003000
007C00
000E00
000E00
00DC00
007800
ENDCHAR
STARTCHAR uni1E11
ENCODING 7697
SWIDTH 667 0
DWIDTH 22 0
BBX 20 32 1 -7
BITMAP
007F80
007F80
001F80
000F80
000F80
000F80
000F80
000F80
000F80
0FCF80
1FEF80
3E3F80
7C1F80
781F80
F80F80
F80F80
F80F80
F80F80
F80F80
F80F80
F81F80
7C1F80
7C7F80
3FEFF0
0F8FF0
006000
00C000
01F000
003800
003800
037000
01E000
ENDCHAR
STARTCHAR uni1E12
ENCODING 7698
SWIDTH 833 0
DWIDTH 26 0
BBX 24 31 1 -6
BITMAP
FFFF00
FFFFE0
1F83F0
1F81F8
1F80FC
1F807E
1F807E
1F807F
1F803F
1F803F
1F803F
1F803F
1F803F
1F803F
1F803F
1F803F
1F807F
1F807E
1F807E
1F807E
1F80FC
1F81F8
1F83F0
FFFFE0
FFFF00
000000
003800
007C00
00EE00
01C700
038380
ENDCHAR
STARTCHAR uni1E13
ENCODING 7699
SWIDTH 667 0
DWIDTH 22 0
BBX 20 31 1 -6
BITMAP
007F80
007F80
001F80
000F80
000F80
000F80
000F80
000F80
000F80
0FCF80
1FEF80
3E3F80
7C1F80
781F80
F80F80
F80F80
F80F80
F80F80
F80F80
F80F80
F81F80
7C1F80
7C7F80
3FEFF0
0F8FF0
000000
00E000
01F000
03B800
071C00
0E0E00
ENDCHAR
STARTCHAR uni1E14
ENCODING 7700
SWIDTH 759 0
DWIDTH 23 0
BBX 21 36 1 0
BITMAP
018000
03C000
03E000
01F000
007800
001800
000000
07FF00
07FF00
07FF00
000000
FFFFF8
FFFFF8
1F81F8
1F80F8
1F8078
1F8038
1F8038
1F8618
1F8618
1F8E00
1F8E00
1F9E00
1FFE00
1FFE00
1F9E00
1F8E00
1F8618
1F8618
1F8618
1F8038
1F8038
1F8078
1F81F8
FFFFF8
FFFFF8
ENDCHAR
STARTCHAR uni1E15
ENCODING 7701
SWIDTH 574 0
DWIDTH 18 0
BBX 16 27 1 0
BITMAP
0600
0F00
0F80
07C0
01E0
0060
0000
1FFC
1FFC
1FFC
0000
03E0
0FF8
3C3C
781E
781E
F81F
F81F
FFFF
FFFF
F800
F800
FC03
7C06
3F0E
1FFC
07F0
ENDCHAR
STARTCHAR uni1E16
ENCODING 7702
SWIDTH 759 0
DWIDTH 23 0
BBX 21 36 1 0
BITMAP
000C00
001E00
003E00
007C00
00F000
00C000
000000
07FF00
07FF00
07FF00
000000
FFFFF8
FFFFF8
1F81F8
1F80F8
1F8078
1F8038
1F8038
1F8618
1F8618
1F8E00
1F8E00
1F9E00
1FFE00
1FFE00
1F9E00
1F8E00
1F8618
1F8618
1F8618
1F8038
1F8038
1F8078
1F81F8
FFFFF8
FFFFF8
ENDCHAR
STARTCHAR uni1E17
ENCODING 7703
SWIDTH 574 0
DWIDTH 18 0
BBX 16 27 1 0
BITMAP
0030
0078
00F8
01F0
03C0
0300
0000
1FFC
1FFC
1FFC
0000
03E0
0FF8
3C3C
781E
781E
F81F
F81F
FFFF
FFFF
F800
F800
FC03
7C06
3F0E
1FFC
07F0
ENDCHAR
STARTCHAR uni1E18
ENCODING 7704
SWIDTH 759 0
DWIDTH 23 0
BBX 21 31 1 -6
BITMAP
FFFFF8
FFFFF8
1F81F8
1F80F8
1F8078
1F8038
1F8038
1F8618
1F8618
1F8E00
1F8E00
1F9E00
1FFE00
1FFE00
1F9E00
1F8E00
1F8618
1F8618
1F8618
1F8038
1F8038
1F8078
1F81F8
FFFFF8
FFFFF8
000000
007000
00F800
01DC00
038E00
070700
ENDCHAR
STARTCHAR uni1E19
ENCODING 7705
SWIDTH 574 0
DWIDTH 18 0
BBX 16 22 1 -6
BITMAP
03E0
0FF8
3C3C
781E
781E
F81F
F81F
FFFF
FFFF
F800
F800
FC03
7C06
3F0E
1FFC
07F0
0000
0380
07C0
0EE0
1C70
3838
ENDCHAR
STARTCHAR uni1E1A
ENCODING 7706
SWIDTH 759 0
DWIDTH 23 0
BBX 21 30 1 -5
BITMAP
FFFFF8
FFFFF8
1F81F8
1F80F8
1F8078
1F8038
1F8038
1F8618
1F8618
1F8E00
1F8E00
1F9E00
1FFE00
1FFE00
1F9E00
1F8E00
1F8618
1F8618
1F8618
1F8038
1F8038
1F8078
1F81F8
FFFFF8
FFFFF8
000000
01C300
03FF00
07FE00
061C00
ENDCHAR
STARTCHAR uni1E1B
ENCODING 7707
SWIDTH 574 0
DWIDTH 18 0
BBX 16 21 1 -5
BITMAP
03E0
0FF8
3C3C
781E
781E
F81F
F81F
FFFF
FFFF
F800
F800
FC03
7C06
3F0E
1FFC
07F0
0000
0E18
1FF8
3FF0
30E0
ENDCHAR
STARTCHAR uni1E1C
ENCODING 7708
SWIDTH 759 0
DWIDTH 23 0
BBX 21 39 1 -7
BITMAP
030300
030300
038700
01FE00
01FE00
007800
000000
FFFFF8
FFFFF8
1F81F8
1F80F8
1F8078
1F8038
1F8038
1F8618
1F8618
1F8E00
1F8E00
1F9E00
1FFE00
1FFE00
1F9E00
1F8E00
1F8618
1F8618
1F8618
1F8038
1F8038
1F8078
1F81F8
FFFFF8
FFFFF8
003000
006000
00F800
001C00
001C00
01B800
00F000
ENDCHAR
STARTCHAR uni1E1D
ENCODING 7709
SWIDTH 574 0
DWIDTH 18 0
BBX 16 30 1 -7
BITMAP
1818
1818
1C38
0FF0
0FF0
03C0
0000
03E0
0FF8
3C3C
781E
781E
F81F
F81F
FFFF
FFFF
F800
F800
FC03
7C06
3F0E
1FFC
07F0
0180
0300
07C0
00E0
00E0
0DC0
0780
ENDCHAR
STARTCHAR uni1E1E
ENCODING 7710
SWIDTH 722 0
DWIDTH 23 0
BBX 21 31 1 0
BITMAP
003000
007800
007800
007800
003000
000000
FFFFF8
FFFFF8
1FC1F8
1F80F8
1F8078
1F8038
1F8018
1F8318
1F8318
1F8708
1F8700
1F9F00
1FFF00
1FFF00
1F8F00
1F8700
1F8300
1F8300
1F8300
1F8000
1F8000
1F8000
1F8000
FFF800
FFF800
ENDCHAR
STARTCHAR uni1E1F
ENCODING 7711
SWIDTH 389 0
DWIDTH 13 0
BBX 15 31 0 0
BITMAP
00C0
01E0
01E0
01E0
00C0
0000
00F0
03FC
079E
0F3E
0F3E
1F1C
1F00
1F00
1F00
FFF0
FFF0
1F00
1F00
1F00
1F00
1F00
1F00
1F00
1F00
1F00
1F00
1F00
1F00
FFE0
FFE0
ENDCHAR
STARTCHAR uni1E20
ENCODING 7712
SWIDTH 833 0
DWIDTH 26 0
BBX 25 29 1 0
BITMAP
01FFC000
01FFC000
01FFC000
00000000
007E0C00
03FFDC00
07C1FC00
0F807C00
1F003C00
3F001C00
7E001C00
7E000C00
FE000C00
FE000400
FE000000
FC000000
FC000000
FC000000
FC07FF80
FC07FF80
FC007C00
FE007C00
7E007C00
7E007C00
3F00FC00
1F00FC00
0F81DC00
07FF1C00
00FC0C00
ENDCHAR
STARTCHAR uni1E21
ENCODING 7713
SWIDTH 611 0
DWIDTH 20 0
BBX 20 29 1 -7
BITMAP
07FF00
07FF00
07FF00
000000
0001E0
0003F0
07FFF0
1F7CE0
3E3E00
7C1F00
7C1F00
7C1F00
7C1F00
7C1F00
3E3E00
1F7E00
1FF800
7C0000
F80000
FFFC00
FFFF00
3FFF00
1FFF80
7FFF80
F00780
F00780
F80F00
7FFE00
0FF000
ENDCHAR
STARTCHAR uni1E22
ENCODING 7714
SWIDTH 870 0
DWIDTH 28 0
BBX 26 31 1 0
BITMAP
000C0000
001E0000
001E0000
001E0000
000C0000
00000000
FFF3FFC0
FFF3FFC0
1F807E00
1F807E00
1F807E00
1F807E00
1F807E00
1F807E00
1F807E00
1F807E00
1F807E00
1F807E00
1FFFFE00
1FFFFE00
1F807E00
1F807E00
1F807E00
1F807E00
1F807E00
1F807E00
1F807E00
1F807E00
1F807E00
FFF3FFC0
FFF3FFC0
ENDCHAR
STARTCHAR uni1E23
ENCODING 7715
SWIDTH 685 0
DWIDTH 22 0
BBX 20 31 1 0
BITMAP
060000
0F0000
0F0000
0F0000
060000
000000
FE0000
FE0000
3E0000
3E0000
3E0000
3E0000
3E0000
3E0000
3E0000
3E3E00
3EFF80
3FFF80
3F8FC0
3F07C0
3F07C0
3E07C0
3E07C0
3E07C0
3E07C0
3E07C0
3E07C0
3E07C0
3E07C0
FF9FF0
FF9FF0
ENDCHAR
STARTCHAR uni1E24
ENCODING 7716
SWIDTH 870 0
DWIDTH 28 0
BBX 26 31 1 -6
BITMAP
FFF3FFC0
FFF3FFC0
1F807E00
1F807E00
1F807E00
1F807E00
1F807E00
1F807E00
1F807E00
1F807E00
1F807E00
1F807E00
1FFFFE00
1FFFFE00
1F807E00
1F807E00
1F807E00
1F807E00
1F807E00
1F807E00
1F807E00
1F807E00
1F807E00
FFF3FFC0
FFF3FFC0
00000000
000C0000
001E0000
001E0000
001E0000
000C0000
ENDCHAR
STARTCHAR uni1E25
ENCODING 7717
SWIDTH 685 0
DWIDTH 22 0
BBX 20 31 1 -6
BITMAP
FE0000
FE0000
3E0000
3E0000
3E0000
3E0000
3E0000
3E0000
3E0000
3E3E00
3EFF80
3FFF80
3F8FC0
3F07C0
3F07C0
3E07C0
3E07C0
3E07C0
3E07C0
3E07C0
3E07C0
3E07C0
3E07C0
FF9FF0
FF9FF0
000000
006000
00F000
00F000
00F000
006000
ENDCHAR
STARTCHAR uni1E26
ENCODING 7718
SWIDTH 870 0
DWIDTH 28 0
BBX 26 31 1 0
BITMAP
0060C000
00F1E000
00F1E000
00F1E000
0060C000
00000000
FFF3FFC0
FFF3FFC0
1F807E00
1F807E00
1F807E00
1F807E00
1F807E00
1F807E00
1F807E00
1F807E00
1F807E00
1F807E00
1FFFFE00
1FFFFE00
1F807E00
1F807E00
1F807E00
1F807E00
1F807E00
1F807E00
1F807E00
1F807E00
1F807E00
FFF3FFC0
FFF3FFC0
ENDCHAR
STARTCHAR uni1E27
ENCODING 7719
SWIDTH 685 0
DWIDTH 22 0
BBX 20 31 1 0
BITMAP
306000
78F000
78F000
78F000
306000
000000
FE0000
FE0000
3E0000
3E0000
3E0000
3E0000
3E0000
3E0000
3E0000
3E3E00
3EFF80
3FFF80
3F8FC0
3F07C0
3F07C0
3E07C0
3E07C0
3E07C0
3E07C0
3E07C0
3E07C0
3E07C0
3E07C0
FF9FF0
FF9FF0
ENDCHAR
STARTCHAR uni1E28
ENCODING 7720
SWIDTH 870 0
DWIDTH 28 0
BBX 26 32 1 -7
BITMAP
FFF3FFC0
FFF3FFC0
1F807E00
1F807E00
1F807E00
1F807E00
1F807E00
1F807E00
1F807E00
1F807E00
1F807E00
1F807E00
1FFFFE00
1FFFFE00
1F807E00
1F807E00
1F807E00
1F807E00
1F807E00
1F807E00
1F807E00
1F807E00
1F807E00
FFF3FFC0
FFF3FFC0
00060000
000C0000
001F0000
00038000
00038000
00370000
001E0000
ENDCHAR
STARTCHAR uni1E29
ENCODING 7721
SWIDTH 685 0
DWIDTH 22 0
BBX 20 32 1 -7
BITMAP
FE0000
FE0000
3E0000
3E0000
3E0000
3E0000
3E0000
3E0000
3E0000
3E3E00
3EFF80
3FFF80
3F8FC0
3F07C0
3F07C0
3E07C0
3E07C0
3E07C0
3E07C0
3E07C0
3E07C0
3E07C0
3E07C0
FF9FF0
FF9FF0
003000
006000
00F800
001C00
001C00
01B800
00F000
ENDCHAR
STARTCHAR uni1E2A
ENCODING 7722
SWIDTH 870 0
DWIDTH 28 0
BBX 26 32 1 -7
BITMAP
FFF3FFC0
FFF3FFC0
1F807E00
1F807E00
1F807E00
1F807E00
1F807E00
1F807E00
1F807E00
1F807E00
1F807E00
1F807E00
1FFFFE00
1FFFFE00
1F807E00
1F807E00
1F807E00
1F807E00
1F807E00
1F807E00
1F807E00
1F807E00
1F807E00
FFF3FFC0
FFF3FFC0
00000000
00C0C000
00C0C000
00E1C000
007F8000
007F8000
001E0000
ENDCHAR
STARTCHAR uni1E2B
ENCODING 7723
SWIDTH 685 0
DWIDTH 22 0
BBX 20 32 1 -7
BITMAP
FE0000
FE0000
3E0000
3E0000
3E0000
3E0000
3E0000
3E0000
3E0000
3E3E00
3EFF80
3FFF80
3F8FC0
3F07C0
3F07C0
3E07C0
3E07C0
3E07C0
3E07C0
3E07C0
3E07C0
3E07C0
3E07C0
FF9FF0
FF9FF0
000000
060600
060600
070E00
03FC00
03FC00
00F000
ENDCHAR
STARTCHAR uni1E2C
ENCODING 7724
SWIDTH 444 0
DWIDTH 14 0
BBX 12 30 1 -5
BITMAP
FFF0
FFF0
1F80
1F80
1F80
1F80
1F80
1F80
1F80
1F80
1F80
1F80
1F80
1F80
1F80
1F80
1F80
1F80
1F80
1F80
1F80
1F80
1F80
FFF0
FFF0
0000
3860
7FE0
FFC0
C380
ENDCHAR
STARTCHAR uni1E2D
ENCODING 7725
SWIDTH 370 0
DWIDTH 12 0
BBX 11 30 1 -5
BITMAP
0E00
1F00
1F00
1F00
0E00
0000
0000
0000
0000
7F00
7F00
1F00
1F00
1F00
1F00
1F00
1F00
1F00
1F00
1F00
1F00
1F00
1F00
7FC0
7FC0
0000
3860
7FE0
FFC0
C380
ENDCHAR
STARTCHAR uni1E2E
ENCODING 7726
SWIDTH 444 0
DWIDTH 14 0
BBX 12 39 1 0
BITMAP
00C0
01E0
03E0
07C0
0F00
0C00
0000
3060
78F0
78F0
78F0
3060
0000
0000
FFF0
FFF0
1F80
1F80
1F80
1F80
1F80
1F80
1F80
1F80
1F80
1F80
1F80
1F80
1F80
1F80
1F80
1F80
1F80
1F80
1F80
1F80
1F80
FFF0
FFF0
ENDCHAR
STARTCHAR uni1E2F
ENCODING 7727
SWIDTH 370 0
DWIDTH 11 0
BBX 11 30 0 0
BITMAP
0180
03C0
07C0
0F80
1E00
1800
0000
60C0
F1E0
F1E0
F1E0
60C0
0000
0000
7F00
7F00
1F00
1F00
1F00
1F00
1F00
1F00
1F00
1F00
1F00
1F00
1F00
1F00
7FC0
7FC0
ENDCHAR
STARTCHAR uni1E30
ENCODING 7728
SWIDTH 815 0
DWIDTH 27 0
BBX 25 32 1 0
BITMAP
00030000
00078000
000F8000
001F0000
003C0000
00300000
00000000
FFF3FF80
FFF3FF80
1F807E00
1F807800
1F80F000
1F81E000
1F81C000
1F838000
1F870000
1F8F0000
1F9F0000
1FBF8000
1FFFC000
1FEFC000
1FEFE000
1FC7E000
1F87F000
1F83F800
1F81F800
1F81FC00
1F80FC00
1F80FE00
1F80FF00
FFF3FF80
FFF3FF80
ENDCHAR
STARTCHAR uni1E31
ENCODING 7729
SWIDTH 667 0
DWIDTH 22 0
BBX 20 32 1 0
BITMAP
00C000
01E000
03E000
07C000
0F0000
0C0000
000000
FE0000
FE0000
3E0000
3E0000
3E0000
3E0000
3E0000
3E0000
3E0000
3E3FE0
3E3FE0
3E0F00
3E0E00
3E3C00
3E7000
3EF800
3FFC00
3FFE00
3F7E00
3E3F00
3E1F80
3E1FC0
3E0FE0
FFBFF0
FFBFF0
ENDCHAR
STARTCHAR uni1E32
ENCODING 7730
SWIDTH 815 0
DWIDTH 27 0
BBX 25 31 1 -6
BITMAP
FFF3FF80
FFF3FF80
1F807E00
1F807800
1F80F000
1F81E000
1F81C000
1F838000
1F870000
1F8F0000
1F9F0000
1FBF8000
1FFFC000
1FEFC000
1FEFE000
1FC7E000
1F87F000
1F83F800
1F81F800
1F81FC00
1F80FC00
1F80FE00
1F80FF00
FFF3FF80
FFF3FF80
00000000
000C0000
001E0000
001E0000
001E0000
000C0000
ENDCHAR
STARTCHAR uni1E33
ENCODING 7731
SWIDTH 667 0
DWIDTH 22 0
BBX 20 31 1 -6
BITMAP
FE0000
FE0000
3E0000
3E0000
3E0000
3E0000
3E0000
3E0000
3E0000
3E3FE0
3E3FE0
3E0F00
3E0E00
3E3C00
3E7000
3EF800
3FFC00
3FFE00
3F7E00
3E3F00
3E1F80
3E1FC0
3E0FE0
FFBFF0
FFBFF0
000000
006000
00F000
00F000
00F000
006000
ENDCHAR
STARTCHAR uni1E34
ENCODING 7732
SWIDTH 815 0
DWIDTH 27 0
BBX 25 29 1 -4
BITMAP
FFF3FF80
FFF3FF80
1F807E00
1F807800
1F80F000
1F81E000
1F81C000
1F838000
1F870000
1F8F0000
1F9F0000
1FBF8000
1FFFC000
1FEFC000
1FEFE000
1FC7E000
1F87F000
1F83F800
1F81F800
1F81FC00
1F80FC00
1F80FE00
1F80FF00
FFF3FF80
FFF3FF80
00000000
01FFC000
01FFC000
01FFC000
ENDCHAR
STARTCHAR uni1E35
ENCODING 7733
SWIDTH 667 0
DWIDTH 22 0
BBX 20 29 1 -4
BITMAP
FE0000
FE0000
3E0000
3E0000
3E0000
3E0000
3E0000
3E0000
3E0000
3E3FE0
3E3FE0
3E0F00
3E0E00
3E3C00
3E7000
3EF800
3FFC00
3FFE00
3F7E00
3E3F00
3E1F80
3E1FC0
3E0FE0
FFBFF0
FFBFF0
000000
0FFE00
0FFE00
0FFE00
ENDCHAR
STARTCHAR uni1E36
ENCODING 7734
SWIDTH 722 0
DWIDTH 23 0
BBX 21 31 1 -6
BITMAP
FFF000
FFF000
1F8000
1F8000
1F8000
1F8000
1F8000
1F8000
1F8000
1F8000
1F8000
1F8000
1F8000
1F8000
1F8000
1F8000
1F8018
1F8018
1F8018
1F8038
1F8038
1F8078
1F81F8
FFFFF8
FFFFF8
000000
003000
007800
007800
007800
003000
ENDCHAR
STARTCHAR uni1E37
ENCODING 7735
SWIDTH 352 0
DWIDTH 12 0
BBX 10 31 1 -6
BITMAP
FE00
FE00
3E00
3E00
3E00
3E00
3E00
3E00
3E00
3E00
3E00
3E00
3E00
3E00
3E00
3E00
3E00
3E00
3E00
3E00
3E00
3E00
3E00
FFC0
FFC0
0000
0C00
1E00
1E00
1E00
0C00
ENDCHAR
STARTCHAR uni1E38
ENCODING 7736
SWIDTH 722 0
DWIDTH 23 0
BBX 21 35 1 -6
BITMAP
3FF800
3FF800
3FF800
000000
FFF000
FFF000
1F8000
1F8000
1F8000
1F8000
1F8000
1F8000
1F8000
1F8000
1F8000
1F8000
1F8000
1F8000
1F8000
1F8000
1F8018
1F8018
1F8018
1F8038
1F8038
1F8078
1F81F8
FFFFF8
FFFFF8
000000
003000
007800
007800
007800
003000
ENDCHAR
STARTCHAR uni1E39
ENCODING 7737
SWIDTH 352 0
DWIDTH 12 0
BBX 11 35 0 -6
BITMAP
FFE0
FFE0
FFE0
0000
7F00
7F00
1F00
1F00
1F00
1F00
1F00
1F00
1F00
1F00
1F00
1F00
1F00
1F00
1F00
1F00
1F00
1F00
1F00
1F00
1F00
1F00
1F00
7FE0
7FE0
0000
0600
0F00
0F00
0F00
0600
ENDCHAR
STARTCHAR uni1E3A
ENCODING 7738
SWIDTH 722 0
DWIDTH 23 0
BBX 21 29 1 -4
BITMAP
FFF000
FFF000
1F8000
1F8000
1F8000
1F8000
1F8000
1F8000
1F8000
1F8000
1F8000
1F8000
1F8000
1F8000
1F8000
1F8000
1F8018
1F8018
1F8018
1F8038
1F8038
1F8078
1F81F8
FFFFF8
FFFFF8
000000
07FF00
07FF00
07FF00
ENDCHAR
STARTCHAR uni1E3B
ENCODING 7739
SWIDTH 352 0
DWIDTH 12 0
BBX 11 29 0 -4
BITMAP
7F00
7F00
1F00
1F00
1F00
1F00
1F00
1F00
1F00
1F00
1F00
1F00
1F00
1F00
1F00
1F00
1F00
1F00
1F00
1F00
1F00
1F00
1F00
7FE0
7FE0
0000
FFE0
FFE0
FFE0
ENDCHAR
STARTCHAR uni1E3C
ENCODING 7740
SWIDTH 722 0
DWIDTH 23 0
BBX 21 31 1 -6
BITMAP
FFF000
FFF000
1F8000
1F8000
1F8000
1F8000
1F8000
1F8000
1F8000
1F8000
1F8000
1F8000
1F8000
1F8000
1F8000
1F8000
1F8018
1F8018
1F8018
1F8038
1F8038
1F8078
1F81F8
FFFFF8
FFFFF8
000000
007000
00F800
01DC00
038E00
070700
ENDCHAR
STARTCHAR uni1E3D
ENCODING 7741
SWIDTH 352 0
DWIDTH 12 0
BBX 11 31 0 -6
BITMAP
7F00
7F00
1F00
1F00
1F00
1F00
1F00
1F00
1F00
1F00
1F00
1F00
1F00
1F00
1F00
1F00
1F00
1F00
1F00
1F00
1F00
1F00
1F00
7FE0
7FE0
0000
0E00
1F00
3B80
71C0
E0E0
ENDCHAR
STARTCHAR uni1E3E
ENCODING 7742
SWIDTH 981 0
DWIDTH 32 0
BBX 31 32 0 0
BITMAP
00003000
00007800
0000F800
0001F000
0003C000
00030000
00000000
7FE007FE
7FF00FFE
0FF00FF0
0FF00FF0
0DF81BF0
0DF81BF0
0DF81BF0
0CFC3BF0
0CFC33F0
0CFC33F0
0C7C73F0
0C7E63F0
0C7E63F0
0C3EE3F0
0C3FC3F0
0C3FC3F0
0C1FC3F0
0C1F83F0
0C1F83F0
0C0F83F0
0C0F03F0
0C0F03F0
1E0F03F0
FFC61FFE
FFC61FFE
ENDCHAR
STARTCHAR uni1E3F
ENCODING 7743
SWIDTH 963 0
DWIDTH 31 0
BBX 29 23 1 0
BITMAP
00018000
0003C000
0007C000
000F8000
001E0000
00180000
00000000
FE7E1F00
FEFF3FC0
3FFFFFC0
3F9FE7E0
3F0FC3E0
3E0F83E0
3E0F83E0
3E0F83E0
3E0F83E0
3E0F83E0
3E0F83E0
3E0F83E0
3E0F83E0
3E0F83E0
FFBFEFF8
FFBFEFF8
ENDCHAR
STARTCHAR uni1E40
ENCODING 7744
SWIDTH 981 0
DWIDTH 32 0
BBX 31 31 0 0
BITMAP
00018000
0003C000
0003C000
0003C000
00018000
00000000
7FE007FE
7FF00FFE
0FF00FF0
0FF00FF0
0DF81BF0
0DF81BF0
0DF81BF0
0CFC3BF0
0CFC33F0
0CFC33F0
0C7C73F0
0C7E63F0
0C7E63F0
0C3EE3F0
0C3FC3F0
0C3FC3F0
0C1FC3F0
0C1F83F0
0C1F83F0
0C0F83F0
0C0F03F0
0C0F03F0
1E0F03F0
FFC61FFE
FFC61FFE
ENDCHAR
STARTCHAR uni1E41
ENCODING 7745
SWIDTH 963 0
DWIDTH 31 0
BBX 29 22 1 0
BITMAP
00060000
000F0000
000F0000
000F0000
00060000
00000000
FE7E1F00
FEFF3FC0
3FFFFFC0
3F9FE7E0
3F0FC3E0
3E0F83E0
3E0F83E0
3E0F83E0
3E0F83E0
3E0F83E0
3E0F83E0
3E0F83E0
3E0F83E0
3E0F83E0
FFBFEFF8
FFBFEFF8
ENDCHAR
STARTCHAR uni1E42
ENCODING 7746
SWIDTH 981 0
DWIDTH 32 0
BBX 31 31 0 -6
BITMAP
7FE007FE
7FF00FFE
0FF00FF0
0FF00FF0
0DF81BF0
0DF81BF0
0DF81BF0
0CFC3BF0
0CFC33F0
0CFC33F0
0C7C73F0
0C7E63F0
0C7E63F0
0C3EE3F0
0C3FC3F0
0C3FC3F0
0C1FC3F0
0C1F83F0
0C1F83F0
0C0F83F0
0C0F03F0
0C0F03F0
1E0F03F0
FFC61FFE
FFC61FFE
00000000
00018000
0003C000
0003C000
0003C000
00018000
ENDCHAR
STARTCHAR uni1E43
ENCODING 7747
SWIDTH 963 0
DWIDTH 31 0
BBX 29 22 1 -6
BITMAP
FE7E1F00
FEFF3FC0
3FFFFFC0
3F9FE7E0
3F0FC3E0
3E0F83E0
3E0F83E0
3E0F83E0
3E0F83E0
3E0F83E0
3E0F83E0
3E0F83E0
3E0F83E0
3E0F83E0
FFBFEFF8
FFBFEFF8
00000000
00030000
00078000
00078000
00078000
00030000
ENDCHAR
STARTCHAR uni1E44
ENCODING 7748
SWIDTH 833 0
DWIDTH 27 0
BBX 27 31 0 0
BITMAP
000C0000
001E0000
001E0000
001E0000
000C0000
00000000
FF807FE0
FFC07FE0
3FE00F00
0FE00600
0FF00600
0FF80600
0FFC0600
0DFE0600
0CFE0600
0CFF0600
0C7F8600
0C3FC600
0C1FE600
0C0FE600
0C0FF600
0C07FE00
0C03FE00
0C01FE00
0C00FE00
0C007E00
0C007E00
0C003E00
1E001E00
FFC00E00
FFC00600
ENDCHAR
STARTCHAR uni1E45
ENCODING 7749
SWIDTH 685 0
DWIDTH 22 0
BBX 20 22 1 0
BITMAP
00C000
01E000
01E000
01E000
00C000
000000
FE3E00
FEFF80
3FFF80
3F8FC0
3F07C0
3E07C0
3E07C0
3E07C0
3E07C0
3E07C0
3E07C0
3E07C0
3E07C0
3E07C0
FF9FF0
FF9FF0
ENDCHAR
STARTCHAR uni1E46
ENCODING 7750
SWIDTH 833 0
DWIDTH 27 0
BBX 27 31 0 -6
BITMAP
FF807FE0
FFC07FE0
3FE00F00
0FE00600
0FF00600
0FF80600
0FFC0600
0DFE0600
0CFE0600
0CFF0600
0C7F8600
0C3FC600
0C1FE600
0C0FE600
0C0FF600
0C07FE00
0C03FE00
0C01FE00
0C00FE00
0C007E00
0C007E00
0C003E00
1E001E00
FFC00E00
FFC00600
00000000
000C0000
001E0000
001E0000
001E0000
000C0000
ENDCHAR
STARTCHAR uni1E47
ENCODING 7751
SWIDTH 685 0
DWIDTH 22 0
BBX 20 22 1 -6
BITMAP
FE3E00
FEFF80
3FFF80
3F8FC0
3F07C0
3E07C0
3E07C0
3E07C0
3E07C0
3E07C0
3E07C0
3E07C0
3E07C0
3E07C0
FF9FF0
FF9FF0
000000
006000
00F000
00F000
00F000
006000
ENDCHAR
STARTCHAR uni1E48
ENCODING 7752
SWIDTH 833 0
DWIDTH 27 0
BBX 27 29 0 -4
BITMAP
FF807FE0
FFC07FE0
3FE00F00
0FE00600
0FF00600
0FF80600
0FFC0600
0DFE0600
0CFE0600
0CFF0600
0C7F8600
0C3FC600
0C1FE600
0C0FE600
0C0FF600
0C07FE00
0C03FE00
0C01FE00
0C00FE00
0C007E00
0C007E00
0C003E00
1E001E00
FFC00E00
FFC00600
00000000
00FFE000
00FFE000
00FFE000
ENDCHAR
STARTCHAR uni1E49
ENCODING 7753
SWIDTH 685 0
DWIDTH 22 0
BBX 20 20 1 -4
BITMAP
FE3E00
FEFF80
3FFF80
3F8FC0
3F07C0
3E07C0
3E07C0
3E07C0
3E07C0
3E07C0
3E07C0
3E07C0
3E07C0
3E07C0
FF9FF0
FF9FF0
000000
07FF00
07FF00
07FF00
ENDCHAR
STARTCHAR uni1E4A
ENCODING 7754
SWIDTH 833 0
DWIDTH 27 0
BBX 27 31 0 -6
BITMAP
FF807FE0
FFC07FE0
3FE00F00
0FE00600
0FF00600
0FF80600
0FFC0600
0DFE0600
0CFE0600
0CFF0600
0C7F8600
0C3FC600
0C1FE600
0C0FE600
0C0FF600
0C07FE00
0C03FE00
0C01FE00
0C00FE00
0C007E00
0C007E00
0C003E00
1E001E00
FFC00E00
FFC00600
00000000
000E0000
001F0000
003B8000
0071C000
00E0E000
ENDCHAR
STARTCHAR uni1E4B
ENCODING 7755
SWIDTH 685 0
DWIDTH 22 0
BBX 20 22 1 -6
BITMAP
FE3E00
FEFF80
3FFF80
3F8FC0
3F07C0
3E07C0
3E07C0
3E07C0
3E07C0
3E07C0
3E07C0
3E07C0
3E07C0
3E07C0
FF9FF0
FF9FF0
000000
007000
00F800
01DC00
038E00
070700
ENDCHAR
STARTCHAR uni1E4C
ENCODING 7756
SWIDTH 833 0
DWIDTH 26 0
BBX 24 38 1 0
BITMAP
000300
000780
000F80
001F00
003C00
003000
000000
0070C0
00FFC0
01FF80
018700
000000
000000
007E00
03FFC0
0FC1F0
1F80F8
3F00FC
3E007C
7E007E
7E007E
FC003F
FC003F
FC003F
FC003F
FC003F
FC003F
FC003F
FC003F
FC003F
7E007E
7E007E
3E007C
3F00FC
1F80F8
0FC1F0
03FFC0
007E00
ENDCHAR
STARTCHAR uni1E4D
ENCODING 7757
SWIDTH 611 0
DWIDTH 19 0
BBX 17 29 1 0
BITMAP
001800
003C00
007C00
00F800
01E000
018000
000000
038600
07FE00
0FFC00
0C3800
000000
000000
03E000
0FF800
3E3E00
7C1F00
7C1F00
F80F80
F80F80
F80F80
F80F80
F80F80
F80F80
7C1F00
7C1F00
3E3E00
0FF800
03E000
ENDCHAR
STARTCHAR uni1E4E
ENCODING 7758
SWIDTH 833 0
DWIDTH 26 0
BBX 24 37 1 0
BITMAP
00C180
01E3C0
01E3C0
01E3C0
00C180
000000
0070C0
00FFC0
01FF80
018700
000000
000000
007E00
03FFC0
0FC1F0
1F80F8
3F00FC
3E007C
7E007E
7E007E
FC003F
FC003F
FC003F
FC003F
FC003F
FC003F
FC003F
FC003F
FC003F
7E007E
7E007E
3E007C
3F00FC
1F80F8
0FC1F0
03FFC0
007E00
ENDCHAR
STARTCHAR uni1E4F
ENCODING 7759
SWIDTH 611 0
DWIDTH 19 0
BBX 17 28 1 0
BITMAP
060C00
0F1E00
0F1E00
0F1E00
060C00
000000
038600
07FE00
0FFC00
0C3800
000000
000000
03E000
0FF800
3E3E00
7C1F00
7C1F00
F80F80
F80F80
F80F80
F80F80
F80F80
F80F80
7C1F00
7C1F00
3E3E00
0FF800
03E000
ENDCHAR
STARTCHAR uni1E50
ENCODING 7760
SWIDTH 833 0
DWIDTH 26 0
BBX 24 36 1 0
BITMAP
00C000
01E000
01F000
00F800
003C00
000C00
000000
03FF80
03FF80
03FF80
000000
007E00
03FFC0
0FC1F0
1F80F8
3F00FC
3E007C
7E007E
7E007E
FC003F
FC003F
FC003F
FC003F
FC003F
FC003F
FC003F
FC003F
FC003F
7E007E
7E007E
3E007C
3F00FC
1F80F8
0FC1F0
03FFC0
007E00
ENDCHAR
STARTCHAR uni1E51
ENCODING 7761
SWIDTH 611 0
DWIDTH 19 0
BBX 17 27 1 0
BITMAP
060000
0F0000
0F8000
07C000
01E000
006000
000000
1FFC00
1FFC00
1FFC00
000000
03E000
0FF800
3E3E00
7C1F00
7C1F00
F80F80
F80F80
F80F80
F80F80
F80F80
F80F80
7C1F00
7C1F00
3E3E00
0FF800
03E000
ENDCHAR
STARTCHAR uni1E52
ENCODING 7762
SWIDTH 833 0
DWIDTH 26 0
BBX 24 36 1 0
BITMAP
000300
000780
000F80
001F00
003C00
003000
000000
03FF80
03FF80
03FF80
000000
007E00
03FFC0
0FC1F0
1F80F8
3F00FC
3E007C
7E007E
7E007E
FC003F
FC003F
FC003F
FC003F
FC003F
FC003F
FC003F
FC003F
FC003F
7E007E
7E007E
3E007C
3F00FC
1F80F8
0FC1F0
03FFC0
007E00
ENDCHAR
STARTCHAR uni1E53
ENCODING 7763
SWIDTH 611 0
DWIDTH 19 0
BBX 17 27 1 0
BITMAP
003000
007800
00F800
01F000
03C000
030000
000000
1FFC00
1FFC00
1FFC00
000000
03E000
0FF800
3E3E00
7C1F00
7C1F00
F80F80
F80F80
F80F80
F80F80
F80F80
F80F80
7C1F00
7C1F00
3E3E00
0FF800
03E000
ENDCHAR
STARTCHAR uni1E54
ENCODING 7764
SWIDTH 759 0
DWIDTH 24 0
BBX 22 32 1 0
BITMAP
000600
000F00
001F00
003E00
007800
006000
000000
FFFF80
FFFFE0
1F83F0
1F81F8
1F80FC
1F80FC
1F80FC
1F80FC
1F80FC
1F80FC
1F81F8
1F83F0
1FFFE0
1FFF00
1F8000
1F8000
1F8000
1F8000
1F8000
1F8000
1F8000
1F8000
1F8000
FFF000
FFF000
ENDCHAR
STARTCHAR uni1E55
ENCODING 7765
SWIDTH 667 0
DWIDTH 21 0
BBX 19 30 1 -7
BITMAP
001800
003C00
007C00
00F800
01E000
018000
000000
FE7E00
FEFF80
3F8FC0
3F07C0
3F07E0
3E03E0
3E03E0
3E03E0
3E03E0
3E03E0
3E03E0
3F07C0
3F07C0
3F8F80
3FFF00
3E7E00
3E0000
3E0000
3E0000
3E0000
3E0000
FF8000
FF8000
ENDCHAR
STARTCHAR uni1E56
ENCODING 7766
SWIDTH 759 0
DWIDTH 24 0
BBX 22 31 1 0
BITMAP
003000
007800
007800
007800
003000
000000
FFFF80
FFFFE0
1F83F0
1F81F8
1F80FC
1F80FC
1F80FC
1F80FC
1F80FC
1F80FC
1F81F8
1F83F0
1FFFE0
1FFF00
1F8000
1F8000
1F8000
1F8000
1F8000
1F8000
1F8000
1F8000
1F8000
FFF000
FFF000
ENDCHAR
STARTCHAR uni1E57
ENCODING 7767
SWIDTH 667 0
DWIDTH 21 0
BBX 19 29 1 -7
BITMAP
00C000
01E000
01E000
01E000
00C000
000000
FE7E00
FEFF80
3F8FC0
3F07C0
3F07E0
3E03E0
3E03E0
3E03E0
3E03E0
3E03E0
3E03E0
3F07C0
3F07C0
3F8F80
3FFF00
3E7E00
3E0000
3E0000
3E0000
3E0000
3E0000
FF8000
FF8000
ENDCHAR
STARTCHAR uni1E58
ENCODING 7768
SWIDTH 815 0
DWIDTH 27 0
BBX 25 31 1 0
BITMAP
00180000
003C0000
003C0000
003C0000
00180000
00000000
FFFF8000
FFFFF000
1F83F800
1F81F800
1F80FC00
1F80FC00
1F80FC00
1F80FC00
1F80FC00
1F81F800
1F81F000
1F87C000
1FFF0000
1FFFC000
1F87E000
1F83E000
1F83F000
1F83F000
1F83F000
1F83F980
1F81F980
1F81FB00
1F81FF00
FFF0FE00
FFF07C00
ENDCHAR
STARTCHAR uni1E59
ENCODING 7769
SWIDTH 519 0
DWIDTH 16 0
BBX 15 22 1 0
BITMAP
0180
03C0
03C0
03C0
0180
0000
FC7C
FCFE
3DFE
3DBE
3F3E
3E1C
3E00
3E00
3E00
3E00
3E00
3E00
3E00
3E00
FFC0
FFC0
ENDCHAR
STARTCHAR uni1E5A
ENCODING 7770
SWIDTH 815 0
DWIDTH 27 0
BBX 25 31 1 -6
BITMAP
FFFF8000
FFFFF000
1F83F800
1F81F800
1F80FC00
1F80FC00
1F80FC00
1F80FC00
1F80FC00
1F81F800
1F81F000
1F87C000
1FFF0000
1FFFC000
1F87E000
1F83E000
1F83F000
1F83F000
1F83F000
1F83F980
1F81F980
1F81FB00
1F81FF00
FFF0FE00
FFF07C00
00000000
00180000
003C0000
003C0000
003C0000
00180000
ENDCHAR
STARTCHAR uni1E5B
ENCODING 7771
SWIDTH 519 0
DWIDTH 16 0
BBX 15 22 1 -6
BITMAP
FC7C
FCFE
3DFE
3DBE
3F3E
3E1C
3E00
3E00
3E00
3E00
3E00
3E00
3E00
3E00
FFC0
FFC0
0000
0600
0F00
0F00
0F00
0600
ENDCHAR
STARTCHAR uni1E5C
ENCODING 7772
SWIDTH 815 0
DWIDTH 27 0
BBX 25 35 1 -6
BITMAP
03FF8000
03FF8000
03FF8000
00000000
FFFF8000
FFFFF000
1F83F800
1F81F800
1F80FC00
1F80FC00
1F80FC00
1F80FC00
1F80FC00
1F81F800
1F81F000
1F87C000
1FFF0000
1FFFC000
1F87E000
1F83E000
1F83F000
1F83F000
1F83F000
1F83F980
1F81F980
1F81FB00
1F81FF00
FFF0FE00
FFF07C00
00000000
00180000
003C0000
003C0000
003C0000
00180000
ENDCHAR
STARTCHAR uni1E5D
ENCODING 7773
SWIDTH 519 0
DWIDTH 16 0
BBX 15 26 1 -6
BITMAP
3FF8
3FF8
3FF8
0000
FC7C
FCFE
3DFE
3DBE
3F3E
3E1C
3E00
3E00
3E00
3E00
3E00
3E00
3E00
3E00
FFC0
FFC0
0000
0600
0F00
0F00
0F00
0600
ENDCHAR
STARTCHAR uni1E5E
ENCODING 7774
SWIDTH 815 0
DWIDTH 27 0
BBX 25 29 1 -4
BITMAP
FFFF8000
FFFFF000
1F83F800
1F81F800
1F80FC00
1F80FC00
1F80FC00
1F80FC00
1F80FC00
1F81F800
1F81F000
1F87C000
1FFF0000
1FFFC000
1F87E000
1F83E000
1F83F000
1F83F000
1F83F000
1F83F980
1F81F980
1F81FB00
1F81FF00
FFF0FE00
FFF07C00
00000000
01FFC000
01FFC000
01FFC000
ENDCHAR
STARTCHAR uni1E5F
ENCODING 7775
SWIDTH 519 0
DWIDTH 16 0
BBX 15 20 1 -4
BITMAP
FC7C
FCFE
3DFE
3DBE
3F3E
3E1C
3E00
3E00
3E00
3E00
3E00
3E00
3E00
3E00
FFC0
FFC0
0000
FFE0
FFE0
FFE0
ENDCHAR
STARTCHAR uni1E60
ENCODING 7776
SWIDTH 667 0
DWIDTH 21 0
BBX 19 31 1 0
BITMAP
006000
00F000
00F000
00F000
006000
000000
03F0C0
1FFDC0
3C1FC0
7807C0
7003C0
F001C0
F000C0
F800C0
FF00C0
FFF000
7FFE00
7FFF00
3FFF80
0FFFC0
07FFE0
407FE0
6007E0
6003E0
7001E0
7801E0
7801C0
7E03C0
7F0780
67FF00
61FC00
ENDCHAR
STARTCHAR uni1E61
ENCODING 7777
SWIDTH 500 0
DWIDTH 16 0
BBX 14 22 1 0
BITMAP
0300
0780
0780
0780
0300
0000
0FD8
3CF8
7038
F018
FE08
FFC0
FFF0
7FF8
3FF8
0FFC
C0FC
C03C
E038
F878
FFF0
CFC0
ENDCHAR
STARTCHAR uni1E62
ENCODING 7778
SWIDTH 667 0
DWIDTH 21 0
BBX 19 31 1 -6
BITMAP
03F0C0
1FFDC0
3C1FC0
7807C0
7003C0
F001C0
F000C0
F800C0
FF00C0
FFF000
7FFE00
7FFF00
3FFF80
0FFFC0
07FFE0
407FE0
6007E0
6003E0
7001E0
7801E0
7801C0
7E03C0
7F0780
67FF00
61FC00
000000
00C000
01E000
01E000
01E000
00C000
ENDCHAR
STARTCHAR uni1E63
ENCODING 7779
SWIDTH 500 0
DWIDTH 16 0
BBX 14 22 1 -6
BITMAP
0FD8
3CF8
7038
F018
FE08
FFC0
FFF0
7FF8
3FF8
0FFC
C0FC
C03C
E038
F878
FFF0
CFC0
0000
0300
0780
0780
0780
0300
ENDCHAR
STARTCHAR uni1E64
ENCODING 7780
SWIDTH 667 0
DWIDTH 21 0
BBX 19 38 1 0
BITMAP
006000
00F000
00F000
00F000
006000
000000
001800
003C00
007C00
00F800
01E000
018000
000000
03F0C0
1FFDC0
3C1FC0
7807C0
7003C0
F001C0
F000C0
F800C0
FF00C0
FFF000
7FFE00
7FFF00
3FFF80
0FFFC0
07FFE0
407FE0
6007E0
6003E0
7001E0
7801E0
7801C0
7E03C0
7F0780
67FF00
61FC00
ENDCHAR
STARTCHAR uni1E65
ENCODING 7781
SWIDTH 500 0
DWIDTH 16 0
BBX 14 29 1 0
BITMAP
0300
0780
0780
0780
0300
0000
00C0
01E0
03E0
07C0
0F00
0C00
0000
0FD8
3CF8
7038
F018
FE08
FFC0
FFF0
7FF8
3FF8
0FFC
C0FC
C03C
E038
F878
FFF0
CFC0
ENDCHAR
STARTCHAR uni1E66
ENCODING 7782
SWIDTH 667 0
DWIDTH 21 0
BBX 19 37 0 0
BITMAP
006000
00F000
00F000
00F000
006000
000000
0E0E00
071C00
03B800
01F000
00E000
000000
03F0C0
1FFDC0
3C1FC0
7807C0
7003C0
F001C0
F000C0
F800C0
FF00C0
FFF000
7FFE00
7FFF00
3FFF80
0FFFC0
07FFE0
407FE0
6007E0
6003E0
7001E0
7801E0
7801C0
7E03C0
7F0780
67FF00
61FC00
ENDCHAR
STARTCHAR uni1E67
ENCODING 7783
SWIDTH 500 0
DWIDTH 16 0
BBX 14 28 1 0
BITMAP
0300
0780
0780
0780
0300
0000
3838
1C70
0EE0
07C0
0380
0000
0FD8
38F8
3038
7018
7E08
7FC0
7FF0
7FF8
3FF8
0FFC
C0FC
C03C
E038
F878
FFF0
C7C0
ENDCHAR
STARTCHAR uni1E68
ENCODING 7784
SWIDTH 667 0
DWIDTH 21 0
BBX 19 37 1 -6
BITMAP
006000
00F000
00F000
00F000
006000
000000
03F0C0
1FFDC0
3C1FC0
7807C0
7003C0
F001C0
F000C0
F800C0
FF00C0
FFF000
7FFE00
7FFF00
3FFF80
0FFFC0
07FFE0
407FE0
6007E0
6003E0
7001E0
7801E0
7801C0
7E03C0
7F0780
67FF00
61FC00
000000
00C000
01E000
01E000
01E000
00C000
ENDCHAR
STARTCHAR uni1E69
ENCODING 7785
SWIDTH 500 0
DWIDTH 16 0
BBX 14 28 1 -6
BITMAP
0300
0780
0780
0780
0300
0000
0FD8
3CF8
7038
F018
FE08
FFC0
FFF0
7FF8
3FF8
0FFC
C0FC
C03C
E038
F878
FFF0
CFC0
0000
0300
0780
0780
0780
0300
ENDCHAR
STARTCHAR uni1E6A
ENCODING 7786
SWIDTH 722 0
DWIDTH 23 0
BBX 21 31 1 0
BITMAP
006000
00F000
00F000
00F000
006000
000000
FFFFF8
FFFFF8
F1F878
E1F838
E1F838
C1F818
C1F818
C1F818
81F808
81F808
01F800
01F800
01F800
01F800
01F800
01F800
01F800
01F800
01F800
01F800
01F800
01F800
01F800
0FFF80
0FFF80
ENDCHAR
STARTCHAR uni1E6B
ENCODING 7787
SWIDTH 426 0
DWIDTH 14 0
BBX 12 29 1 0
BITMAP
0600
0F00
0F00
0F00
0600
0000
0600
0600
0E00
0E00
0E00
1E00
3E00
FFE0
FFE0
3E00
3E00
3E00
3E00
3E00
3E00
3E00
3E30
3E30
3E30
3E60
3FE0
1FC0
0F80
ENDCHAR
STARTCHAR uni1E6C
ENCODING 7788
SWIDTH 722 0
DWIDTH 23 0
BBX 21 31 1 -6
BITMAP
FFFFF8
FFFFF8
F1F878
E1F838
E1F838
C1F818
C1F818
C1F818
81F808
81F808
01F800
01F800
01F800
01F800
01F800
01F800
01F800
01F800
01F800
01F800
01F800
01F800
01F800
0FFF80
0FFF80
000000
006000
00F000
00F000
00F000
006000
ENDCHAR
STARTCHAR uni1E6D
ENCODING 7789
SWIDTH 426 0
DWIDTH 14 0
BBX 12 29 1 -6
BITMAP
0600
0600
0E00
0E00
0E00
1E00
3E00
FFE0
FFE0
3E00
3E00
3E00
3E00
3E00
3E00
3E00
3E30
3E30
3E30
3E60
3FE0
1FC0
0F80
0000
0600
0F00
0F00
0F00
0600
ENDCHAR
STARTCHAR uni1E6E
ENCODING 7790
SWIDTH 722 0
DWIDTH 23 0
BBX 21 29 1 -4
BITMAP
FFFFF8
FFFFF8
F1F878
E1F838
E1F838
C1F818
C1F818
C1F818
81F808
81F808
01F800
01F800
01F800
01F800
01F800
01F800
01F800
01F800
01F800
01F800
01F800
01F800
01F800
0FFF80
0FFF80
000000
07FF00
07FF00
07FF00
ENDCHAR
STARTCHAR uni1E6F
ENCODING 7791
SWIDTH 426 0
DWIDTH 14 0
BBX 12 27 1 -4
BITMAP
0600
0600
0E00
0E00
0E00
1E00
3E00
FFE0
FFE0
3E00
3E00
3E00
3E00
3E00
3E00
3E00
3E30
3E30
3E30
3E60
3FE0
1FC0
0F80
0000
7FF0
7FF0
7FF0
ENDCHAR
STARTCHAR uni1E70
ENCODING 7792
SWIDTH 722 0
DWIDTH 23 0
BBX 21 31 1 -6
BITMAP
FFFFF8
FFFFF8
F1F878
E1F838
E1F838
C1F818
C1F818
C1F818
81F808
81F808
01F800
01F800
01F800
01F800
01F800
01F800
01F800
01F800
01F800
01F800
01F800
01F800
01F800
0FFF80
0FFF80
000000
007000
00F800
01DC00
038E00
070700
ENDCHAR
STARTCHAR uni1E71
ENCODING 7793
SWIDTH 426 0
DWIDTH 14 0
BBX 12 29 1 -6
BITMAP
0600
0600
0E00
0E00
0E00
1E00
3E00
FFE0
FFE0
3E00
3E00
3E00
3E00
3E00
3E00
3E00
3E30
3E30
3E30
3E60
3FE0
1FC0
0F80
0000
0700
0F80
1DC0
38E0
7070
ENDCHAR
STARTCHAR uni1E72
ENCODING 7794
SWIDTH 833 0
DWIDTH 28 0
BBX 26 31 1 -6
BITMAP
FFF0FFC0
FFF0FFC0
1F801E00
1F800C00
1F800C00
1F800C00
1F800C00
1F800C00
1F800C00
1F800C00
1F800C00
1F800C00
1F800C00
1F800C00
1F800C00
1F800C00
1F800C00
1F800C00
1F800C00
1F801C00
0FC01800
0FE03800
07F8F000
03FFE000
00FFC000
00000000
00C18000
01E3C000
01E3C000
01E3C000
00C18000
ENDCHAR
STARTCHAR uni1E73
ENCODING 7795
SWIDTH 685 0
DWIDTH 22 0
BBX 20 22 1 -6
BITMAP
FE1FC0
FE1FC0
3E07C0
3E07C0
3E07C0
3E07C0
3E07C0
3E07C0
3E07C0
3E07C0
3E0FC0
3E0FC0
3F1FC0
1FFFC0
1FF7F0
07C7F0
000000
030600
078F00
078F00
078F00
030600
ENDCHAR
STARTCHAR uni1E74
ENCODING 7796
SWIDTH 833 0
DWIDTH 28 0
BBX 26 30 1 -5
BITMAP
FFF0FFC0
FFF0FFC0
1F801E00
1F800C00
1F800C00
1F800C00
1F800C00
1F800C00
1F800C00
1F800C00
1F800C00
1F800C00
1F800C00
1F800C00
1F800C00
1F800C00
1F800C00
1F800C00
1F800C00
1F801C00
0FC01800
0FE03800
07F8F000
03FFE000
00FFC000
00000000
00E18000
01FF8000
03FF0000
030E0000
ENDCHAR
STARTCHAR uni1E75
ENCODING 7797
SWIDTH 685 0
DWIDTH 22 0
BBX 20 21 1 -5
BITMAP
FE1FC0
FE1FC0
3E07C0
3E07C0
3E07C0
3E07C0
3E07C0
3E07C0
3E07C0
3E07C0
3E0FC0
3E0FC0
3F1FC0
1FFFC0
1FF7F0
07C7F0
000000
01C300
03FF00
07FE00
061C00
ENDCHAR
STARTCHAR uni1E76
ENCODING 7798
SWIDTH 833 0
DWIDTH 28 0
BBX 26 31 1 -6
BITMAP
FFF0FFC0
FFF0FFC0
1F801E00
1F800C00
1F800C00
1F800C00
1F800C00
1F800C00
1F800C00
1F800C00
1F800C00
1F800C00
1F800C00
1F800C00
1F800C00
1F800C00
1F800C00
1F800C00
1F800C00
1F801C00
0FC01800
0FE03800
07F8F000
03FFE000
00FFC000
00000000
001C0000
003E0000
00770000
00E38000
01C1C000
ENDCHAR
STARTCHAR uni1E77
ENCODING 7799
SWIDTH 685 0
DWIDTH 22 0
BBX 20 22 1 -6
BITMAP
FE1FC0
FE1FC0
3E07C0
3E07C0
3E07C0
3E07C0
3E07C0
3E07C0
3E07C0
3E07C0
3E0FC0
3E0FC0
3F1FC0
1FFFC0
1FF7F0
07C7F0
000000
007000
00F800
01DC00
038E00
070700
ENDCHAR
STARTCHAR uni1E78
ENCODING 7800
SWIDTH 833 0
DWIDTH 28 0
BBX 26 37 1 0
BITMAP
00030000
00078000
000F8000
001F0000
003C0000
00300000
00000000
0070C000
00FFC000
01FF8000
01870000
00000000
FFF0FFC0
FFF0FFC0
1F801E00
1F800C00
1F800C00
1F800C00
1F800C00
1F800C00
1F800C00
1F800C00
1F800C00
1F800C00
1F800C00
1F800C00
1F800C00
1F800C00
1F800C00
1F800C00
1F800C00
1F801C00
0FC01800
0FE03800
07F8F000
03FFE000
00FFC000
ENDCHAR
STARTCHAR uni1E79
ENCODING 7801
SWIDTH 685 0
DWIDTH 22 0
BBX 20 28 1 0
BITMAP
000C00
001E00
003E00
007C00
00F000
00C000
000000
01C300
03FF00
07FE00
061C00
000000
FE1FC0
FE1FC0
3E07C0
3E07C0
3E07C0
3E07C0
3E07C0
3E07C0
3E07C0
3E07C0
3E0FC0
3E0FC0
3F1FC0
1FFFC0
1FF7F0
07C7F0
ENDCHAR
STARTCHAR uni1E7A
ENCODING 7802
SWIDTH 833 0
DWIDTH 28 0
BBX 26 35 1 0
BITMAP
00C18000
01E3C000
01E3C000
01E3C000
00C18000
00000000
01FFC000
01FFC000
01FFC000
00000000
FFF0FFC0
FFF0FFC0
1F801E00
1F800C00
1F800C00
1F800C00
1F800C00
1F800C00
1F800C00
1F800C00
1F800C00
1F800C00
1F800C00
1F800C00
1F800C00
1F800C00
1F800C00
1F800C00
1F800C00
1F801C00
0FC01800
0FE03800
07F8F000
03FFE000
00FFC000
ENDCHAR
STARTCHAR uni1E7B
ENCODING 7803
SWIDTH 685 0
DWIDTH 22 0
BBX 20 26 1 0
BITMAP
060C00
0F1E00
0F1E00
0F1E00
060C00
000000
0FFE00
0FFE00
0FFE00
000000
FE1FC0
FE1FC0
3E07C0
3E07C0
3E07C0
3E07C0
3E07C0
3E07C0
3E07C0
3E07C0
3E0FC0
3E0FC0
3F1FC0
1FFFC0
1FF7F0
07C7F0
ENDCHAR
STARTCHAR uni1E7C
ENCODING 7804
SWIDTH 759 0
DWIDTH 25 0
BBX 25 30 0 0
BITMAP
0070C000
00FFC000
01FF8000
01870000
00000000
FFE0FF80
FFE0FF80
3F803E00
1F801C00
1F801C00
1FC01800
0FC03800
0FC03000
07E07000
07E07000
07F06000
03F0E000
03F0C000
01F8C000
01F9C000
01F98000
00FF8000
00FF0000
00FF0000
007F0000
007E0000
003E0000
003E0000
003C0000
001C0000
ENDCHAR
STARTCHAR uni1E7D
ENCODING 7805
SWIDTH 611 0
DWIDTH 19 0
BBX 19 21 0 0
BITMAP
038600
07FE00
0FFC00
0C3800
000000
FF8FE0
FF8FE0
3F03C0
3F0380
1F0300
1F8700
0F8600
0FC600
07CC00
07EC00
03F800
03F800
01F800
01F000
00F000
00E000
ENDCHAR
STARTCHAR uni1E7E
ENCODING 7806
SWIDTH 759 0
DWIDTH 25 0
BBX 25 31 0 -6
BITMAP
FFE0FF80
FFE0FF80
3F803E00
1F801C00
1F801C00
1FC01800
0FC03800
0FC03000
07E07000
07E07000
07F06000
03F0E000
03F0C000
01F8C000
01F9C000
01F98000
00FF8000
00FF0000
00FF0000
007F0000
007E0000
003E0000
003E0000
003C0000
001C0000
00000000
00180000
003C0000
003C0000
003C0000
00180000
ENDCHAR
STARTCHAR uni1E7F
ENCODING 7807
SWIDTH 611 0
DWIDTH 19 0
BBX 19 22 0 -6
BITMAP
FF8FE0
FF8FE0
3F03C0
3F0380
1F0300
1F8700
0F8600
0FC600
07CC00
07EC00
03F800
03F800
01F800
01F000
00F000
00E000
000000
006000
00F000
00F000
00F000
006000
ENDCHAR
STARTCHAR Wgrave
ENCODING 7808
SWIDTH 981 0
DWIDTH 32 0
BBX 32 32 0 0
BITMAP
000C0000
001E0000
001F0000
000F8000
0003C000
0000C000
00000000
FFDFF9FF
FFDFF9FF
3F07E07C
3F07E038
1F83E030
1F83F070
1F83F070
0FC1F060
0FC3F860
0FC3F8E0
07C3F8C0
07E7F8C0
07E6FCC0
07E6FD80
03FE7D80
03FC7F80
03FC7F80
01FC3F00
01F83F00
01F83F00
00F83E00
00F81E00
00F01E00
00701C00
00700C00
ENDCHAR
STARTCHAR wgrave
ENCODING 7809
SWIDTH 889 0
DWIDTH 29 0
BBX 27 23 1 0
BITMAP
00600000
00F00000
00F80000
007C0000
001E0000
00060000
00000000
FFBFEFE0
FFBFEFE0
7E1F83C0
3E0F8380
3F0F8300
1F0FC300
1F8FC600
0F9FE600
0F9BE600
0FFBEC00
07F1FC00
07F1F800
03E1F800
03E0F000
01C0F000
01C06000
ENDCHAR
STARTCHAR Wacute
ENCODING 7810
SWIDTH 981 0
DWIDTH 32 0
BBX 32 32 0 0
BITMAP
00006000
0000F000
0001F000
0003E000
00078000
00060000
00000000
FFDFF9FF
FFDFF9FF
3F07E07C
3F07E038
1F83E030
1F83F070
1F83F070
0FC1F060
0FC3F860
0FC3F8E0
07C3F8C0
07E7F8C0
07E6FCC0
07E6FD80
03FE7D80
03FC7F80
03FC7F80
01FC3F00
01F83F00
01F83F00
00F83E00
00F81E00
00F01E00
00701C00
00700C00
ENDCHAR
STARTCHAR wacute
ENCODING 7811
SWIDTH 889 0
DWIDTH 29 0
BBX 27 23 1 0
BITMAP
00018000
0003C000
0007C000
000F8000
001E0000
00180000
00000000
FFBFEFE0
FFBFEFE0
7E1F83C0
3E0F8380
3F0F8300
1F0FC300
1F8FC600
0F9FE600
0F9BE600
0FFBEC00
07F1FC00
07F1F800
03E1F800
03E0F000
01C0F000
01C06000
ENDCHAR
STARTCHAR Wdieresis
ENCODING 7812
SWIDTH 981 0
DWIDTH 32 0
BBX 32 31 0 0
BITMAP
00183000
003C7800
003C7800
003C7800
00183000
00000000
FFDFF9FF
FFDFF9FF
3F07E07C
3F07E038
1F83E030
1F83F070
1F83F070
0FC1F060
0FC3F860
0FC3F8E0
07C3F8C0
07E7F8C0
07E6FCC0
07E6FD80
03FE7D80
03FC7F80
03FC7F80
01FC3F00
01F83F00
01F83F00
00F83E00
00F81E00
00F01E00
00701C00
00700C00
ENDCHAR
STARTCHAR wdieresis
ENCODING 7813
SWIDTH 889 0
DWIDTH 29 0
BBX 27 22 1 0
BITMAP
0060C000
00F1E000
00F1E000
00F1E000
0060C000
00000000
FFBFEFE0
FFBFEFE0
7E1F83C0
3E0F8380
3F0F8300
1F0FC300
1F8FC600
0F9FE600
0F9BE600
0FFBEC00
07F1FC00
07F1F800
03E1F800
03E0F000
01C0F000
01C06000
ENDCHAR
STARTCHAR uni1E86
ENCODING 7814
SWIDTH 981 0
DWIDTH 32 0
BBX 32 31 0 0
BITMAP
00030000
00078000
00078000
00078000
00030000
00000000
FFDFF9FF
FFDFF9FF
3F07E07C
3F07E038
1F83E030
1F83F070
1F83F070
0FC1F060
0FC3F860
0FC3F8E0
07C3F8C0
07E7F8C0
07E6FCC0
07E6FD80
03FE7D80
03FC7F80
03FC7F80
01FC3F00
01F83F00
01F83F00
00F83E00
00F81E00
00F01E00
00701C00
00700C00
ENDCHAR
STARTCHAR uni1E87
ENCODING 7815
SWIDTH 889 0
DWIDTH 29 0
BBX 27 22 1 0
BITMAP
000C0000
001E0000
001E0000
001E0000
000C0000
00000000
FFBFEFE0
FFBFEFE0
7E1F83C0
3E0F8380
3F0F8300
1F0FC300
1F8FC600
0F9FE600
0F9BE600
0FFBEC00
07F1FC00
07F1F800
03E1F800
03E0F000
01C0F000
01C06000
ENDCHAR
STARTCHAR uni1E88
ENCODING 7816
SWIDTH 981 0
DWIDTH 32 0
BBX 32 31 0 -6
BITMAP
FFDFF9FF
FFDFF9FF
3F07E07C
3F07E038
1F83E030
1F83F070
1F83F070
0FC1F060
0FC3F860
0FC3F8E0
07C3F8C0
07E7F8C0
07E6FCC0
07E6FD80
03FE7D80
03FC7F80
03FC7F80
01FC3F00
01F83F00
01F83F00
00F83E00
00F81E00
00F01E00
00701C00
00700C00
00000000
00018000
0003C000
0003C000
0003C000
00018000
ENDCHAR
STARTCHAR uni1E89
ENCODING 7817
SWIDTH 889 0
DWIDTH 29 0
BBX 27 22 1 -6
BITMAP
FFBFEFE0
FFBFEFE0
7E1F83C0
3E0F8380
3F0F8300
1F0FC300
1F8FC600
0F9FE600
0F9BE600
0FFBEC00
07F1FC00
07F1F800
03E1F800
03E0F000
01C0F000
01C06000
00000000
000C0000
001E0000
001E0000
001E0000
000C0000
ENDCHAR
STARTCHAR uni1E8A
ENCODING 7818
SWIDTH 722 0
DWIDTH 24 0
BBX 24 31 0 0
BITMAP
001800
003C00
003C00
003C00
001800
000000
FFE3FF
FFE3FF
3F80FC
1FC078
1FC070
0FE0E0
07E0C0
07F1C0
03FF80
03FF00
01FF00
00FE00
00FE00
007F00
007F80
00FF80
01DFC0
038FE0
038FE0
0707F0
0E03F0
1E03F8
3F03FC
FFEFFF
FFEFFF
ENDCHAR
STARTCHAR uni1E8B
ENCODING 7819
SWIDTH 611 0
DWIDTH 19 0
BBX 19 22 0 0
BITMAP
00C000
01E000
01E000
01E000
00C000
000000
FFDFE0
FFDFE0
3F0700
1F8E00
1FDC00
0FF800
07F000
03F000
01F800
03FC00
07FE00
0E7E00
1C3F00
3C3F80
FF7FE0
FF7FE0
ENDCHAR
STARTCHAR uni1E8C
ENCODING 7820
SWIDTH 722 0
DWIDTH 24 0
BBX 24 31 0 0
BITMAP
018300
03C780
03C780
03C780
018300
000000
FFE3FF
FFE3FF
3F80FC
1FC078
1FC070
0FE0E0
07E0C0
07F1C0
03FF80
03FF00
01FF00
00FE00
00FE00
007F00
007F80
00FF80
01DFC0
038FE0
038FE0
0707F0
0E03F0
1E03F8
3F03FC
FFEFFF
FFEFFF
ENDCHAR
STARTCHAR uni1E8D
ENCODING 7821
SWIDTH 611 0
DWIDTH 19 0
BBX 19 22 0 0
BITMAP
060C00
0F1E00
0F1E00
0F1E00
060C00
000000
FFDFE0
FFDFE0
3F0700
1F8E00
1FDC00
0FF800
07F000
03F000
01F800
03FC00
07FE00
0E7E00
1C3F00
3C3F80
FF7FE0
FF7FE0
ENDCHAR
STARTCHAR uni1E8E
ENCODING 7822
SWIDTH 722 0
DWIDTH 24 0
BBX 24 31 0 0
BITMAP
003000
007800
007800
007800
003000
000000
FFF1FF
FFF1FF
3F807C
1FC038
1FC070
0FE070
0FE0E0
07F0C0
03F1C0
03F980
01FB80
01FF00
00FF00
007E00
007E00
007E00
007E00
007E00
007E00
007E00
007E00
007E00
007E00
03FFC0
03FFC0
ENDCHAR
STARTCHAR uni1E8F
ENCODING 7823
SWIDTH 611 0
DWIDTH 19 0
BBX 19 29 0 -7
BITMAP
00C000
01E000
01E000
01E000
00C000
000000
FF8FE0
FF8FE0
3F0380
3F0380
1F0300
1F8700
0F8600
0FC600
07CC00
07EC00
03F800
03F800
01F800
01F000
00F000
00E000
006000
70C000
F8C000
F98000
FF0000
7F0000
3C0000
ENDCHAR
STARTCHAR uni1E90
ENCODING 7824
SWIDTH 667 0
DWIDTH 21 0
BBX 19 31 1 0
BITMAP
007000
00F800
01DC00
038E00
070700
000000
7FFFE0
7FFFE0
7E0FE0
780FE0
701FC0
701F80
603F80
607F00
407E00
00FE00
01FC00
01FC00
03F800
03F000
07F000
0FE020
0FE060
1FC060
1F8060
3F80E0
7F00E0
7F01E0
FE07E0
FFFFE0
FFFFE0
ENDCHAR
STARTCHAR uni1E91
ENCODING 7825
SWIDTH 537 0
DWIDTH 16 0
BBX 14 22 1 0
BITMAP
0380
07C0
0EE0
1C70
3838
0000
7FFC
7FFC
70FC
61F8
61F8
43F0
07E0
07E0
0FC0
1F80
1F0C
3F0C
7E1C
7C1C
FFFC
FFFC
ENDCHAR
STARTCHAR uni1E92
ENCODING 7826
SWIDTH 667 0
DWIDTH 21 0
BBX 19 31 1 -6
BITMAP
7FFFE0
7FFFE0
7E0FE0
780FE0
701FC0
701F80
603F80
607F00
407E00
00FE00
01FC00
01FC00
03F800
03F000
07F000
0FE020
0FE060
1FC060
1F8060
3F80E0
7F00E0
7F01E0
FE07E0
FFFFE0
FFFFE0
000000
00C000
01E000
01E000
01E000
00C000
ENDCHAR
STARTCHAR uni1E93
ENCODING 7827
SWIDTH 537 0
DWIDTH 16 0
BBX 14 22 1 -6
BITMAP
7FFC
7FFC
70FC
61F8
61F8
43F0
07E0
07E0
0FC0
1F80
1F0C
3F0C
7E1C
7C1C
FFFC
FFFC
0000
0300
0780
0780
0780
0300
ENDCHAR
STARTCHAR uni1E94
ENCODING 7828
SWIDTH 667 0
DWIDTH 21 0
BBX 19 29 1 -4
BITMAP
7FFFE0
7FFFE0
7E0FE0
780FE0
701FC0
701F80
603F80
607F00
407E00
00FE00
01FC00
01FC00
03F800
03F000
07F000
0FE020
0FE060
1FC060
1F8060
3F80E0
7F00E0
7F01E0
FE07E0
FFFFE0
FFFFE0
000000
0FFE00
0FFE00
0FFE00
ENDCHAR
STARTCHAR uni1E95
ENCODING 7829
SWIDTH 537 0
DWIDTH 16 0
BBX 14 20 1 -4
BITMAP
7FFC
7FFC
70FC
61F8
61F8
43F0
07E0
07E0
0FC0
1F80
1F0C
3F0C
7E1C
7C1C
FFFC
FFFC
0000
7FF0
7FF0
7FF0
ENDCHAR
STARTCHAR uni1E96
ENCODING 7830
SWIDTH 685 0
DWIDTH 22 0
BBX 20 29 1 -4
BITMAP
FE0000
FE0000
3E0000
3E0000
3E0000
3E0000
3E0000
3E0000
3E0000
3E3E00
3EFF80
3FFF80
3F8FC0
3F07C0
3F07C0
3E07C0
3E07C0
3E07C0
3E07C0
3E07C0
3E07C0
3E07C0
3E07C0
FF9FF0
FF9FF0
000000
07FF00
07FF00
07FF00
ENDCHAR
STARTCHAR uni1E97
ENCODING 7831
SWIDTH 426 0
DWIDTH 14 0
BBX 12 29 1 0
BITMAP
60C0
F1E0
F1E0
F1E0
60C0
0000
0600
0600
0E00
0E00
0E00
1E00
3E00
FFE0
FFE0
3E00
3E00
3E00
3E00
3E00
3E00
3E00
3E30
3E30
3E30
3E60
3FE0
1FC0
0F80
ENDCHAR
STARTCHAR uni1E98
ENCODING 7832
SWIDTH 889 0
DWIDTH 29 0
BBX 27 23 1 0
BITMAP
001F0000
003B8000
00318000
00318000
003B8000
001F0000
00000000
FFBFEFE0
FFBFEFE0
7E1F83C0
3E0F8380
3F0F8300
1F0FC300
1F8FC600
0F9FE600
0F9BE600
0FFBEC00
07F1FC00
07F1F800
03E1F800
03E0F000
01C0F000
01C06000
ENDCHAR
STARTCHAR uni1E99
ENCODING 7833
SWIDTH 611 0
DWIDTH 19 0
BBX 19 30 0 -7
BITMAP
01F000
03B800
031800
031800
03B800
01F000
000000
FF8FE0
FF8FE0
3F0380
3F0380
1F0300
1F8700
0F8600
0FC600
07CC00
07EC00
03F800
03F800
01F800
01F000
00F000
00E000
006000
70C000
F8C000
F98000
FF0000
7F0000
3C0000
ENDCHAR
STARTCHAR uni1EA0
ENCODING 7840
SWIDTH 759 0
DWIDTH 25 0
BBX 25 31 0 -6
BITMAP
001C0000
001C0000
001E0000
003E0000
003F0000
007F0000
007F8000
007F8000
00FF8000
00CFC000
01CFC000
018FC000
0187E000
0387E000
0307F000
0703F000
07FFF000
07FFF800
0E01F800
0C01FC00
1C00FC00
1C00FE00
3E00FE00
FF83FF80
FF83FF80
00000000
000C0000
001E0000
001E0000
001E0000
000C0000
ENDCHAR
STARTCHAR uni1EA1
ENCODING 7841
SWIDTH 611 0
DWIDTH 20 0
BBX 18 22 1 -6
BITMAP
0FF000
3FFC00
787E00
7C3E00
7C3E00
383E00
003E00
03FE00
1FBE00
7E3E00
7C3E00
FC3E00
FC3E00
FC7F40
7FFFC0
3F8F80
000000
00C000
01E000
01E000
01E000
00C000
ENDCHAR
STARTCHAR uni1EA4
ENCODING 7844
SWIDTH 759 0
DWIDTH 25 0
BBX 25 38 0 0
BITMAP
00030000
00078000
000F8000
001F0000
003C0000
00300000
00000000
001C0000
003E0000
007F0000
00E38000
0180C000
00000000
001C0000
001C0000
001E0000
003E0000
003F0000
007F0000
007F8000
007F8000
00FF8000
00CFC000
01CFC000
018FC000
0187E000
0387E000
0307F000
0703F000
07FFF000
07FFF800
0E01F800
0C01FC00
1C00FC00
1C00FE00
3E00FE00
FF83FF80
FF83FF80
ENDCHAR
STARTCHAR uni1EA5
ENCODING 7845
SWIDTH 611 0
DWIDTH 20 0
BBX 18 29 1 0
BITMAP
003000
007800
00F800
01F000
03C000
030000
000000
01C000
03E000
07F000
0E3800
180C00
000000
0FF000
3FFC00
783E00
7C3E00
7C3E00
383E00
003E00
03FE00
1FBE00
7E3E00
7C3E00
FC3E00
FC3E00
FC7F40
7FFFC0
3F8F80
ENDCHAR
STARTCHAR uni1EA6
ENCODING 7846
SWIDTH 759 0
DWIDTH 25 0
BBX 25 38 0 0
BITMAP
00600000
00F00000
00F80000
007C0000
001E0000
00060000
00000000
001C0000
003E0000
007F0000
00E38000
0180C000
00000000
001C0000
001C0000
001E0000
003E0000
003F0000
007F0000
007F8000
007F8000
00FF8000
00CFC000
01CFC000
018FC000
0187E000
0387E000
0307F000
0703F000
07FFF000
07FFF800
0E01F800
0C01FC00
1C00FC00
1C00FE00
3E00FE00
FF83FF80
FF83FF80
ENDCHAR
STARTCHAR uni1EA7
ENCODING 7847
SWIDTH 611 0
DWIDTH 20 0
BBX 18 29 1 0
BITMAP
060000
0F0000
0F8000
07C000
01E000
006000
000000
01C000
03E000
07F000
0E3800
180C00
000000
0FF000
3FFC00
783E00
7C3E00
7C3E00
383E00
003E00
03FE00
1FBE00
7E3E00
7C3E00
FC3E00
FC3E00
FC7F40
7FFFC0
3F8F80
ENDCHAR
STARTCHAR uni1EAA
ENCODING 7850
SWIDTH 759 0
DWIDTH 25 0
BBX 25 36 0 0
BITMAP
0070C000
00FFC000
01FF8000
01870000
00000000
001C0000
003E0000
007F0000
00E38000
0180C000
00000000
001C0000
001C0000
001E0000
003E0000
003F0000
007F0000
007F8000
007F8000
00FF8000
00CFC000
01CFC000
018FC000
0187E000
0387E000
0307F000
0703F000
07FFF000
07FFF800
0E01F800
0C01FC00
1C00FC00
1C00FE00
3E00FE00
FF83FF80
FF83FF80
ENDCHAR
STARTCHAR uni1EAB
ENCODING 7851
SWIDTH 611 0
DWIDTH 20 0
BBX 18 27 1 0
BITMAP
038600
07FE00
0FFC00
0C3800
000000
01C000
03E000
07F000
0E3800
180C00
000000
0FF000
3FFC00
783E00
7C3E00
7C3E00
383E00
003E00
03FE00
1FBE00
7E3E00
7C3E00
FC3E00
FC3E00
FC7F40
7FFFC0
3F8F80
ENDCHAR
STARTCHAR uni1EAC
ENCODING 7852
SWIDTH 759 0
DWIDTH 25 0
BBX 25 37 0 -6
BITMAP
001C0000
003E0000
00770000
00E38000
01C1C000
00000000
001C0000
001C0000
001E0000
003E0000
003F0000
007F0000
007F8000
007F8000
00FF8000
00CFC000
01CFC000
018FC000
0187E000
0387E000
0307F000
0703F000
07FFF000
07FFF800
0E01F800
0C01FC00
1C00FC00
1C00FE00
3E00FE00
FF83FF80
FF83FF80
00000000
000C0000
001E0000
001E0000
001E0000
000C0000
ENDCHAR
STARTCHAR uni1EAD
ENCODING 7853
SWIDTH 611 0
DWIDTH 20 0
BBX 18 28 1 -6
BITMAP
01C000
03E000
077000
0E3800
1C1C00
000000
0FF000
3FFC00
787E00
7C3E00
7C3E00
383E00
003E00
03FE00
1FBE00
7E3E00
7C3E00
FC3E00
FC3E00
FC7F40
7FFFC0
3F8F80
000000
00C000
01E000
01E000
01E000
00C000
ENDCHAR
STARTCHAR uni1EAE
ENCODING 7854
SWIDTH 759 0
DWIDTH 25 0
BBX 25 39 0 0
BITMAP
00018000
0003C000
0007C000
000F8000
001E0000
00180000
00000000
00C0C000
00C0C000
00E1C000
007F8000
007F8000
001E0000
00000000
001C0000
001C0000
001E0000
003E0000
003F0000
007F0000
007F8000
007F8000
00FF8000
00CFC000
01CFC000
018FC000
0187E000
0387E000
0307F000
0703F000
07FFF000
07FFF800
0E01F800
0C01FC00
1C00FC00
1C00FE00
3E00FE00
FF83FF80
FF83FF80
ENDCHAR
STARTCHAR uni1EAF
ENCODING 7855
SWIDTH 611 0
DWIDTH 20 0
BBX 18 30 1 0
BITMAP
003000
007800
00F800
01F000
03C000
030000
000000
181800
181800
1C3800
0FF000
0FF000
03C000
000000
0FF000
3FFC00
787E00
7C3E00
7C3E00
383E00
003E00
03FE00
1FBE00
7E3E00
7C3E00
FC3E00
FC3E00
FC7F40
7FFFC0
3F8F80
ENDCHAR
STARTCHAR uni1EB0
ENCODING 7856
SWIDTH 759 0
DWIDTH 25 0
BBX 25 39 0 0
BITMAP
00600000
00F00000
00F80000
007C0000
001E0000
00060000
00000000
00C0C000
00C0C000
00E1C000
007F8000
007F8000
001E0000
00000000
001C0000
001C0000
001E0000
003E0000
003F0000
007F0000
007F8000
007F8000
00FF8000
00CFC000
01CFC000
018FC000
0187E000
0387E000
0307F000
0703F000
07FFF000
07FFF800
0E01F800
0C01FC00
1C00FC00
1C00FE00
3E00FE00
FF83FF80
FF83FF80
ENDCHAR
STARTCHAR uni1EB1
ENCODING 7857
SWIDTH 611 0
DWIDTH 20 0
BBX 18 30 1 0
BITMAP
060000
0F0000
0F8000
07C000
01E000
006000
000000
181800
181800
1C3800
0FF000
0FF000
03C000
000000
0FF000
3FFC00
787E00
7C3E00
7C3E00
383E00
003E00
03FE00
1FBE00
7E3E00
7C3E00
FC3E00
FC3E00
FC7F40
7FFFC0
3F8F80
ENDCHAR
STARTCHAR uni1EB4
ENCODING 7860
SWIDTH 759 0
DWIDTH 25 0
BBX 25 37 0 0
BITMAP
00386000
007FE000
00FFC000
00C38000
00000000
00C0C000
00C0C000
00E1C000
007F8000
007F8000
001E0000
00000000
001C0000
001C0000
001E0000
003E0000
003F0000
007F0000
007F8000
007F8000
00FF8000
00CFC000
01CFC000
018FC000
0187E000
0387E000
0307F000
0703F000
07FFF000
07FFF800
0E01F800
0C01FC00
1C00FC00
1C00FE00
3E00FE00
FF83FF80
FF83FF80
ENDCHAR
STARTCHAR uni1EB5
ENCODING 7861
SWIDTH 611 0
DWIDTH 20 0
BBX 18 28 1 0
BITMAP
070C00
0FFC00
1FF800
187000
000000
181800
181800
1C3800
0FF000
0FF000
03C000
000000
0FF000
3FFC00
787E00
7C3E00
7C3E00
383E00
003E00
03FE00
1FBE00
7E3E00
7C3E00
FC3E00
FC3E00
FC7F40
7FFFC0
3F8F80
ENDCHAR
STARTCHAR uni1EB6
ENCODING 7862
SWIDTH 759 0
DWIDTH 25 0
BBX 25 38 0 -6
BITMAP
00C0C000
00C0C000
00E1C000
007F8000
007F8000
001E0000
00000000
001C0000
001C0000
001E0000
003E0000
003F0000
007F0000
007F8000
007F8000
00FF8000
00CFC000
01CFC000
018FC000
0187E000
0387E000
0307F000
0703F000
07FFF000
07FFF800
0E01F800
0C01FC00
1C00FC00
1C00FE00
3E00FE00
FF83FF80
FF83FF80
00000000
000C0000
001E0000
001E0000
001E0000
000C0000
ENDCHAR
STARTCHAR uni1EB7
ENCODING 7863
SWIDTH 611 0
DWIDTH 20 0
BBX 18 29 1 -6
BITMAP
181800
181800
1C3800
0FF000
0FF000
03C000
000000
0FF000
3FFC00
787E00
7C3E00
7C3E00
383E00
003E00
03FE00
1FBE00
7E3E00
7C3E00
FC3E00
FC3E00
FC7F40
7FFFC0
3F8F80
000000
00C000
01E000
01E000
01E000
00C000
ENDCHAR
STARTCHAR uni1EB8
ENCODING 7864
SWIDTH 759 0
DWIDTH 23 0
BBX 21 31 1 -6
BITMAP
FFFFF8
FFFFF8
1F81F8
1F80F8
1F8078
1F8038
1F8038
1F8618
1F8618
1F8E00
1F8E00
1F9E00
1FFE00
1FFE00
1F9E00
1F8E00
1F8618
1F8618
1F8618
1F8038
1F8038
1F8078
1F81F8
FFFFF8
FFFFF8
000000
003000
007800
007800
007800
003000
ENDCHAR
STARTCHAR uni1EB9
ENCODING 7865
SWIDTH 574 0
DWIDTH 18 0
BBX 16 22 1 -6
BITMAP
03E0
0FF8
3C3C
781E
781E
F81F
F81F
FFFF
FFFF
F800
F800
FC03
7C06
3F0E
1FFC
07F0
0000
0180
03C0
03C0
03C0
0180
ENDCHAR
STARTCHAR uni1EBC
ENCODING 7868
SWIDTH 759 0
DWIDTH 23 0
BBX 21 30 1 0
BITMAP
00E180
01FF80
03FF00
030E00
000000
FFFFF8
FFFFF8
1F81F8
1F80F8
1F8078
1F8038
1F8038
1F8618
1F8618
1F8E00
1F8E00
1F9E00
1FFE00
1FFE00
1F9E00
1F8E00
1F8618
1F8618
1F8618
1F8038
1F8038
1F8078
1F81F8
FFFFF8
FFFFF8
ENDCHAR
STARTCHAR uni1EBD
ENCODING 7869
SWIDTH 574 0
DWIDTH 18 0
BBX 16 21 1 0
BITMAP
070C
0FFC
1FF8
1870
0000
03E0
0FF8
3C3C
781E
781E
F81F
F81F
FFFF
FFFF
F800
F800
FC03
7C06
3F0E
1FFC
07F0
ENDCHAR
STARTCHAR uni1EBE
ENCODING 7870
SWIDTH 759 0
DWIDTH 23 0
BBX 21 39 1 0
BITMAP
000C00
001E00
003E00
007C00
00F000
00C000
000000
003800
007C00
00FE00
01C700
030180
000000
000000
FFFFF8
FFFFF8
1F81F8
1F80F8
1F8078
1F8038
1F8038
1F8618
1F8618
1F8E00
1F8E00
1F9E00
1FFE00
1FFE00
1F9E00
1F8E00
1F8618
1F8618
1F8618
1F8038
1F8038
1F8078
1F81F8
FFFFF8
FFFFF8
ENDCHAR
STARTCHAR uni1EBF
ENCODING 7871
SWIDTH 574 0
DWIDTH 18 0
BBX 16 29 1 0
BITMAP
0030
0078
00F8
01F0
03C0
0300
0000
01C0
03E0
07F0
0E38
180C
0000
03E0
0E78
3C3C
7C1E
7C1E
F81F
F81F
FFFF
FFFF
F800
F800
FC03
7C06
3F0E
1FFC
07F0
ENDCHAR
STARTCHAR uni1EC0
ENCODING 7872
SWIDTH 759 0
DWIDTH 23 0
BBX 21 39 1 0
BITMAP
018000
03C000
03E000
01F000
007800
001800
000000
003800
007C00
00FE00
01C700
030180
000000
000000
FFFFF8
FFFFF8
1F81F8
1F80F8
1F8078
1F8038
1F8038
1F8618
1F8618
1F8E00
1F8E00
1F9E00
1FFE00
1FFE00
1F9E00
1F8E00
1F8618
1F8618
1F8618
1F8038
1F8038
1F8078
1F81F8
FFFFF8
FFFFF8
ENDCHAR
STARTCHAR uni1EC1
ENCODING 7873
SWIDTH 574 0
DWIDTH 18 0
BBX 16 29 1 0
BITMAP
0600
0F00
0F80
07C0
01E0
0060
0000
01C0
03E0
07F0
0E38
180C
0000
03E0
0E78
3C3C
7C1E
7C1E
F81F
F81F
FFFF
FFFF
F800
F800
FC03
7C06
3F0E
1FFC
07F0
ENDCHAR
STARTCHAR uni1EC4
ENCODING 7876
SWIDTH 759 0
DWIDTH 23 0
BBX 21 37 1 0
BITMAP
00E180
01FF80
03FF00
030E00
000000
003800
007C00
00FE00
01C700
030180
000000
000000
FFFFF8
FFFFF8
1F81F8
1F80F8
1F8078
1F8038
1F8038
1F8618
1F8618
1F8E00
1F8E00
1F9E00
1FFE00
1FFE00
1F9E00
1F8E00
1F8618
1F8618
1F8618
1F8038
1F8038
1F8078
1F81F8
FFFFF8
FFFFF8
ENDCHAR
STARTCHAR uni1EC5
ENCODING 7877
SWIDTH 574 0
DWIDTH 18 0
BBX 16 27 1 0
BITMAP
070C
0FFC
1FF8
1870
0000
01C0
03E0
07F0
0E38
180C
0000
03E0
0E78
3C3C
7C1E
7C1E
F81F
F81F
FFFF
FFFF
F800
F800
FC03
7C06
3F0E
1FFC
07F0
ENDCHAR
STARTCHAR uni1EC6
ENCODING 7878
SWIDTH 759 0
DWIDTH 23 0
BBX 21 37 1 -6
BITMAP
007000
00F800
01DC00
038E00
070700
000000
FFFFF8
FFFFF8
1F81F8
1F80F8
1F8078
1F8038
1F8038
1F8618
1F8618
1F8E00
1F8E00
1F9E00
1FFE00
1FFE00
1F9E00
1F8E00
1F8618
1F8618
1F8618
1F8038
1F8038
1F8078
1F81F8
FFFFF8
FFFFF8
000000
003000
007800
007800
007800
003000
ENDCHAR
STARTCHAR uni1EC7
ENCODING 7879
SWIDTH 574 0
DWIDTH 18 0
BBX 16 28 1 -6
BITMAP
01C0
03E0
0770
0E38
1C1C
0000
03E0
0FF8
3C3C
781E
781E
F81F
F81F
FFFF
FFFF
F800
F800
FC03
7C06
3F0E
1FFC
07F0
0000
0180
03C0
03C0
03C0
0180
ENDCHAR
STARTCHAR uni1ECA
ENCODING 7882
SWIDTH 444 0
DWIDTH 14 0
BBX 12 31 1 -6
BITMAP
FFF0
FFF0
1F80
1F80
1F80
1F80
1F80
1F80
1F80
1F80
1F80
1F80
1F80
1F80
1F80
1F80
1F80
1F80
1F80
1F80
1F80
1F80
1F80
FFF0
FFF0
0000
0600
0F00
0F00
0F00
0600
ENDCHAR
STARTCHAR uni1ECB
ENCODING 7883
SWIDTH 370 0
DWIDTH 12 0
BBX 9 31 2 -6
BITMAP
1C00
3E00
3E00
3E00
1C00
0000
0000
0000
0000
FE00
FE00
3E00
3E00
3E00
3E00
3E00
3E00
3E00
3E00
3E00
3E00
3E00
3E00
FF80
FF80
0000
0C00
1E00
1E00
1E00
0C00
ENDCHAR
STARTCHAR uni1ECC
ENCODING 7884
SWIDTH 833 0
DWIDTH 26 0
BBX 24 31 1 -6
BITMAP
007E00
03FFC0
0FC1F0
1F80F8
3F00FC
3E007C
7E007E
7E007E
FC003F
FC003F
FC003F
FC003F
FC003F
FC003F
FC003F
FC003F
FC003F
7E007E
7E007E
3E007C
3F00FC
1F80F8
0FC1F0
03FFC0
007E00
000000
001800
003C00
003C00
003C00
001800
ENDCHAR
STARTCHAR uni1ECD
ENCODING 7885
SWIDTH 611 0
DWIDTH 19 0
BBX 17 22 1 -6
BITMAP
03E000
0FF800
3E3E00
7C1F00
7C1F00
F80F80
F80F80
F80F80
F80F80
F80F80
F80F80
7C1F00
7C1F00
3E3E00
0FF800
03E000
000000
00C000
01E000
01E000
01E000
00C000
ENDCHAR
STARTCHAR uni1ED0
ENCODING 7888
SWIDTH 833 0
DWIDTH 26 0
BBX 24 39 1 0
BITMAP
000300
000780
000F80
001F00
003C00
003000
000000
001C00
003E00
007F00
00E380
0180C0
000000
000000
007E00
03FFC0
0FC1F0
1F80F8
3F00FC
3E007C
7E007E
7E007E
FC003F
FC003F
FC003F
FC003F
FC003F
FC003F
FC003F
FC003F
FC003F
7E007E
7E007E
3E007C
3F00FC
1F80F8
0FC1F0
03FFC0
007E00
ENDCHAR
STARTCHAR uni1ED1
ENCODING 7889
SWIDTH 611 0
DWIDTH 19 0
BBX 17 29 1 0
BITMAP
003000
007800
00F800
01F000
03C000
030000
000000
01C000
03E000
07F000
0E3800
180C00
000000
03E000
0FF800
3E3E00
7C1F00
7C1F00
F80F80
F80F80
F80F80
F80F80
F80F80
F80F80
7C1F00
7C1F00
3E3E00
0FF800
03E000
ENDCHAR
STARTCHAR uni1ED2
ENCODING 7890
SWIDTH 833 0
DWIDTH 26 0
BBX 24 39 1 0
BITMAP
00C000
01E000
01F000
00F800
003C00
000C00
000000
001C00
003E00
007F00
00E380
0180C0
000000
000000
007E00
03FFC0
0FC1F0
1F80F8
3F00FC
3E007C
7E007E
7E007E
FC003F
FC003F
FC003F
FC003F
FC003F
FC003F
FC003F
FC003F
FC003F
7E007E
7E007E
3E007C
3F00FC
1F80F8
0FC1F0
03FFC0
007E00
ENDCHAR
STARTCHAR uni1ED3
ENCODING 7891
SWIDTH 611 0
DWIDTH 19 0
BBX 17 29 1 0
BITMAP
060000
0F0000
0F8000
07C000
01E000
006000
000000
01C000
03E000
07F000
0E3800
180C00
000000
03E000
0FF800
3E3E00
7C1F00
7C1F00
F80F80
F80F80
F80F80
F80F80
F80F80
F80F80
7C1F00
7C1F00
3E3E00
0FF800
03E000
ENDCHAR
STARTCHAR uni1ED6
ENCODING 7894
SWIDTH 833 0
DWIDTH 26 0
BBX 24 37 1 0
BITMAP
0070C0
00FFC0
01FF80
018700
000000
001C00
003E00
007F00
00E380
0180C0
000000
000000
007E00
03FFC0
0FC1F0
1F80F8
3F00FC
3E007C
7E007E
7E007E
FC003F
FC003F
FC003F
FC003F
FC003F
FC003F
FC003F
FC003F
FC003F
7E007E
7E007E
3E007C
3F00FC
1F80F8
0FC1F0
03FFC0
007E00
ENDCHAR
STARTCHAR uni1ED7
ENCODING 7895
SWIDTH 611 0
DWIDTH 19 0
BBX 17 27 1 0
BITMAP
070C00
0FFC00
1FF800
187000
000000
01C000
03E000
07F000
0E3800
180C00
000000
03E000
0FF800
3E3E00
7C1F00
7C1F00
F80F80
F80F80
F80F80
F80F80
F80F80
F80F80
7C1F00
7C1F00
3E3E00
0FF800
03E000
ENDCHAR
STARTCHAR uni1ED8
ENCODING 7896
SWIDTH 833 0
DWIDTH 26 0
BBX 24 37 1 -6
BITMAP
003800
007C00
00EE00
01C700
038380
000000
007E00
03FFC0
0FC1F0
1F80F8
3F00FC
3E007C
7E007E
7E007E
FC003F
FC003F
FC003F
FC003F
FC003F
FC003F
FC003F
FC003F
FC003F
7E007E
7E007E
3E007C
3F00FC
1F80F8
0FC1F0
03FFC0
007E00
000000
001800
003C00
003C00
003C00
001800
ENDCHAR
STARTCHAR uni1ED9
ENCODING 7897
SWIDTH 611 0
DWIDTH 19 0
BBX 17 28 1 -6
BITMAP
01C000
03E000
077000
0E3800
1C1C00
000000
03E000
0FF800
3E3E00
7C1F00
7C1F00
F80F80
F80F80
F80F80
F80F80
F80F80
F80F80
7C1F00
7C1F00
3E3E00
0FF800
03E000
000000
00C000
01E000
01E000
01E000
00C000
ENDCHAR
STARTCHAR uni1EDA
ENCODING 7898
SWIDTH 833 0
DWIDTH 26 0
BBX 28 32 1 0
BITMAP
00006000
0000F000
0001F000
0003E000
00078000
00060000
00000000
007E01E0
03FFC3F0
0FC1F3F0
1F80FBF0
3F00FFF0
3E007DF0
7E007E70
7E007E60
FC003FE0
FC003FC0
FC003F80
FC003F00
FC003F00
FC003F00
FC003F00
FC003F00
FC003F00
7E007E00
7E007E00
3E007C00
3F00FC00
1F80F800
0FC1F000
03FFC000
007E0000
ENDCHAR
STARTCHAR uni1EDB
ENCODING 7899
SWIDTH 611 0
DWIDTH 19 0
BBX 21 23 1 0
BITMAP
000600
000F00
001F00
003E00
007800
006000
000000
03E0F0
0FF9F8
3E3FF8
7C1FF8
7C1FF8
F80FF8
F80FB8
F80FB0
F80FF0
F80FE0
F80FC0
7C1F80
7C1F00
3E3E00
0FF800
03E000
ENDCHAR
STARTCHAR uni1EDC
ENCODING 7900
SWIDTH 833 0
DWIDTH 26 0
BBX 28 32 1 0
BITMAP
000C0000
001E0000
001F0000
000F8000
0003C000
0000C000
00000000
007E01E0
03FFC3F0
0FC1F3F0
1F80FBF0
3F00FFF0
3E007DF0
7E007E70
7E007E60
FC003FE0
FC003FC0
FC003F80
FC003F00
FC003F00
FC003F00
FC003F00
FC003F00
FC003F00
7E007E00
7E007E00
3E007C00
3F00FC00
1F80F800
0FC1F000
03FFC000
007E0000
ENDCHAR
STARTCHAR uni1EDD
ENCODING 7901
SWIDTH 611 0
DWIDTH 19 0
BBX 21 23 1 0
BITMAP
00C000
01E000
01F000
00F800
003C00
000C00
000000
03E0F0
0FF9F8
3E3FF8
7C1FF8
7C1FF8
F80FF8
F80FB8
F80FB0
F80FF0
F80FE0
F80FC0
7C1F80
7C1F00
3E3E00
0FF800
03E000
ENDCHAR
STARTCHAR uni1EE0
ENCODING 7904
SWIDTH 833 0
DWIDTH 26 0
BBX 28 30 1 0
BITMAP
000E1800
001FF800
003FF000
0030E000
00000000
007E01E0
03FFC3F0
0FC1F3F0
1F80FBF0
3F00FFF0
3E007DF0
7E007E70
7E007E60
FC003FE0
FC003FC0
FC003F80
FC003F00
FC003F00
FC003F00
FC003F00
FC003F00
FC003F00
7E007E00
7E007E00
3E007C00
3F00FC00
1F80F800
0FC1F000
03FFC000
007E0000
ENDCHAR
STARTCHAR uni1EE1
ENCODING 7905
SWIDTH 611 0
DWIDTH 19 0
BBX 21 21 1 0
BITMAP
00E180
01FF80
03FF00
030E00
000000
03E0F0
0FF9F8
3E3FF8
7C1FF8
7C1FF8
F80FF8
F80FB8
F80FB0
F80FF0
F80FE0
F80FC0
7C1F80
7C1F00
3E3E00
0FF800
03E000
ENDCHAR
STARTCHAR uni1EE2
ENCODING 7906
SWIDTH 833 0
DWIDTH 26 0
BBX 28 31 1 -6
BITMAP
007E01E0
03FFC3F0
0FC1F3F0
1F80FBF0
3F00FFF0
3E007DF0
7E007E70
7E007E60
FC003FE0
FC003FC0
FC003F80
FC003F00
FC003F00
FC003F00
FC003F00
FC003F00
FC003F00
7E007E00
7E007E00
3E007C00
3F00FC00
1F80F800
0FC1F000
03FFC000
007E0000
00000000
000C0000
001E0000
001E0000
001E0000
000C0000
ENDCHAR
STARTCHAR uni1EE3
ENCODING 7907
SWIDTH 611 0
DWIDTH 19 0
BBX 21 22 1 -6
BITMAP
03E0F0
0FF9F8
3E3FF8
7C1FF8
7C1FF8
F80FF8
F80FB8
F80FB0
F80FF0
F80FE0
F80FC0
7C1F80
7C1F00
3E3E00
0FF800
03E000
000000
00C000
01E000
01E000
01E000
00C000
ENDCHAR
STARTCHAR uni1EE4
ENCODING 7908
SWIDTH 833 0
DWIDTH 28 0
BBX 26 31 1 -6
BITMAP
FFF0FFC0
FFF0FFC0
1F801E00
1F800C00
1F800C00
1F800C00
1F800C00
1F800C00
1F800C00
1F800C00
1F800C00
1F800C00
1F800C00
1F800C00
1F800C00
1F800C00
1F800C00
1F800C00
1F800C00
1F801C00
0FC01800
0FE03800
07F8F000
03FFE000
00FFC000
00000000
00180000
003C0000
003C0000
003C0000
00180000
ENDCHAR
STARTCHAR uni1EE5
ENCODING 7909
SWIDTH 685 0
DWIDTH 22 0
BBX 20 22 1 -6
BITMAP
FE1FC0
FE1FC0
3E07C0
3E07C0
3E07C0
3E07C0
3E07C0
3E07C0
3E07C0
3E07C0
3E0FC0
3E0FC0
3F1FC0
1FFFC0
1FF7F0
07C7F0
000000
003000
007800
007800
007800
003000
ENDCHAR
STARTCHAR uni1EE8
ENCODING 7912
SWIDTH 833 0
DWIDTH 28 0
BBX 29 32 1 0
BITMAP
00006000
0000F000
0001F000
0003E000
00078000
00060000
00000000
FFF0FFF0
FFF0FFF8
1F801FF8
1F800DF8
1F800DF8
1F800CF8
1F800C38
1F800C30
1F800C70
1F800CE0
1F800DC0
1F800D80
1F800C00
1F800C00
1F800C00
1F800C00
1F800C00
1F800C00
1F800C00
1F801C00
0FC01800
0FE03800
07F8F000
03FFE000
00FFC000
ENDCHAR
STARTCHAR uni1EE9
ENCODING 7913
SWIDTH 685 0
DWIDTH 22 0
BBX 24 23 1 0
BITMAP
000180
0003C0
0007C0
000F80
001E00
001800
000000
FE1FDE
FE1FFF
3E07FF
3E07FF
3E07FF
3E07DF
3E07C7
3E07C6
3E07CE
3E07DC
3E0FF8
3E0FF0
3F1FC0
1FFFC0
1FF7F0
07C7F0
ENDCHAR
STARTCHAR uni1EEA
ENCODING 7914
SWIDTH 833 0
DWIDTH 28 0
BBX 29 32 1 0
BITMAP
00180000
003C0000
003E0000
001F0000
00078000
00018000
00000000
FFF0FFF0
FFF0FFF8
1F801FF8
1F800DF8
1F800DF8
1F800CF8
1F800C38
1F800C30
1F800C70
1F800CE0
1F800DC0
1F800D80
1F800C00
1F800C00
1F800C00
1F800C00
1F800C00
1F800C00
1F800C00
1F801C00
0FC01800
0FE03800
07F8F000
03FFE000
00FFC000
ENDCHAR
STARTCHAR uni1EEB
ENCODING 7915
SWIDTH 685 0
DWIDTH 22 0
BBX 24 23 1 0
BITMAP
006000
00F000
00F800
007C00
001E00
000600
000000
FE1FDE
FE1FFF
3E07FF
3E07FF
3E07FF
3E07DF
3E07C7
3E07C6
3E07CE
3E07DC
3E0FF8
3E0FF0
3F1FC0
1FFFC0
1FF7F0
07C7F0
ENDCHAR
STARTCHAR uni1EEE
ENCODING 7918
SWIDTH 833 0
DWIDTH 28 0
BBX 29 30 1 0
BITMAP
000E1800
001FF800
003FF000
0030E000
00000000
FFF0FFF0
FFF0FFF8
1F801FF8
1F800DF8
1F800DF8
1F800CF8
1F800C38
1F800C30
1F800C70
1F800CE0
1F800DC0
1F800D80
1F800C00
1F800C00
1F800C00
1F800C00
1F800C00
1F800C00
1F800C00
1F801C00
0FC01800
0FE03800
07F8F000
03FFE000
00FFC000
ENDCHAR
STARTCHAR uni1EEF
ENCODING 7919
SWIDTH 685 0
DWIDTH 22 0
BBX 24 21 1 0
BITMAP
003860
007FE0
00FFC0
00C380
000000
FE1FDE
FE1FFF
3E07FF
3E07FF
3E07FF
3E07DF
3E07C7
3E07C6
3E07CE
3E07DC
3E0FF8
3E0FF0
3F1FC0
1FFFC0
1FF7F0
07C7F0
ENDCHAR
STARTCHAR uni1EF0
ENCODING 7920
SWIDTH 833 0
DWIDTH 28 0
BBX 29 31 1 -6
BITMAP
FFF0FFF0
FFF0FFF8
1F801FF8
1F800DF8
1F800DF8
1F800CF8
1F800C38
1F800C30
1F800C70
1F800CE0
1F800DC0
1F800D80
1F800C00
1F800C00
1F800C00
1F800C00
1F800C00
1F800C00
1F800C00
1F801C00
0FC01800
0FE03800
07F8F000
03FFE000
00FFC000
00000000
000C0000
001E0000
001E0000
001E0000
000C0000
ENDCHAR
STARTCHAR uni1EF1
ENCODING 7921
SWIDTH 685 0
DWIDTH 22 0
BBX 24 22 1 -6
BITMAP
FE1FDE
FE1FFF
3E07FF
3E07FF
3E07FF
3E07DF
3E07C7
3E07C6
3E07CE
3E07DC
3E0FF8
3E0FF0
3F1FC0
1FFFC0
1FF7F0
07C7F0
000000
003000
007800
007800
007800
003000
ENDCHAR
STARTCHAR Ygrave
ENCODING 7922
SWIDTH 722 0
DWIDTH 24 0
BBX 24 32 0 0
BITMAP
00C000
01E000
01F000
00F800
003C00
000C00
000000
FFF1FF
FFF1FF
3F807C
1FC038
1FC070
0FE070
0FE0E0
07F0C0
03F1C0
03F980
01FB80
01FF00
00FF00
007E00
007E00
007E00
007E00
007E00
007E00
007E00
007E00
007E00
007E00
03FFC0
03FFC0
ENDCHAR
STARTCHAR ygrave
ENCODING 7923
SWIDTH 611 0
DWIDTH 19 0
BBX 19 30 0 -7
BITMAP
060000
0F0000
0F8000
07C000
01E000
006000
000000
FF8FE0
FF8FE0
3F0380
3F0380
1F0300
1F8700
0F8600
0FC600
07CC00
07EC00
03F800
03F800
01F800
01F000
00F000
00E000
006000
70C000
F8C000
F98000
FF0000
7F0000
3C0000
ENDCHAR
STARTCHAR uni1EF4
ENCODING 7924
SWIDTH 722 0
DWIDTH 24 0
BBX 24 31 0 -6
BITMAP
FFF1FF
FFF1FF
3F807C
1FC038
1FC070
0FE070
0FE0E0
07F0C0
03F1C0
03F980
01FB80
01FF00
00FF00
007E00
007E00
007E00
007E00
007E00
007E00
007E00
007E00
007E00
007E00
03FFC0
03FFC0
000000
001800
003C00
003C00
003C00
001800
ENDCHAR
STARTCHAR uni1EF5
ENCODING 7925
SWIDTH 611 0
DWIDTH 19 0
BBX 19 29 0 -13
BITMAP
FF8FE0
FF8FE0
3F0380
3F0380
1F0300
1F8700
0F8600
0FC600
07CC00
07EC00
03F800
03F800
01F800
01F000
00F000
00E000
006000
70C000
F8C000
F98000
FF0000
7F0000
3C0000
000000
060000
0F0000
0F0000
0F0000
060000
ENDCHAR
STARTCHAR uni1EF8
ENCODING 7928
SWIDTH 722 0
DWIDTH 24 0
BBX 24 30 0 0
BITMAP
00E180
01FF80
03FF00
030E00
000000
FFF1FF
FFF1FF
3F807C
1FC038
1FC070
0FE070
0FE0E0
07F0C0
03F1C0
03F980
01FB80
01FF00
00FF00
007E00
007E00
007E00
007E00
007E00
007E00
007E00
007E00
007E00
007E00
03FFC0
03FFC0
ENDCHAR
STARTCHAR uni1EF9
ENCODING 7929
SWIDTH 611 0
DWIDTH 19 0
BBX 19 28 0 -7
BITMAP
038600
07FE00
0FFC00
0C3800
000000
FF8FE0
FF8FE0
3F0380
3F0380
1F0300
1F8700
0F8600
0FC600
07CC00
07EC00
03F800
03F800
01F800
01F000
00F000
00E000
006000
70C000
F8C000
F98000
FF0000
7F0000
3C0000
ENDCHAR
STARTCHAR uni2000
ENCODING 8192
SWIDTH 500 0
DWIDTH 17 0
BBX 1 1 0 0
BITMAP
00
ENDCHAR
STARTCHAR uni2001
ENCODING 8193
SWIDTH 1000 0
DWIDTH 33 0
BBX 1 1 0 0
BITMAP
00
ENDCHAR
STARTCHAR uni2002
ENCODING 8194
SWIDTH 500 0
DWIDTH 17 0
BBX 1 1 0 0
BITMAP
00
ENDCHAR
STARTCHAR uni2003
ENCODING 8195
SWIDTH 1000 0
DWIDTH 33 0
BBX 1 1 0 0
BITMAP
00
ENDCHAR
STARTCHAR uni2004
ENCODING 8196
SWIDTH 333 0
DWIDTH 11 0
BBX 1 1 0 0
BITMAP
00
ENDCHAR
STARTCHAR uni2005
ENCODING 8197
SWIDTH 250 0
DWIDTH 8 0
BBX 1 1 0 0
BITMAP
00
ENDCHAR
STARTCHAR uni2006
ENCODING 8198
SWIDTH 167 0
DWIDTH 6 0
BBX 1 1 0 0
BITMAP
00
ENDCHAR
STARTCHAR uni2007
ENCODING 8199
SWIDTH 574 0
DWIDTH 19 0
BBX 1 1 0 0
BITMAP
00
ENDCHAR
STARTCHAR uni2008
ENCODING 8200
SWIDTH 278 0
DWIDTH 9 0
BBX 1 1 0 0
BITMAP
00
ENDCHAR
STARTCHAR uni2009
ENCODING 8201
SWIDTH 200 0
DWIDTH 7 0
BBX 1 1 0 0
BITMAP
00
ENDCHAR
STARTCHAR uni200A
ENCODING 8202
SWIDTH 100 0
DWIDTH 3 0
BBX 1 1 0 0
BITMAP
00
ENDCHAR
STARTCHAR uni200B
ENCODING 8203
SWIDTH 0 0
DWIDTH 0 0
BBX 1 1 0 0
BITMAP
00
ENDCHAR
STARTCHAR uni2010
ENCODING 8208
SWIDTH 333 0
DWIDTH 11 0
BBX 8 4 1 6
BITMAP
FF
FF
FF
FF
ENDCHAR
STARTCHAR uni2011
ENCODING 8209
SWIDTH 333 0
DWIDTH 11 0
BBX 8 4 1 6
BITMAP
FF
FF
FF
FF
ENDCHAR
STARTCHAR figuredash
ENCODING 8210
SWIDTH 500 0
DWIDTH 16 0
BBX 16 3 0 7
BITMAP
FFFF
FFFF
FFFF
ENDCHAR
STARTCHAR endash
ENCODING 8211
SWIDTH 500 0
DWIDTH 16 0
BBX 16 3 0 7
BITMAP
FFFF
FFFF
FFFF
ENDCHAR
STARTCHAR emdash
ENCODING 8212
SWIDTH 1000 0
DWIDTH 32 0
BBX 32 3 0 7
BITMAP
FFFFFFFF
FFFFFFFF
FFFFFFFF
ENDCHAR
STARTCHAR afii00208
ENCODING 8213
SWIDTH 1000 0
DWIDTH 32 0
BBX 32 3 0 7
BITMAP
FFFFFFFF
FFFFFFFF
FFFFFFFF
ENDCHAR
STARTCHAR quoteleft
ENCODING 8216
SWIDTH 241 0
DWIDTH 8 0
BBX 6 12 1 13
BITMAP
0C
1C
38
70
60
E0
F8
FC
FC
FC
7C
78
ENDCHAR
STARTCHAR quoteright
ENCODING 8217
SWIDTH 241 0
DWIDTH 8 0
BBX 6 12 1 13
BITMAP
78
FC
FC
FC
FC
7C
1C
18
38
70
E0
C0
ENDCHAR
STARTCHAR quotesinglbase
ENCODING 8218
SWIDTH 241 0
DWIDTH 8 0
BBX 6 12 1 -6
BITMAP
78
FC
FC
FC
FC
7C
1C
18
38
70
E0
C0
ENDCHAR
STARTCHAR quotereversed
ENCODING 8219
SWIDTH 241 0
DWIDTH 8 0
BBX 6 12 1 13
BITMAP
78
FC
FC
FC
FC
F8
E0
60
70
38
1C
0C
ENDCHAR
STARTCHAR quotedblleft
ENCODING 8220
SWIDTH 481 0
DWIDTH 16 0
BBX 13 12 1 13
BITMAP
0C18
1C38
3870
70E0
60C0
E1C0
F9F0
FDF8
FDF8
FDF8
FDF8
78F0
ENDCHAR
STARTCHAR quotedblright
ENCODING 8221
SWIDTH 481 0
DWIDTH 16 0
BBX 13 12 1 13
BITMAP
78F0
FDF8
FDF8
FDF8
FDF8
7CF8
1C38
1830
3870
70E0
E1C0
C180
ENDCHAR
STARTCHAR quotedblbase
ENCODING 8222
SWIDTH 481 0
DWIDTH 16 0
BBX 13 12 1 -6
BITMAP
78F0
F9F8
FDF8
FDF8
FDF8
7CF8
1C38
1830
3870
70E0
E1C0
C180
ENDCHAR
STARTCHAR uni201F
ENCODING 8223
SWIDTH 481 0
DWIDTH 16 0
BBX 13 12 1 13
BITMAP
78F0
FDF8
FDF8
FDF8
FDF8
F9F0
E1C0
60C0
70E0
3870
1C38
0C18
ENDCHAR
STARTCHAR dagger
ENCODING 8224
SWIDTH 500 0
DWIDTH 16 0
BBX 13 28 1 -3
BITMAP
0700
0700
0700
0700
0700
0200
0200
F278
FFF8
F278
0200
0200
0700
0700
0F80
0700
0700
0700
0700
0200
0200
0200
0200
0200
0200
0200
0200
0200
ENDCHAR
STARTCHAR daggerdbl
ENCODING 8225
SWIDTH 500 0
DWIDTH 16 0
BBX 13 28 1 -3
BITMAP
0700
0700
0700
0700
0700
0200
0200
F278
FFF8
E238
0200
0700
0700
0F80
0700
0700
0200
0200
0200
F278
FFF8
F278
0200
0200
0700
0700
0700
0700
ENDCHAR
STARTCHAR bullet
ENCODING 8226
SWIDTH 606 0
DWIDTH 20 0
BBX 11 11 4 6
BITMAP
1F00
3F80
7FC0
FFE0
FFE0
FFE0
FFE0
FFE0
7FC0
3F80
1F00
ENDCHAR
STARTCHAR ellipsis
ENCODING 8230
SWIDTH 1000 0
DWIDTH 33 0
BBX 28 6 2 0
BITMAP
780F01E0
FC1F83F0
FC1F83F0
FC1F83F0
FC1F83F0
780F01E0
ENDCHAR
STARTCHAR perthousand
ENCODING 8240
SWIDTH 1000 0
DWIDTH 33 0
BBX 32 23 0 0
BITMAP
0F818000
1EC38000
3CCF0000
787F0000
78460000
F0440000
F0CC0000
E0880000
E1980000
E3300000
77300000
3E63E03E
0047B07B
00CF30F3
009E11E1
019E11E1
033C13C1
033C33C3
063823C2
04386386
0C38C38C
081DC1DC
180F81F8
ENDCHAR
STARTCHAR guilsinglleft
ENCODING 8249
SWIDTH 333 0
DWIDTH 11 0
BBX 6 11 2 3
BITMAP
04
0C
18
38
70
F0
70
38
18
0C
04
ENDCHAR
STARTCHAR guilsinglright
ENCODING 8250
SWIDTH 333 0
DWIDTH 11 0
BBX 6 11 2 3
BITMAP
80
C0
60
70
38
3C
38
70
60
C0
80
ENDCHAR
STARTCHAR fraction
ENCODING 8260
SWIDTH 167 0
DWIDTH 6 0
BBX 14 23 -4 0
BITMAP
000C
000C
001C
0038
0030
0070
0060
00E0
01C0
01C0
0380
0700
0700
0E00
0C00
1C00
1800
3800
7000
6000
E000
C000
C000
ENDCHAR
STARTCHAR oneinferior
ENCODING 8321
SWIDTH 344 0
DWIDTH 11 0
BBX 9 14 1 -7
BITMAP
0C00
FC00
1C00
1C00
1C00
1C00
1C00
1C00
1C00
1C00
1C00
1C00
1C00
FF80
ENDCHAR
STARTCHAR twoinferior
ENCODING 8322
SWIDTH 344 0
DWIDTH 11 0
BBX 10 14 0 -7
BITMAP
3F00
6380
C1C0
F1C0
F1C0
71C0
0380
0700
0E00
1840
3040
7FC0
FFC0
FFC0
ENDCHAR
STARTCHAR threeinferior
ENCODING 8323
SWIDTH 344 0
DWIDTH 11 0
BBX 11 14 0 -7
BITMAP
3F00
73C0
71C0
21C0
01C0
0380
1F00
03C0
01E0
71E0
F1E0
E1E0
63C0
3F00
ENDCHAR
STARTCHAR uni20A5
ENCODING 8357
SWIDTH 963 0
DWIDTH 31 0
BBX 29 25 1 -4
BITMAP
00003000
00007000
00007000
00006000
0000E000
FE7EFF00
FEFFFFC0
3FFFFFC0
3F9FE7E0
3F0FC3E0
3E0F83E0
3E0F83E0
3E0F83E0
3E0F83E0
3E0F83E0
3E0F83E0
3E0F83E0
3E0F83E0
3E0F83E0
FFBFEFF8
FFBFEFF8
00180000
00380000
00380000
00300000
ENDCHAR
STARTCHAR uni20A6
ENCODING 8358
SWIDTH 833 0
DWIDTH 27 0
BBX 27 25 0 0
BITMAP
FF807FE0
FFC07FE0
3FE00F00
0FE00600
0FF00600
0FF80600
0FFC0600
0FFFFE00
0FFFFE00
0FFFFE00
0FFFFE00
0C3FC600
0C1FE600
0FFFFE00
0FFFFE00
0FFFFE00
0FFFFE00
0C01FE00
0C00FE00
0C007E00
0C007E00
0C003E00
1E001E00
FFC00E00
FFC00600
ENDCHAR
STARTCHAR uni20A9
ENCODING 8361
SWIDTH 981 0
DWIDTH 32 0
BBX 32 25 0 0
BITMAP
FFDFF9FF
FFDFF9FF
3F07E07C
3F07E038
1F83E030
1F83F070
1F83F070
0FFFFF60
0FFFFF60
0FFFFFE0
07FFFFC0
07E7F8C0
07E6FCC0
07FFFF80
03FFFF80
03FFFF80
03FFFF80
01FC3F00
01F83F00
01F83F00
00F83E00
00F81E00
00F01E00
00701C00
00700C00
ENDCHAR
STARTCHAR Euro
ENCODING 8364
SWIDTH 778 0
DWIDTH 24 0
BBX 26 25 -3 0
BITMAP
0007E180
003FFB80
007C1F80
01F80F80
01F00780
03E00380
07E00380
FFFF0180
FFFF0180
FFFF0080
FFFF0000
0FC00000
0FC00000
FFFF0000
FFFF0000
FFFF0000
FFFF00C0
0FE001C0
07E00180
07E00380
03F00300
01F80700
00FC1E00
007FFC00
000FF000
ENDCHAR
STARTCHAR uni20AD
ENCODING 8365
SWIDTH 815 0
DWIDTH 27 0
BBX 25 25 1 0
BITMAP
FFF3FF80
FFF3FF80
1F807E00
1F807800
1F80F000
1F81E000
1F81C000
1F838000
1F870000
1F8F0000
1F9F0000
FFFFFF80
FFFFFF80
FFFFFF80
1FEFE000
1FC7E000
1F87F000
1F83F800
1F81F800
1F81FC00
1F80FC00
1F80FE00
1F80FF00
FFF3FF80
FFF3FF80
ENDCHAR
STARTCHAR uni2103
ENCODING 8451
SWIDTH 1158 0
DWIDTH 36 0
BBX 33 25 2 0
BITMAP
00000FC300
00007FF700
3E00F83F00
7F03F01F00
6303E00F00
C187C00700
C18FC00700
C18FC00300
C19FC00300
631F800100
7F1F800000
3E1F800000
001F800000
001F800000
001F800000
001FC00000
001FC00180
001FC00380
000FC00300
000FC00700
0007E00600
0003F00E00
0001F83C00
0000FFF800
00001FE000
ENDCHAR
STARTCHAR uni2109
ENCODING 8457
SWIDTH 1102 0
DWIDTH 35 0
BBX 32 25 2 0
BITMAP
001FFFFF
001FFFFF
3E03F83F
7F03F01F
6303F00F
C183F007
C183F003
C183F063
C183F063
6303F0E1
7F03F0E0
3E03F3E0
0003FFE0
0003FFE0
0003F1E0
0003F0E0
0003F060
0003F060
0003F060
0003F000
0003F000
0003F000
0003F000
001FFF00
001FFF00
ENDCHAR
STARTCHAR trademark
ENCODING 8482
SWIDTH 1000 0
DWIDTH 31 0
BBX 29 14 1 11
BITMAP
FFF3E0F8
C731E0F0
8711E0F0
871171F0
07017170
07017370
07013B70
07013A70
07013E70
07011E70
07011C70
07010C70
07010C70
1FC7CCF8
ENDCHAR
STARTCHAR uni212A
ENCODING 8490
SWIDTH 815 0
DWIDTH 27 0
BBX 25 25 1 0
BITMAP
FFF3FF80
FFF3FF80
1F807E00
1F807800
1F80F000
1F81E000
1F81C000
1F838000
1F870000
1F8F0000
1F9F0000
1FBF8000
1FFFC000
1FEFC000
1FEFE000
1FC7E000
1F87F000
1F83F800
1F81F800
1F81FC00
1F80FC00
1F80FE00
1F80FF00
FFF3FF80
FFF3FF80
ENDCHAR
STARTCHAR uni212B
ENCODING 8491
SWIDTH 759 0
DWIDTH 25 0
BBX 25 33 0 0
BITMAP
003E0000
00770000
00630000
00630000
00770000
003E0000
00000000
00000000
001C0000
001C0000
001E0000
003E0000
003F0000
007F0000
007F8000
007F8000
00FF8000
00CFC000
01CFC000
018FC000
0187E000
0387E000
0307F000
0703F000
07FFF000
07FFF800
0E01F800
0C01FC00
1C00FC00
1C00FE00
3E00FE00
FF83FF80
FF83FF80
ENDCHAR
STARTCHAR uni2132
ENCODING 8498
SWIDTH 722 0
DWIDTH 23 0
BBX 21 25 1 0
BITMAP
00FFF8
00FFF8
000FC0
000FC0
000FC0
000FC0
060FC0
060FC0
060FC0
070FC0
078FC0
07FFC0
07FFC0
07CFC0
070FC0
870FC0
C60FC0
C60FC0
C00FC0
E00FC0
F00FC0
F80FC0
FC1FC0
FFFFF8
FFFFF8
ENDCHAR
STARTCHAR universal
ENCODING 8704
SWIDTH 759 0
DWIDTH 25 0
BBX 25 25 0 0
BITMAP
FF83FF80
FF83FF80
3E00FE00
1C00FE00
1C00FC00
0C01FC00
0E01F800
07FFF800
07FFF000
0703F000
0307F000
0387E000
0187E000
018FC000
01CFC000
00CFC000
00FF8000
007F8000
007F8000
007F0000
003F0000
003E0000
001E0000
001C0000
001C0000
ENDCHAR
STARTCHAR existential
ENCODING 8707
SWIDTH 759 0
DWIDTH 23 0
BBX 21 25 1 0
BITMAP
FFFFF8
FFFFF8
FC0FC0
F80FC0
F00FC0
E00FC0
E00FC0
C30FC0
C30FC0
038FC0
038FC0
03CFC0
03FFC0
03FFC0
03CFC0
038FC0
C30FC0
C30FC0
C30FC0
E00FC0
E00FC0
F00FC0
FC0FC0
FFFFF8
FFFFF8
ENDCHAR
STARTCHAR uni2204
ENCODING 8708
SWIDTH 759 0
DWIDTH 23 0
BBX 21 25 1 0
BITMAP
FFFFF8
FFFFF8
FC0FC0
F80FC0
F00FC0
E00FC0
E00FC0
C31FC0
C31FC0
039FC0
03BFC0
03FFC0
03FFC0
03FFC0
03FFC0
03EFC0
C3EFC0
C3EFC0
C3CFC0
E1CFC0
E1CFC0
F18FC0
FF8FC0
FFFFF8
FFFFF8
ENDCHAR
STARTCHAR minus
ENCODING 8722
SWIDTH 606 0
DWIDTH 20 0
BBX 16 4 2 6
BITMAP
FFFF
FFFF
FFFF
FFFF
ENDCHAR
STARTCHAR fraction
ENCODING 8725
SWIDTH 167 0
DWIDTH 6 0
BBX 14 23 -4 0
BITMAP
000C
000C
001C
0038
0030
0070
0060
00E0
01C0
01C0
0380
0700
0700
0E00
0C00
1C00
1800
3800
7000
6000
E000
C000
C000
ENDCHAR
STARTCHAR periodcentered
ENCODING 8729
SWIDTH 278 0
DWIDTH 9 0
BBX 6 6 1 5
BITMAP
78
FC
FC
FC
FC
78
ENDCHAR
STARTCHAR uni2236
ENCODING 8758
SWIDTH 278 0
DWIDTH 9 0
BBX 6 16 2 0
BITMAP
78
FC
FC
FC
FC
78
00
00
00
00
78
FC
FC
FC
FC
78
ENDCHAR
STARTCHAR uni2259
ENCODING 8793
SWIDTH 606 0
DWIDTH 20 0
BBX 16 16 2 3
BITMAP
01C0
03E0
0770
0E38
1C1C
0000
FFFF
FFFF
FFFF
FFFF
0000
0000
FFFF
FFFF
FFFF
FFFF
ENDCHAR
STARTCHAR uni225A
ENCODING 8794
SWIDTH 606 0
DWIDTH 20 0
BBX 16 16 2 3
BITMAP
1C1C
0E38
0770
03E0
01C0
0000
FFFF
FFFF
FFFF
FFFF
0000
0000
FFFF
FFFF
FFFF
FFFF
ENDCHAR
STARTCHAR notequal
ENCODING 8800
SWIDTH 606 0
DWIDTH 20 0
BBX 16 25 2 -4
BITMAP
0018
0038
0038
0030
0070
0070
0060
00E0
FFFF
FFFF
FFFF
FFFF
0180
0380
FFFF
FFFF
FFFF
FFFF
0600
0E00
0E00
0C00
1C00
1C00
1800
ENDCHAR
STARTCHAR equivalence
ENCODING 8801
SWIDTH 606 0
DWIDTH 20 0
BBX 16 11 0 3
BITMAP
FFFF
FFFF
FFFF
0000
FFFF
FFFF
FFFF
0000
FFFF
FFFF
FFFF
ENDCHAR
STARTCHAR uni2262
ENCODING 8802
SWIDTH 606 0
DWIDTH 20 0
BBX 16 25 0 -4
BITMAP
0018
0038
0038
0030
0070
0070
0060
FFFF
FFFF
FFFF
01C0
FFFF
FFFF
FFFF
0380
FFFF
FFFF
FFFF
0600
0E00
0E00
0C00
1C00
1C00
1800
ENDCHAR
STARTCHAR lessequal
ENCODING 8804
SWIDTH 606 0
DWIDTH 20 0
BBX 16 22 2 -4
BITMAP
0003
000F
007F
01FF
07FC
1FF0
7F80
FE00
F800
FC00
FF80
3FE0
0FF8
03FE
007F
001F
0007
0001
0000
FFFF
FFFF
FFFF
ENDCHAR
STARTCHAR greaterequal
ENCODING 8805
SWIDTH 606 0
DWIDTH 20 0
BBX 16 22 2 -4
BITMAP
C000
F000
FE00
FF80
3FE0
0FF8
01FE
007F
001F
003F
01FF
07FC
1FF0
7FC0
FE00
F800
E000
8000
0000
FFFF
FFFF
FFFF
ENDCHAR
STARTCHAR uni226E
ENCODING 8814
SWIDTH 606 0
DWIDTH 20 0
BBX 16 25 2 -3
BITMAP
0018
0038
0038
0030
0073
007F
007F
01FF
07FC
1FF0
7FC0
FFC0
F980
FF80
FF80
3FE0
0FF8
07FE
067F
0E1F
0E07
0C01
1C00
1C00
1800
ENDCHAR
STARTCHAR uni226F
ENCODING 8815
SWIDTH 606 0
DWIDTH 20 0
BBX 16 25 2 -3
BITMAP
0018
0038
0038
0030
C070
F070
FE60
FFE0
3FE0
0FF8
01FE
01FF
019F
03BF
03FF
07FC
1FF0
7FC0
FE00
FE00
EE00
8C00
1C00
1C00
1800
ENDCHAR
STARTCHAR uni2270
ENCODING 8816
SWIDTH 606 0
DWIDTH 20 0
BBX 16 25 2 -5
BITMAP
0018
0038
003B
003F
007F
01FF
07FC
1FF0
7FE0
FEC0
F9C0
FDC0
FF80
3FE0
0FF8
03FE
077F
071F
0607
0E01
0E00
FFFF
FFFF
FFFF
1800
ENDCHAR
STARTCHAR uni2271
ENCODING 8817
SWIDTH 606 0
DWIDTH 20 0
BBX 16 25 2 -5
BITMAP
0018
0038
C038
F030
FE70
FFF0
3FE0
0FF8
01FE
00FF
01DF
01FF
01FF
07FC
1FF0
7FC0
FF00
FF00
E600
8E00
0E00
FFFF
FFFF
FFFF
1800
ENDCHAR
STARTCHAR fi
ENCODING -1
SWIDTH 685 0
DWIDTH 23 0
BBX 21 25 1 0
BITMAP
007F00
01FFC0
07C3E0
0F87E0
0F87E0
0F03C0
1F0000
1F0000
1F0000
FFFFE0
FFFFE0
1F03E0
1F03E0
1F03E0
1F03E0
1F03E0
1F03E0
1F03E0
1F03E0
1F03E0
1F03E0
1F03E0
1F03E0
FFCFF8
FFCFF8
ENDCHAR
STARTCHAR fl
ENCODING -1
SWIDTH 685 0
DWIDTH 23 0
BBX 21 25 1 0
BITMAP
007E60
01FFE0
07C7E0
0F87E0
0F87E0
1F07E0
1F03E0
1F03E0
1F03E0
FFFFE0
FFFFE0
1F03E0
1F03E0
1F03E0
1F03E0
1F03E0
1F03E0
1F03E0
1F03E0
1F03E0
1F03E0
1F03E0
1F03E0
FFCFF8
FFCFF8
ENDCHAR
ENDFONT
